<svg xmlns="http://www.w3.org/2000/svg" width="158.88" height="97.558" viewBox="0 0 42.037 25.812"><g fill="#33cccd" fill-rule="evenodd"><path d="M33.104 11.993c.248-.442.51-.88.708-1.345.084-.2.027-.462.02-.694-.008-.286-.115-.35-.4-.23-.349.146-.629.354-.82.667-.246.401-.606.57-1.055.566-.715-.005-1.256.284-1.967.232-.958-.07-1.911-.19-2.777.381a.409.409 0 0 1-.168.058c-1.246.166-2.66.16-3.929 0-.076-.01-.148-.045-.222-.069.082-.033.167-.061.243-.103.18-.1.357-.203.531-.31.196-.12.375-.28.584-.362.28-.108.265-.259.174-.488-.218-.55-.235-.625.265-.791.647-.216.637-.904 1.052-1.272.04-.036-.045-.282-.13-.376-.299-.329-.569-.628-.195-1.09.073-.09-.048-.317-.036-.479.041-.562.092-1.125.158-1.685a2.293 2.293 0 0 0-.383-1.615c-.89-1.33-2.067-2.21-3.662-2.518-.39-.195-.474-.292-1.503-.45-1.379-.113-2.328.277-2.328.277-.687.448-1.362.918-2.066 1.337-.558.332-.911.832-1.024 1.416-.163.841-.228 1.71-.247 2.57-.016.792.275 1.519.74 2.169.122.17.242.342.346.522.227.394.172.69-.19.924-1.699 1.097-3.304 2.345-5.148 3.207-.365.17-.682.5-1.146.352-.026-.008-.062 0-.088.012-1.513.702-3.119 1.272-4.094 2.76a3.86 3.86 0 0 0-.494 1.047c-.249.888-.444 1.79-.662 2.688-.02.085-.044.17-.066.254-.094-.068-.209-.12-.278-.207-.113-.138-.18-.314-.294-.449-.41-.488-.9-.456-1.223.105-.177.307-.287.656-.406.993-.21.592-.433 1.171-.924 1.599l.17 1.432c.436.182.64.573.871.945.085.137.318.348.345.329.453-.318.569.086.736.333.313.463.741.761 1.243.99.591.269 1.157.246 1.72-.053.444-.235.836-.554 1.371-.628.272-.038.523-.257.603-.601.095-.404.25-.794.366-1.194.093-.32.2-.386.507-.238.35.168.678.39 1.037.532.718.285 1.447.545 2.18.79.536.18 1.078.136 1.545-.187.34-.235.5-.138.722.16.508.691 1.248.899 2.067.826.401-.035.75-.025 1.094.245.295.23.376.166.532-.232.147-.372.482-.553.923-.47.174.033.336.136.51.169.095.017.295-.05.294-.075-.014-.625.325-.253.548-.202.338.077.595-.157.529-.494-.075-.377-.286-.653-.66-.784-.6-.21-1.221-.255-1.85-.215-.97.062-1.006.083-1.47-.771-.265-.49-.407-1.05-.572-1.588-.025-.08.108-.276.208-.316 1.037-.414 1.767-1.206 2.511-1.985.165-.173.34-.336.522-.491.842-.717 1.702-1.412 2.525-2.148.492-.439 1.07-.626 1.686-.768 1.015-.234 2.023-.079 3.029.053.462.06.877.032 1.297-.191.28-.149.592-.19.932-.202.494-.02 1.286-.574 1.774-.707.2-.055.406-.11.588-.206.77-.404 2.481-1.322 2.671-1.661"/><path d="M40.344 18.024c0 .075.002.151 0 .227-.004.137.051.174.179.12.336-.146.686-.266 1.01-.434.509-.264.53-.331.49-.887-.01-.162-.034-.178-.163-.083-.37.272-.778.464-1.207.619-.313.113-.313.113-.309.438m-11.643-.816c-.102.345.122.513.37.647.283.154.574.304.878.413.526.188.471.27.484-.344.003-.172-.07-.24-.218-.304-.405-.176-.802-.372-1.2-.564-.095-.045-.182-.105-.273-.159l-.04.311M36.5 19.05c.965-.079 1.925-.176 2.87-.382.476-.103.477-.098.457-.577 0-.022-.002-.043 0-.065.004-.136-.068-.17-.187-.14l-.127.029c-1.113.258-2.245.378-3.385.416-.531.018-.528.014-.485.55.01.122.046.175.174.171.228-.006.455-.002.683-.002m-2.27-.027c.13.006.26.014.39.018.555.02.56.011.51-.541-.01-.105-.039-.163-.151-.16-.088.002-.175-.002-.261-.005-1.108-.037-2.208-.139-3.292-.38-.51-.114-.505-.11-.483.425.006.141.038.228.195.236.064.003.127.03.19.044.957.205 1.926.315 2.903.363m1.585 6.631c.543.006 1.506-.063 2.463-.206.85-.126 1.69-.297 2.482-.643.296-.13.578-.296.846-.476.322-.217.457-.536.418-.93-.012-.128-.04-.142-.153-.092-.386.172-.768.353-1.165.496-.233.085-.43.153-.37.457.006.04-.005.101-.031.123-.07.058-.152.133-.234.138-.066.005-.147-.072-.204-.13-.032-.034-.036-.103-.037-.156-.002-.136-.064-.16-.188-.133-1.234.276-2.487.388-3.748.428-.136.005-.261-.004-.27.192-.006.12-.105.19-.225.199-.121.008-.231-.056-.243-.172-.021-.215-.152-.217-.315-.22a20.748 20.748 0 0 1-3.59-.39c-.16-.032-.317-.113-.34.164-.009.112-.127.174-.249.16-.119-.014-.196-.088-.218-.209a.79.79 0 0 1-.014-.162c.003-.115-.051-.174-.161-.21-.497-.157-.989-.326-1.44-.595-.048-.029-.109-.046-.111.045-.006.262-.019.532.172.74.137.152.29.296.459.41.474.318 1.013.492 1.558.64 1.467.402 2.967.528 4.908.532m-.438-7.812c.619-.033 1.238-.054 1.855-.101a13.4 13.4 0 0 0 2.722-.477c.499-.145 1.002-.302 1.432-.607.192-.136.373-.302.515-.488.182-.236.173-.512.001-.76a1.75 1.75 0 0 0-.31-.329c-.286-.241-.62-.398-.966-.53-1.377-.528-2.821-.697-4.277-.768a19.633 19.633 0 0 0-3.384.117c-.972.121-1.931.296-2.849.652-.355.138-.692.31-.993.55-.521.413-.536.94-.02 1.367a3.1 3.1 0 0 0 .573.37c.644.323 1.336.512 2.04.65 1.208.237 2.43.346 3.661.354m6.649 2.587v-1.761c0-.076-.002-.153 0-.228.002-.12-.03-.149-.152-.096-.436.191-.873.382-1.318.55-.163.06-.225.138-.217.305.008.162.003.326-.012.488-.012.136-.1.216-.24.218-.138.001-.226-.074-.245-.211-.015-.107-.012-.217-.015-.325-.008-.26-.008-.263-.252-.211-.947.2-1.906.32-2.872.374-.26.015-.521.027-.782.038-.274.012-.274.012-.278.299 0 .086.003.173 0 .26-.011.23-.098.353-.25.357-.156.004-.253-.119-.263-.343-.007-.141-.004-.283-.004-.424 0-.09-.033-.145-.132-.144-.076 0-.153-.001-.228-.007-.726-.058-1.452-.104-2.176-.18-.463-.05-.921-.143-1.381-.222-.26-.044-.26-.048-.264.226-.002.109.005.218-.003.326-.014.2-.116.315-.261.311-.144-.003-.239-.12-.249-.323a5.117 5.117 0 0 1-.001-.522c.009-.157-.055-.228-.205-.278-.474-.155-.95-.307-1.38-.572-.143-.089-.132.03-.132.115-.001 1.304.001 2.609-.004 3.913-.001.15.047.259.17.325.334.178.662.373 1.01.516.532.217.54.2.54-.36 0-.108-.003-.218 0-.326a.93.93 0 0 1 .024-.193c.029-.12.115-.192.233-.192a.23.23 0 0 1 .234.19c.016.073.021.15.023.226.002.228 0 .457.001.685.002.306 0 .322.31.37.77.122 1.544.241 2.32.334.43.052.867.054 1.301.07.244.01.247.002.25-.25.005-.24 0-.48.002-.718 0-.076.002-.153.013-.227.018-.137.103-.22.238-.224.135-.004.226.075.248.21.014.086.015.174.016.26.002.25.006.5-.001.75-.005.154.047.215.207.204.413-.028.826-.035 1.238-.066a16.68 16.68 0 0 0 2.543-.372c.148-.035.2-.092.198-.236a25.692 25.692 0 0 1 0-.88c.002-.097-.003-.208.042-.286.041-.073.145-.153.22-.152.075 0 .172.085.217.158.041.066.032.167.034.254.004.26 0 .521.003.782 0 .078.005.172.121.133.493-.17.981-.35 1.41-.66.134-.095.154-.217.153-.367-.005-.63-.002-1.26-.002-1.891"/><path d="M42.027 20.429c0 .63-.003 1.261.002 1.891.002.15-.02.272-.153.368-.429.31-.916.49-1.41.659-.116.04-.12-.055-.121-.133-.002-.26.001-.521-.003-.782-.002-.087.007-.188-.034-.254-.045-.073-.142-.157-.217-.158-.075 0-.179.08-.22.152-.045.078-.04.189-.042.286a27.12 27.12 0 0 0 0 .88c.002.145-.05.201-.198.236a16.68 16.68 0 0 1-2.543.372c-.412.031-.825.038-1.238.066-.16.01-.212-.05-.207-.204.007-.25.003-.5 0-.75 0-.086 0-.174-.015-.26-.023-.135-.113-.214-.248-.21-.135.003-.22.087-.238.224-.01.074-.012.151-.013.227-.001.239.003.478-.001.717-.004.253-.007.26-.25.251-.435-.016-.872-.018-1.302-.07a63.406 63.406 0 0 1-2.32-.334c-.31-.048-.308-.064-.31-.37-.001-.229.001-.457-.001-.685a1.095 1.095 0 0 0-.023-.226.228.228 0 0 0-.234-.19c-.118 0-.204.073-.233.192a.93.93 0 0 0-.024.193c-.003.108 0 .218 0 .326 0 .561-.007.577-.539.36-.35-.143-.678-.338-1.011-.516-.123-.066-.17-.175-.17-.324.005-1.305.003-2.61.004-3.914 0-.086-.01-.203.132-.115.43.265.906.417 1.38.573.15.05.214.12.205.277-.01.173-.008.348.001.522.01.204.105.32.249.323.146.004.247-.112.26-.311.009-.108.002-.217.004-.326.004-.274.004-.27.263-.225.46.077.919.171 1.382.22.724.077 1.45.123 2.176.181.075.006.152.007.228.007.1-.001.132.055.133.144 0 .141-.004.283.003.424.01.224.107.347.262.343.153-.004.24-.127.25-.357.004-.086 0-.174.001-.26.004-.287.004-.287.278-.299.26-.011.521-.023.782-.038a19.09 19.09 0 0 0 2.872-.374c.244-.052.244-.048.252.21.003.11 0 .219.015.326.019.137.107.212.246.21.14-.001.227-.08.24-.217.014-.162.02-.326.011-.488-.008-.167.054-.245.217-.306.445-.167.882-.358 1.318-.549.121-.053.155-.023.152.096-.002.076 0 .152 0 .228zm-6.649-2.587a19.64 19.64 0 0 1-3.66-.354c-.704-.138-1.397-.327-2.041-.651a3.018 3.018 0 0 1-.573-.37c-.516-.427-.501-.953.02-1.367.3-.238.638-.41.993-.549.918-.355 1.877-.53 2.849-.652a19.633 19.633 0 0 1 3.384-.117c1.456.071 2.9.24 4.277.767.346.133.68.29.965.531.115.097.226.207.311.33.172.247.18.523-.001.76a2.409 2.409 0 0 1-.515.487c-.43.305-.933.462-1.432.607-.889.258-1.8.406-2.722.477-.617.047-1.236.068-1.855.1"/><path d="M35.816 25.654c-1.94-.004-3.441-.13-4.908-.531-.545-.149-1.084-.323-1.558-.642a2.59 2.59 0 0 1-.46-.408c-.19-.21-.177-.48-.17-.741.001-.09.062-.074.11-.045.45.27.943.438 1.44.596.11.035.164.094.16.21a.79.79 0 0 0 .015.161.24.24 0 0 0 .218.21c.122.013.24-.049.25-.161.022-.277.179-.196.339-.164 1.185.237 2.382.362 3.59.39.163.003.294.005.315.22.012.116.122.18.243.172.12-.009.218-.078.224-.199.01-.196.135-.187.27-.192 1.261-.04 2.515-.152 3.749-.428.124-.028.16 0 .188.133.021.104.017.093.037.155.023.07.045.159.204.131.149-.026.184-.025.236-.113a.434.434 0 0 0 .028-.148c-.038-.315.138-.372.371-.457.397-.143.78-.324 1.165-.496.112-.05.14-.036.154.092.038.394-.097.713-.418.93-.269.18-.551.347-.847.476-.791.346-1.632.517-2.481.644-.958.142-1.921.21-2.464.205m-1.586-6.632a17.893 17.893 0 0 1-2.902-.362c-.064-.014-.126-.04-.19-.044-.156-.008-.189-.095-.195-.236-.022-.535-.026-.54.483-.426 1.084.242 2.184.344 3.292.38.086.003.173.008.26.006.113-.003.142.055.152.16.05.552.045.562-.509.541-.13-.004-.26-.012-.39-.019m2.269.028c-.227 0-.456-.005-.683.002-.128.004-.164-.05-.174-.17-.043-.537-.046-.532.485-.55 1.14-.039 2.272-.158 3.385-.417l.127-.03c.12-.029.191.005.186.14l.001.066c.02.479.019.474-.456.577-.946.206-1.906.304-2.87.382m-7.8-1.842l.04-.31c.092.053.18.113.274.158.398.192.794.388 1.2.564.148.065.221.132.218.304-.013.615.042.532-.484.344a6.344 6.344 0 0 1-.879-.413c-.247-.134-.471-.302-.369-.647m11.643.816c-.004-.325-.004-.325.31-.438a4.707 4.707 0 0 0 1.206-.619c.129-.095.152-.079.164.083.04.556.018.623-.491.887-.324.168-.674.288-1.01.433-.128.055-.183.018-.18-.12.003-.075.001-.15.001-.226"/></g></svg>