<svg xmlns="http://www.w3.org/2000/svg" width="111.938" height="263.8" viewBox="0 0 29.617 69.797"><path d="M15.758 3.02c-.142-.212-.496.118-.496.118s.189.354.307.354.33-.26.19-.471m-4.575 24.26c.047.897.353 2.099.353 2.099s-.047-1.226.118-2.004c.166-.777.166-1.438.166-1.438l-.684-.33s0 .778.047 1.674M7.107 10.445s-.345-.308-.345-.493c0-.186.13-.391.13-.493 0-.103-.185-.38-.185-.38l-.275.516-.207.962zm11.53.078s.378.309.652.619c.276.31.791.962 1.513 3.093.722 2.132.412 7.804.412 8.114 0 .31.585.86 1.273 1.548.687.686 1.237 1.89 1.718 2.578.482.687.688 2.268 1.685 4.571.997 2.304 3.506 7.908 3.713 8.698.206.792-1.856 1.239-2.097 1.513-.241.275.102.448-.722.585-.825.137-4.126 2.028-4.126 2.028s-.481.997-.825 2.132c-.344 1.134-.619 3.54-.516 4.469.104.928 1.204 1.41 2.888 4.09 1.685 2.682 1.892 6.43 2.304 7.53.413 1.1.756 1.34.86 1.58.103.242.103.929.206 1.239.103.31 1.477 1.925 1.375 2.269-.103.344-1.066 1.306-2.235 2.097-1.168.79-2.922.447-3.885.447-.962 0-.79-.894-.103-1.342.687-.446 1.685-2.852 1.685-3.334 0-.481-.481-1.513-1.031-3.37-.55-1.855-4.264-6.634-4.883-7.597-.618-.962-1.478-1.58-1.959-2.852-.48-1.273.172-5.398.172-5.398l-.928-.241s-.172 2.292-.447 3.3.309 3.575 1.031 6.91.86 8.492.894 9.145c.034.653.447 1.479.584 2.063.138.584.31.996.241 1.65-.07.652-1.307.722-2.269.756-.962.035-3.232.172-4.056.24-.826.07-1.17-.446-.86-.756.31-.31 1.203-.652 1.41-.825.206-.171 2.234-2.028 2.372-2.2.138-.172-1.34-4.366-2.27-7.46-.927-3.094-1.409-5.776-1.444-6.634-.034-.86-.309-3.576-.309-4.436 0-.86-.378-3.266-.893-4.916-.516-1.65-.826-4.813-.826-4.813s-1.306-.172-2.2-.515c-.894-.344-3.128-2.991-3.816-4.676C2.237 30.737-.1 15.955.003 14.923c.103-1.031.275-1.443.86-2.062.584-.62 1.718-1.616 1.718-1.616s-.103-.585-.103-.928c0-.344.207-.207.207-.207s.137-.137.137-.309.206-.07.206-.07.344-.24.344-.411c0-.172.206-.344.206-.344s.207-.172.275-.344c.069-.172.344-.137.344-.137l.24-.482c.07-.137 1.066.344 1.066.344l.584-.344.654.31s.24-.138.24-.31-.377-.24-.446-.343c-.07-.104 0-.585 0-.585s-.481-.275-.62-.481c-.136-.206.86-1.41.93-1.65.068-.24 0-.757-.241-1.135s-.31-1.135.31-2.028C7.531.897 8.768.381 10.866.038c2.096-.344 4.228 1.787 4.228 1.787s.79-.653 1.788-.034c.997.619.962.962 1.65 3.78.688 2.82.206 4.505.206 4.505s0-.859-.274-2.097a13.688 13.688 0 0 0-.619-2.06zM1.116 22.048c.21.707.447 2.9.73 4.196.283 1.297.896 4.693 1.32 5.635.425.944 2.193 4.127 3.277 4.598 1.085.472 2.642.684 2.642.684s.424-2.358.424-3.3c0-.944.141-2.5.141-2.5s-1.296-3.301-1.555-4.904a155.36 155.36 0 0 0-.638-3.678c-.14-.755-1.202-4.338-1.272-4.668-.072-.331-2.217-4.174-2.334-4.575-.119-.4-.543-.636-.567-.754-.023-.118-.236-.519-.236-.519s-.613.849-1.226 1.25c-.613.4-1.555.778-1.555 1.131 0 .354.635 6.696.848 7.404" fill="#81d7c0"/></svg>