<svg xmlns="http://www.w3.org/2000/svg" width="98.888" height="214.364" viewBox="0 0 26.164 56.717"><path d="M19.433 20.548l-.313 1.684 1.326-.164c-.525-.481-.863-.989-1.013-1.52m-.142-18.726c1.587 1.36 2.339 2.777 2.151 4.941-.077.893-.455 1.747-.943 2.446-.652.939-1.618 1.554-2.26 2.505-.265-.283-.381-.294-.74-.376-.247 1.584 1.44 2.031 1.634 3.466l1.084.421c1.307 1.764 2.298 3.78 3.423 5.7l.54 1.993c-.155 1.03-.266 1.481-.727 2.382-1.293.514-2.315.468-3.683.12-.093 2.17.057 4.113.21 6.273l-.165.141a4.22 4.22 0 0 0 .496 1.72c.477 1.538.952 3 1.247 4.588a39.074 39.074 0 0 1 1.452 4.39l-1.064.305.166.34c1.552 2.122 1.897 3.729 2.088 6.436.256 1.356.222 2.041.474 3.396.575 1.118 1.92 2.132 1.354 3.465-1.364.184-2.528.446-3.874-.012-.16-1.183.081-2.544-.031-3.774-.359-1.64-1.166-2.938-1.873-4.444-.494-1.506-.836-3.09-1.58-4.464l-.989.215-.652-2.185c-.486-.766-1.063-1.471-1.458-2.297-.312-.651-.427-1.391-.64-2.086-.258 2.324-.247 4.082.006 6.435l-1.126-.087c.127 1.02.447 2.068.262 3.103-.39 2.178-1.847 5.507-.586 7.451.013.538.02 1.068.005 1.604-.601.081-1.154.355-1.655-.074l-1.455.613c-1.372.246-5.76.793-3.32-1.812 1.723-.85 2.912-1.72 3.466-3.796-.096-2.457.007-4.908-.092-7.35l-1.22-.57.387-3.12-.172-3.264c-.09-1.988.102-3.6.42-5.64l-1.091-.626c.192-2.366.542-4.456 1.052-6.742.016-1.122.067-2.228.133-3.347-1.428.789-3.184 2.792-4.397.83-.843-1.681-1.612-3.699-2.074-5.546 1.128-1.24-.51-1.521-1.184-2.099-.61-.455-1.53-1.19-1.956-1.98-.193-.36-.446-.643-.28-1.088.45-.39-.287-1.277.567-1.047.552.52 1.096.9 1.714 1.314-.212-.351-1.556-1.678-1.26-1.928.806-.68 2.59 3.132 2.32 1.132-.153-.46-.503-1.152.17-1.093.476 1.096 1.043 1.854 1.364 3.026-.094.767-.095 1.192.052 1.955.516.287.372-.457.458.177.345 1.069 1.436 3.213 2.208 3.863.42-.86 2.918-3.23 3.69-3.708-.437-.777-.017-.516.666-.566.606-1.149.895-1.15 2.022-1.521l.226-.685-1.074-.092c-.962-.328-.794-1.094-1.177-2.041-.752-1.567.277-2.537.515-4.053-.009-1.016.267-1.782.643-2.703l-.642-.032C13.574.675 14.687-.933 16.534.648c1.053.107 1.813.633 2.757 1.174" fill-rule="evenodd" fill="#96c"/></svg>