<svg xmlns="http://www.w3.org/2000/svg" width="102.475" height="160.671" viewBox="0 0 27.113 42.511"><path d="M18.09 8.523c-.076-.046.352-.627.398-.765.045-.138.153-.29.153-.29s0 .244-.168.504-.306.597-.383.55M11.359 7.07c-.016-.122 0-.504 0-.504s.122.58.167.703c.046.123.138.352.138.352s-.29-.428-.305-.55m.229 1.254c-.092-.138-.153-.352-.153-.352l-.015-.183c.03.045.137.275.198.351.061.077.061.322-.03.184m7.359-1.744c-.046-.49.061-.551.061-.551s.077.597.015.78c-.028.087-.064.18-.094.255a.361.361 0 0 1-.058.143l.058-.143c.024-.096.04-.25.018-.484m7.364 15.994c-.523-.415-2.656-2.123-3.021-2.33-.365-.208-.48-.205-.82-.638-.341-.434-1.549-.898-1.673-1.022-.124-.124-.124-2.044-.124-2.302s-.268-1.92-.299-2.426a3.85 3.85 0 0 1 .103-1.125c.042-.144.021-.444.248-1.073.227-.63 1.115-1.858 1.373-2.23.258-.372.95-1.538 1.115-1.9.165-.36.384-.738.508-.926.125-.186.382-1.572.382-1.641 0-.07.117-.257.124-.395.007-.139-.083-.298-.104-.367-.02-.07-.013-1.372-.006-1.47.006-.096.159-.04.304-.048.146-.007.278-.263.278-.415 0-.153-.153-.166-.23-.208-.076-.042.119-.146.264-.243.145-.097.464-.318.582-.415.118-.097.18-.076.222-.146.041-.07-.104-.166-.236-.166s-.589.221-.81.298c-.222.076-.347-.07-.59-.125-.242-.055-.443.035-.609.083-.166.049-.686.035-1.032.09-.347.056-.693.354-.901.478-.208.125-.333.125-.527.208-.194.083-.27.25-.228.36.041.111.16.07.242.063.083-.007.173-.028.395-.042.222-.014.34-.062.402-.083.062-.02.208 0 .388.021.18.02.208.055.27.097.062.042-.055.873-.055.977 0 .104-.055.125-.139.229-.083.103-.062.325-.062.512s-.083.423-.201.658a3.486 3.486 0 0 0-.29.887c-.077.374-.202.596-.223.665-.02.07-.131.035-.235.056-.104.02-.07.124-.07.194 0 .069-.11.069-.249.076-.139.007-.104.041-.104.166s.007.118-.097.25c-.104.131-.125.117-.215.117s-.131.042-.159.194c-.028.153-.097.132-.16.132a.27.27 0 0 0-.249.139c-.069.124-.006.152-.25.332-.242.18-.152.18-.172.277-.021.098-.09.063-.194.035-.104-.028-.028.09-.16.222-.131.131-.409.263-.47.346-.063.083-.423-.402-.423-.402s.655-.901.731-.963c.077-.06.383-.627.46-.979.075-.352-.093-1.178-.215-1.774-.123-.597-.199-1.24-.413-2.02-.214-.78-1.04-1.484-1.362-1.683-.321-.199-.719-.444-.841-.627-.123-.184-.551-.26-1.3-.306a3.125 3.125 0 0 0-1.822.428c-.458.275-.994.872-1.147 1.147-.153.276-.367.597-.673 1.27-.306.674-.2 1.025-.183 1.286.014.26-.108.413-.307.673-.199.26-.122.413-.107.52.016.107.092-.107.138-.214.046-.107.03.887.03 1.453 0 .566.016.918.153 1.209.138.29.093.275.154.367a.44.44 0 0 0 .198.138s.046.046.046 0 .107.245.138.321c.03.076.108.202.18.316.072.113-.34-.052-.537-.155-.196-.103-.423-.34-.588-.589-.165-.247-.3-.268-.382-.268-.083 0-.103-.02-.248-.196a3.137 3.137 0 0 0-.412-.413c-.176-.155-.249-.227-.331-.403-.083-.175-.144-.289-.29-.299-.144-.01-.113-.093-.164-.186-.052-.092-.206-.175-.31-.289-.103-.113-.434-.65-.733-.95-.3-.299-.784-.866-1.125-1.362-.34-.495-.702-1.166-.774-1.136-.072.031-.33-.35-.578-.753-.248-.403-.888-1.094-1.074-1.26C4.25.738 3.6.562 3.342.542c-.258-.021-.66.092-.836.103-.175.01-.299-.114-.392-.176-.093-.062-.67-.32-.93-.434C.928-.079.783.117.783.2c0 .082.382.237.65.423.27.186.413.351.424.454.01.104-.279.165-.568.258-.29.093-.568.166-.888.248-.32.083-.433.114-.392.268.041.155.454.073.753.073.3 0 .237.134.248.196.01.062-.702.093-.815.113-.114.021-.052.207-.02.269.03.062.288.082.392.113.103.031.65.02.826.01.175-.01.206-.051.34-.051.134 0 .29-.02.454-.072.165-.052.403-.29.506-.33.103-.042.743-.021.95-.01.206.01.299.32.464.639.165.32.382 1.001.413 1.074.03.072-.144.092-.113.185.03.093.598 1.084.825 1.497.227.413.826 1.229 1.136 1.62.31.393.516.703.578.837.062.134.598.826 1.001 1.373.403.547.784.794.846.98.062.186.393.444.661.66.268.218.733.713 1.435 1.735.702 1.022 1.455 3.355 1.651 3.84.196.485.382 1.518.393 1.837.01.32-.63.362-.878.362s-.433.268-.805.598c-.372.33-1.002.692-1.486 1.053-.485.362-.826.723-1.033 1.084a38.84 38.84 0 0 1-.9 1.413c-.128.195-.208.256-.202.343.006.087-.067.128-.154.235-.088.108-.39.161-.659.417-.268.255-.235.457-.262.517-.027.06 1.149-.094 1.25-.08.1.013-.72.92-.786 1-.068.081.262.31.329.383.067.074.14.047.417.04.275-.006.946.128 1 .155.054.027-.033.269-.033.336s.255.087.336.141c.08.054.033.189.114.255.08.068.168.048.222-.006.053-.054 1.028.443 1.296.524.27.08.377.336.518.43.14.094.22-.081.297-.055.069.023.084.144.138.144.053 0 .129-.021.19.033.06.053.08.348.147.785.068.437.081 1.572.094 2.082.014.511-.14 1.143-.289 1.848-.147.706-.282 2.21-.268 2.97.013.759.107 2.042.087 2.123-.02.08-.147.114-.241.282-.095.168-.068 1.182-.088 1.357-.02.175.013.383.128.443.114.06.134.162.134.33 0 .167-.108.557-.208.833-.101.275-.148.349-.33.685-.18.336-.08.746.007.887.088.14 1.888.147 2.432.094.544-.054.444-.732.464-1.109.02-.376.073-.396.161-.591.087-.195.007-.664.007-.788 0-.123.04-.33.206-.371.165-.041.083-1.321.083-1.61 0-.29-.186-.393-.269-.454-.082-.063.124-1.115.248-1.57.123-.454.31-1.342.371-1.837.062-.495.248-1.507.454-1.878.207-.372.413-1.074.496-1.57.083-.495.268-1.59.31-2.126.03-.403.03-.747.13-.856.034-.037.17.004.2.01.124.02 0 .66.02 1.032.021.371-.144 1.135-.268 1.672-.124.537-.006 1.026.092 1.371.1.346-.01 1.698-.02 2.34-.009.642.179 2.33.198 2.508.02.178-.06.158-.227.197-.168.04-.118.257-.118.534 0 .276 0 .592-.06.72-.058.129 0 .228.14.326.137.1.137.217.206.435.069.217.01.76-.01 1.027-.01.15-.053.623-.02 1.013.026.298-.04.591.376.843.218.131.562.069.68.069.12 0 .149.128.317.266.167.138 1.767.1 2.32.04.553-.06.366-.602.04-.988-.326-.385-.721-.898-1.007-1.194-.287-.296-.218-.356-.218-.464v-.701c0-.118.148-.099.267-.109.118-.01.06-.405.03-.513-.03-.109.088-.514.167-.85.08-.335-.049-.365-.168-.434-.118-.069 0-.444.11-1.115.108-.672.236-2.992.236-3.812 0-.82.138-1.155.247-1.668.109-.514.938-2.607.997-2.785.06-.177.81-.177 1.047-.227.237-.049.296-.365.405-.464.109-.099.296.494.355.612.059.119.84-.326 1.017-.395.178-.068.099 0 .138.06.04.059.266-.08.78-.237.514-.158.326-.148.326-.237 0-.09.197-.099.415-.119.217-.02.246-.187.365-.207.119-.02.099-.326.089-.474-.01-.148.908-.84 1.254-1.284.345-.444.197-.73.109-.859-.09-.128.039-.207.157-.345.119-.138-.257-.326-.78-.74" fill="#fd6565"/></svg>