<svg xmlns="http://www.w3.org/2000/svg" width="1052.437" height="501.575" viewBox="0 0 278.457 132.708"><defs><clipPath id="a"><path d="M0 696.738h1119.892V0H0z"/></clipPath></defs><g clip-path="url(#a)" transform="matrix(.26458 0 0 -.26458 -11.624 154.588)"><path d="M678.92 373.071c.937 1.67 1.929 3.327 2.673 5.084.319.752.104 1.743.079 2.623-.031 1.08-.437 1.322-1.517.871-1.315-.553-2.373-1.34-3.096-2.525-.93-1.516-2.29-2.155-3.99-2.14-2.701.022-4.743-1.07-7.432-.876-3.62.264-7.223.718-10.495-1.439a1.545 1.545 0 0 0-.634-.22c-4.71-.628-10.055-.607-14.851 0-.287.037-.558.171-.838.26.307.128.628.232.917.392.678.375 1.348.766 2.008 1.172.74.454 1.415 1.06 2.207 1.366 1.06.41 1 .978.657 1.845-.824 2.082-.887 2.361 1 2.99 2.445.816 2.41 3.415 3.976 4.807.153.136-.167 1.067-.491 1.423-1.13 1.241-2.15 2.371-.735 4.116.274.34-.182 1.202-.136 1.812.156 2.126.347 4.252.598 6.37.263 2.226-.18 4.203-1.448 6.102-3.364 5.03-7.813 8.355-13.843 9.516-1.476.738-1.791 1.105-5.68 1.7-5.21.431-8.798-1.046-8.798-1.046-2.597-1.693-5.147-3.468-7.81-5.05-2.106-1.256-3.442-3.145-3.868-5.352-.616-3.18-.864-6.466-.934-9.713-.062-2.994 1.04-5.743 2.796-8.199.46-.64.915-1.292 1.309-1.974.857-1.489.648-2.606-.721-3.49-6.418-4.149-12.485-8.864-19.456-12.122-1.378-.644-2.578-1.892-4.331-1.332-.097.032-.233 0-.332-.045-5.718-2.652-11.788-4.806-15.475-10.434-.793-1.21-1.478-2.568-1.865-3.953-.941-3.357-1.68-6.77-2.501-10.16-.077-.32-.167-.64-.251-.96-.356.255-.788.451-1.052.78-.424.524-.676 1.187-1.11 1.7-1.553 1.842-3.402 1.723-4.623-.397-.67-1.16-1.084-2.48-1.534-3.755-.794-2.235-1.638-4.426-3.492-6.04l.642-5.416c1.648-.687 2.417-2.163 3.294-3.572.32-.515 1.2-1.314 1.303-1.24 1.71 1.201 2.15-.326 2.782-1.262 1.18-1.75 2.8-2.875 4.698-3.738 2.233-1.019 4.37-.93 6.5.197 1.679.89 3.159 2.095 5.183 2.376 1.028.143 1.976.97 2.279 2.27.357 1.528.946 3.001 1.383 4.513.35 1.21.754 1.46 1.915.9 1.324-.637 2.56-1.472 3.919-2.01a161.28 161.28 0 0 1 8.24-2.989c2.026-.679 4.075-.512 5.839.707 1.286.888 1.893.525 2.728-.606 1.923-2.609 4.717-3.394 7.813-3.119 1.517.134 2.832.093 4.136-.926 1.113-.868 1.422-.626 2.01.876.555 1.408 1.82 2.091 3.487 1.776.66-.123 1.27-.513 1.93-.636.359-.065 1.114.186 1.112.281-.055 2.362 1.225.956 2.07.764 1.275-.29 2.249.594 1.997 1.87-.282 1.423-1.08 2.465-2.49 2.96-2.27.795-4.62.966-6.997.814-3.667-.235-3.8-.313-5.553 2.915-1.004 1.85-1.54 3.965-2.164 6-.093.301.408 1.042.787 1.194 3.92 1.564 6.678 4.56 9.492 7.502a26.428 26.428 0 0 0 1.973 1.857c3.18 2.708 6.43 5.336 9.542 8.118 1.858 1.66 4.04 2.366 6.37 2.903 3.838.883 7.649.298 11.45-.2 1.748-.229 3.317-.122 4.904.723 1.056.561 2.236.713 3.52.763 1.867.072 4.862 2.167 6.706 2.671.757.206 1.534.42 2.224.78 2.91 1.524 9.376 4.995 10.095 6.277" fill="#00acff" fill-rule="evenodd"/><path d="M766.308 449.626c-.288.174 1.33 2.37 1.504 2.892.172.52.578 1.098.578 1.098s0-.925-.636-1.908c-.634-.982-1.156-2.255-1.446-2.082m-25.442 5.493c-.06.463 0 1.908 0 1.908s.462-2.197.634-2.659c.174-.463.522-1.33.522-1.33s-1.1 1.619-1.156 2.081m.867-4.741c-.35.52-.58 1.33-.58 1.33l-.056.693c.114-.173.519-1.04.75-1.329.232-.289.232-1.215-.114-.694m27.813 6.592c-.173 1.85.232 2.082.232 2.082s.29-2.256.057-2.949a17.602 17.602 0 0 0-.356-.965c-.096-.397-.221-.539-.221-.539s.097.225.22.539c.09.365.153.946.068 1.832m27.835-60.449c-1.977 1.567-10.04 8.023-11.42 8.807-1.38.784-1.813.771-3.101 2.409-1.287 1.639-5.852 3.394-6.32 3.863-.468.467-.468 7.724-.468 8.7 0 .975-1.015 7.256-1.13 9.168-.118 1.911.233 3.706.389 4.253.156.546.078 1.677.936 4.057.857 2.38 4.214 7.022 5.189 8.427.976 1.404 3.588 5.813 4.213 7.179.624 1.365 1.452 2.792 1.923 3.5.472.706 1.44 5.943 1.44 6.205 0 .262.446.969.472 1.492.027.524-.315 1.127-.393 1.388-.078.261-.051 5.185-.025 5.552.025.366.6.157 1.15.183.55.026 1.049.995 1.049 1.571s-.576.628-.865.786c-.288.156.446.549.996.917.549.366 1.754 1.204 2.199 1.57.445.367.68.288.839.55.156.262-.394.628-.892.628-.497 0-2.226-.837-3.063-1.125-.838-.288-1.31.261-2.225.471-.917.209-1.676-.132-2.305-.315-.628-.183-2.593-.131-3.902-.34-1.31-.209-2.617-1.335-3.405-1.807-.786-.471-1.256-.471-1.99-.785-.732-.314-1.018-.943-.863-1.362.157-.419.602-.262.916-.235.314.025.654.104 1.493.157.837.052 1.282.235 1.519.314.234.078.785 0 1.466-.079.68-.078.786-.209 1.02-.366.236-.158-.208-3.3-.208-3.692 0-.393-.21-.472-.523-.865-.314-.392-.236-1.23-.236-1.937 0-.707-.314-1.597-.76-2.488-.446-.89-.811-1.938-1.1-3.352-.288-1.414-.76-2.252-.837-2.514-.08-.261-.498-.131-.89-.209-.392-.078-.263-.471-.263-.733s-.42-.262-.942-.288c-.524-.026-.392-.157-.392-.629 0-.471.025-.444-.368-.942-.393-.499-.471-.445-.811-.445-.342 0-.498-.158-.602-.733-.105-.576-.367-.498-.604-.498-.235 0-.681-.053-.942-.524-.261-.471-.025-.576-.942-1.257-.917-.68-.577-.68-.654-1.047-.08-.368-.342-.236-.734-.131-.392.104-.105-.34-.603-.838-.497-.498-1.545-.995-1.78-1.31-.236-.314-1.597 1.519-1.597 1.519s2.476 3.408 2.765 3.639c.29.231 1.446 2.371 1.735 3.701.288 1.33-.347 4.453-.811 6.707-.462 2.256-.751 4.685-1.56 7.634-.81 2.949-3.933 5.608-5.147 6.361-1.214.751-2.717 1.677-3.18 2.37-.463.694-2.082.983-4.916 1.157-2.832.174-5.147-.578-6.881-1.618-1.734-1.042-3.758-3.297-4.336-4.338-.58-1.041-1.39-2.255-2.544-4.8-1.158-2.544-.753-3.874-.694-4.857.056-.983-.406-1.562-1.158-2.545-.752-.982-.462-1.561-.405-1.966.059-.405.348.405.522.81.172.405.114-3.354.114-5.493 0-2.14.058-3.47.579-4.569.52-1.099.348-1.041.579-1.387.23-.347.75-.521.75-.521s.175-.173.175 0c0 .174.403-.925.519-1.214.118-.289.409-.764.68-1.193.275-.429-1.286.195-2.027.585-.741.39-1.6 1.287-2.223 2.225-.624.935-1.132 1.013-1.444 1.013-.313 0-.391.079-.937.741-.546.664-.897.976-1.56 1.562-.663.585-.938.858-1.25 1.521-.311.663-.544 1.092-1.092 1.131-.546.039-.428.351-.623.702s-.78.663-1.171 1.094c-.39.428-1.64 2.457-2.77 3.588-1.131 1.132-2.965 3.277-4.253 5.15-1.288 1.872-2.653 4.408-2.926 4.292-.273-.117-1.247 1.325-2.184 2.847-.936 1.522-3.355 4.136-4.057 4.76-.703.624-3.161 1.288-4.136 1.365-.975.078-2.497-.35-3.16-.39-.663-.039-1.13.429-1.483.663-.35.234-2.534 1.21-3.511 1.64-.975.429-1.522-.313-1.522-.625s1.443-.897 2.458-1.6c1.016-.702 1.56-1.327 1.6-1.716.039-.391-1.053-.624-2.145-.975-1.095-.352-2.146-.625-3.356-.937-1.21-.312-1.638-.429-1.482-1.014.155-.585 1.717-.274 2.847-.274 1.133 0 .896-.506.937-.74.038-.235-2.653-.352-3.082-.43-.43-.078-.195-.781-.078-1.014.117-.235 1.093-.312 1.483-.429.389-.117 2.458-.078 3.122-.04.66.04.779.196 1.287.196.506 0 1.092.078 1.716.273.624.195 1.522 1.092 1.91 1.248.39.157 2.809.078 3.59.039.78-.039 1.132-1.21 1.755-2.418.625-1.21 1.445-3.785 1.562-4.058.116-.273-.546-.351-.43-.702.118-.351 2.264-4.097 3.12-5.657.86-1.561 3.123-4.643 4.293-6.125 1.17-1.483 1.95-2.653 2.185-3.161.234-.507 2.262-3.12 3.785-5.189 1.52-2.067 2.964-3.003 3.198-3.706.234-.702 1.483-1.677 2.497-2.496 1.014-.82 2.77-2.692 5.423-6.554 2.653-3.863 5.5-12.68 6.242-14.514.74-1.833 1.443-5.735 1.483-6.944.039-1.209-2.381-1.366-3.316-1.366-.938 0-1.638-1.013-3.043-2.262-1.405-1.248-3.787-2.614-5.618-3.98-1.834-1.365-3.121-2.731-3.902-4.096-.78-1.365-2.921-4.606-3.404-5.342-.483-.737-.787-.965-.762-1.295.024-.33-.253-.483-.584-.888-.33-.407-1.473-.61-2.488-1.575-1.015-.966-.89-1.727-.991-1.955-.102-.229 4.342.355 4.723.304.38-.05-2.718-3.479-2.971-3.784-.254-.303.99-1.167 1.244-1.446.254-.279.533-.178 1.575-.152 1.042.025 3.579-.483 3.784-.585.202-.102-.128-1.015-.128-1.269s.965-.33 1.27-.534c.304-.203.127-.711.432-.964.305-.255.635-.178.837.025.203.203 3.886-1.676 4.9-1.981 1.017-.304 1.423-1.27 1.958-1.625.532-.355.828.307 1.12.208.26-.089.32-.543.522-.543.203 0 .488.078.718-.125.228-.202.304-1.317.559-2.968.254-1.651.305-5.942.354-7.871.053-1.93-.532-4.317-1.091-6.983-.558-2.667-1.066-8.355-1.014-11.224.049-2.869.405-7.719.329-8.024-.077-.304-.558-.431-.913-1.066-.356-.635-.255-4.469-.332-5.13-.075-.66.05-1.447.483-1.675.433-.229.508-.61.508-1.245 0-.634-.407-2.107-.787-3.148-.381-1.041-.56-1.32-1.245-2.59-.685-1.27-.304-2.819.026-3.352.33-.533 7.135-.558 9.19-.356 2.058.203 1.678 2.768 1.754 4.19.075 1.423.278 1.499.609 2.235.33.736.025 2.508.025 2.977 0 .467.154 1.248.78 1.404.623.156.312 4.993.312 6.086 0 1.092-.703 1.483-1.015 1.716-.311.235.468 4.214.936 5.931.468 1.716 1.17 5.072 1.404 6.944.235 1.873.937 5.696 1.717 7.1.78 1.405 1.56 4.058 1.872 5.931.313 1.872 1.014 6.008 1.172 8.037.117 1.521.113 2.821.492 3.235.127.138.64-.017.756-.036.469-.078 0-2.497.079-3.901.077-1.405-.547-4.292-1.016-6.32-.47-2.03-.024-3.877.349-5.183.374-1.306-.037-6.419-.074-8.845-.037-2.425.672-8.806.746-9.477.075-.673-.225-.598-.86-.747-.632-.15-.445-.971-.445-2.015 0-1.046 0-2.239-.225-2.724-.222-.485 0-.859.524-1.232.52-.374.52-.821.78-1.642.263-.821.038-2.873-.035-3.881-.042-.57-.202-2.356-.075-3.829.097-1.127-.153-2.236 1.418-3.186.825-.498 2.127-.261 2.575-.261.448 0 .56-.486 1.194-1.008.634-.522 6.68-.373 8.769-.15 2.09.224 1.382 2.277.149 3.733-1.231 1.455-2.723 3.395-3.805 4.514-1.083 1.12-.821 1.344-.821 1.755v2.649c0 .447.56.373 1.007.41.447.039.225 1.531.112 1.942-.112.409.335 1.939.634 3.208.299 1.269-.185 1.381-.634 1.642-.448.262 0 1.68.412 4.217.409 2.537.894 11.308.894 14.405 0 3.097.523 4.366.933 6.306.41 1.941 3.546 9.852 3.769 10.524.224.67 3.06.67 3.956.858.896.186 1.119 1.381 1.53 1.754.412.373 1.119-1.866 1.344-2.314.222-.448 3.17 1.232 3.844 1.493.67.26.372 0 .522-.224.149-.224 1.006.298 2.948.895 1.94.597 1.23.56 1.23.896 0 .337.747.373 1.569.448.82.074.932.709 1.38.783.449.075.374 1.232.335 1.792-.037.559 3.434 3.172 4.74 4.851 1.306 1.679.747 2.761.412 3.247-.337.484.148.783.596 1.306.447.522-.972 1.231-2.948 2.798M971.45 572.853c-.537.804-1.875-.444-1.875-.444s.713-1.337 1.16-1.337c.443 0 1.246.982.714 1.78m-17.289-91.695c.18-3.385 1.335-7.93 1.335-7.93s-.177 4.633.447 7.576c.625 2.937.625 5.435.625 5.435l-2.584 1.246s0-2.94.177-6.327m-15.407 63.637s-1.304 1.16-1.304 1.862c0 .702.493 1.478.493 1.864 0 .387-.702 1.435-.702 1.435l-1.04-1.951-.78-3.635zm43.574-.297s1.43-1.166 2.467-2.337c1.042-1.171 2.991-3.637 5.72-11.693 2.727-8.057 1.556-29.496 1.556-30.666 0-1.17 2.21-3.25 4.81-5.85 2.598-2.594 4.677-7.144 6.495-9.743 1.82-2.598 2.598-8.575 6.37-17.28 3.766-8.706 13.25-29.887 14.03-32.873.778-2.992-7.015-4.68-7.926-5.72-.91-1.038.388-1.69-2.726-2.21-3.12-.517-15.595-7.663-15.595-7.663s-1.82-3.77-3.12-8.06c-1.299-4.284-2.338-13.378-1.95-16.887.392-3.51 4.55-5.328 10.917-15.462 6.37-10.135 7.148-24.297 8.706-28.458 1.561-4.16 2.857-5.064 3.248-5.974.393-.911.393-3.507.78-4.68.39-1.17 5.586-7.276 5.198-8.576-.39-1.3-4.028-4.937-8.448-7.924-4.414-2.99-11.043-1.69-14.68-1.69-3.637 0-2.987 3.377-.39 5.07 2.597 1.687 6.368 10.78 6.368 12.6 0 1.82-1.82 5.719-3.899 12.736-2.08 7.015-16.113 25.076-18.452 28.716-2.336 3.637-5.587 5.974-7.406 10.78-1.817 4.812.65 20.4.65 20.4l-3.509.913s-.649-8.663-1.686-12.475c-1.042-3.81 1.166-13.512 3.895-26.117 2.728-12.604 3.25-32.094 3.378-34.562.13-2.47 1.691-5.588 2.21-7.796.52-2.208 1.17-3.766.91-6.237-.263-2.466-4.94-2.73-8.576-2.86-3.638-.128-12.215-.647-15.33-.907-3.122-.261-4.422 1.687-3.25 2.859 1.17 1.169 4.547 2.466 5.327 3.117.78.649 8.444 7.668 8.966 8.317.52.65-5.067 16.5-8.578 28.194-3.506 11.694-5.325 21.832-5.458 25.076-.129 3.25-1.167 13.514-1.167 16.764s-1.429 12.345-3.377 18.579c-1.95 6.239-3.122 18.193-3.122 18.193s-4.935.65-8.313 1.946c-3.379 1.3-11.823 11.306-14.423 17.672-2.6 6.369-11.435 62.238-11.044 66.138.387 3.899 1.038 5.456 3.25 7.795 2.206 2.34 6.494 6.106 6.494 6.106s-.39 2.213-.39 3.508c0 1.3.781.783.781.783s.517.518.517 1.166c0 .65.78.263.78.263s1.3.909 1.3 1.558c0 .65.78 1.299.78 1.299s.781.65 1.04 1.3c.258.65 1.3.517 1.3.517s.65 1.3.907 1.82c.264.52 4.028-1.298 4.028-1.298l2.208 1.299 2.472-1.17s.908.52.908 1.17c0 .65-1.429.908-1.688 1.299-.262.393 0 2.208 0 2.208s-1.82 1.042-2.342 1.82c-.517.78 3.25 5.329 3.512 6.236.26.909 0 2.86-.91 4.289-.91 1.428-1.172 4.29 1.17 7.664 2.336 3.379 7.014 5.33 14.942 6.629 7.923 1.299 15.981-6.756 15.981-6.756s2.987 2.469 6.758.127c3.77-2.336 3.636-3.636 6.235-14.288 2.6-10.658.78-17.022.78-17.022s0 3.245-1.038 7.923c-1.01 4.532-2.259 7.602-2.337 7.788zM916.11 500.94c.8-2.673 1.694-10.96 2.764-15.862 1.07-4.902 3.386-17.735 4.99-21.297 1.604-3.565 8.287-15.595 12.384-17.376 4.1-1.786 9.983-2.585 9.983-2.585s1.603 8.912 1.603 12.474c0 3.566.535 9.445.535 9.445s-4.9 12.478-5.88 18.534a592.426 592.426 0 0 1-2.408 13.903c-.533 2.854-4.545 16.396-4.81 17.644-.27 1.25-8.38 15.774-8.822 17.29-.447 1.514-2.05 2.404-2.143 2.85-.086.446-.889 1.96-.889 1.96s-2.319-3.207-4.634-4.722c-2.317-1.512-5.88-2.942-5.88-4.276 0-1.338 2.403-25.31 3.207-27.982" fill="#00acff"/><path d="M706.283 350.277c0-.285.006-.572-.004-.858-.014-.517.197-.657.678-.45 1.272.547 2.593 1 3.817 1.636 1.924 1 2.008 1.251 1.857 3.351-.043.612-.133.673-.62.314-1.395-1.027-2.94-1.752-4.56-2.338-1.186-.428-1.186-.428-1.168-1.655m-44.005 3.082c-.387-1.304.461-1.939 1.394-2.443 1.074-.582 2.173-1.15 3.322-1.56 1.986-.71 1.781-1.025 1.83 1.3.012.647-.265.903-.824 1.146-1.533.665-3.03 1.406-4.537 2.131-.357.173-.689.4-1.032.601l-.153-1.175m29.476-6.96c3.648.296 7.274.665 10.85 1.442 1.795.391 1.8.373 1.725 2.181a2.897 2.897 0 0 0-.004.246c.02.513-.253.641-.703.533-.16-.039-.32-.077-.48-.113-4.209-.977-8.484-1.43-12.795-1.574-2.008-.068-1.996-.05-1.833-2.078.037-.459.175-.66.658-.647.86.026 1.721.01 2.582.01m-8.578.103c.491-.024.983-.053 1.475-.07 2.095-.079 2.116-.043 1.924 2.046-.035.395-.146.615-.572.605-.329-.008-.658.008-.985.02-4.187.138-8.345.521-12.443 1.437-1.924.428-1.909.413-1.824-1.61.022-.534.145-.86.736-.892.241-.012.48-.114.718-.165 3.616-.777 7.28-1.193 10.971-1.37m5.993-25.065c2.051-.02 5.691.237 9.31.777 3.213.477 6.39 1.126 9.378 2.432 1.118.488 2.187 1.118 3.2 1.8 1.216.82 1.726 2.025 1.58 3.515-.048.483-.156.536-.579.347-1.458-.65-2.905-1.334-4.403-1.875-.883-.32-1.623-.579-1.403-1.729.027-.147-.015-.38-.115-.464-.266-.218-.575-.5-.883-.52-.248-.019-.556.273-.77.494-.12.127-.139.385-.142.585-.007.517-.24.61-.71.504-4.663-1.044-9.4-1.468-14.167-1.619-.513-.017-.986.016-1.022-.724-.02-.455-.392-.72-.846-.75-.459-.033-.874.211-.918.648-.082.812-.575.82-1.192.833-4.564.106-9.09.577-13.57 1.472-.605.121-1.198.426-1.28-.618-.036-.426-.483-.66-.944-.606-.45.053-.742.331-.825.79-.037.2-.059.407-.054.61.013.437-.192.661-.607.793-1.877.597-3.738 1.233-5.444 2.252-.179.11-.41.172-.418-.17-.023-.99-.07-2.01.65-2.8.518-.572 1.1-1.117 1.735-1.545 1.793-1.203 3.83-1.862 5.888-2.424 5.545-1.517 11.216-1.992 18.551-2.008m-1.655 29.526c2.338.125 4.678.204 7.01.382 3.485.268 6.93.826 10.286 1.802 1.886.55 3.788 1.14 5.414 2.296.724.514 1.411 1.141 1.947 1.842.686.894.654 1.936.004 2.873-.32.463-.74.876-1.175 1.243-1.077.912-2.34 1.506-3.649 2.007-5.203 1.994-10.662 2.631-16.166 2.898-4.266.207-8.539.09-12.79-.44-3.673-.458-7.297-1.12-10.765-2.466-1.344-.522-2.618-1.173-3.754-2.074-1.97-1.565-2.025-3.553-.076-5.17a11.426 11.426 0 0 1 2.165-1.395c2.436-1.225 5.052-1.939 7.712-2.46 4.564-.896 9.18-1.307 13.837-1.338m25.13-9.778v6.657c0 .287-.009.576-.003.862.011.45-.115.561-.572.361-1.648-.722-3.3-1.443-4.983-2.075-.616-.23-.849-.526-.818-1.155.03-.613.01-1.233-.045-1.844-.046-.517-.378-.818-.905-.824-.526-.006-.858.28-.93.797-.055.405-.046.818-.058 1.23-.027.978-.028.991-.95.795-3.58-.757-7.204-1.206-10.856-1.414-.985-.056-1.97-.1-2.954-.145-1.036-.045-1.037-.042-1.05-1.127-.004-.328.011-.657-.005-.985-.04-.87-.369-1.332-.945-1.349-.585-.016-.953.45-.992 1.298-.025.533-.012 1.068-.012 1.602 0 .337-.125.548-.5.545a9.89 9.89 0 0 0-.863.025c-2.742.22-5.488.392-8.223.682-1.752.186-3.483.541-5.222.836-.982.168-.98.182-.997-.852-.005-.41.018-.823-.01-1.232-.055-.754-.437-1.192-.988-1.176-.543.013-.902.451-.94 1.222a19.34 19.34 0 0 0-.004 1.971c.033.594-.208.863-.776 1.05-1.79.587-3.592 1.16-5.215 2.163-.539.335-.5-.11-.5-.433-.003-4.93.007-9.862-.015-14.792-.002-.565.18-.977.643-1.227 1.262-.674 2.503-1.41 3.822-1.95 2.01-.82 2.034-.759 2.034 1.36 0 .41-.008.823.004 1.233.01.244.03.493.09.73.11.45.434.724.882.725.445 0 .778-.264.882-.718.063-.276.082-.569.087-.854.01-.862.001-1.726.005-2.588.007-1.158.001-1.217 1.17-1.4 2.915-.46 5.836-.91 8.768-1.263 1.626-.196 3.278-.203 4.92-.264.922-.036.933-.009.947.947.015.904 0 1.81.004 2.712.004.287.01.577.05.86.067.515.388.831.898.845.511.013.854-.284.94-.797.053-.322.055-.654.058-.98.008-.946.024-1.892-.003-2.836-.018-.58.177-.81.784-.77 1.558.106 3.121.132 4.676.25 3.236.247 6.448.663 9.614 1.405.56.131.757.347.746.894a97.105 97.105 0 0 0 .001 3.327c.007.364-.01.783.158 1.077.157.276.55.578.833.576.282-.003.648-.32.821-.597.155-.25.121-.633.126-.959.016-.986.003-1.97.012-2.957.002-.294.02-.65.458-.5 1.865.637 3.708 1.32 5.33 2.49.504.362.583.823.576 1.388-.018 2.382-.006 4.765-.006 7.148" fill="#03aeff" fill-rule="evenodd"/><path d="M712.644 341.187c0-2.383-.013-4.767.006-7.148.007-.565-.072-1.026-.577-1.39-1.621-1.17-3.464-1.851-5.33-2.49-.44-.15-.455.208-.457.502-.01.985.004 1.97-.012 2.957-.005.326.028.708-.126.959-.173.277-.54.593-.821.596-.285.003-.676-.3-.833-.575-.17-.294-.152-.713-.16-1.078a102.498 102.498 0 0 1 0-3.327c.01-.547-.186-.762-.746-.893-3.166-.742-6.378-1.158-9.613-1.405-1.556-.12-3.118-.145-4.677-.25-.606-.041-.801.189-.783.77.026.944.01 1.89.003 2.834-.003.328-.005.66-.06.982-.085.513-.427.81-.938.796-.511-.013-.831-.33-.9-.845a7.034 7.034 0 0 1-.048-.86c-.004-.903.01-1.807-.004-2.711-.015-.956-.026-.983-.947-.947-1.642.06-3.294.067-4.92.264-2.932.352-5.853.8-8.77 1.26-1.167.186-1.161.245-1.17 1.403-.003.862.007 1.725-.004 2.588a4.139 4.139 0 0 1-.087.854c-.103.454-.436.718-.881.717-.45 0-.773-.274-.882-.724a3.514 3.514 0 0 1-.09-.731c-.013-.41-.004-.822-.004-1.232 0-2.12-.025-2.181-2.034-1.36-1.32.539-2.561 1.276-3.823 1.95-.463.25-.644.662-.642 1.226.02 4.93.012 9.862.015 14.793 0 .322-.04.767.5.433 1.623-1.003 3.423-1.576 5.214-2.164.569-.187.81-.455.777-1.05a19.076 19.076 0 0 1 .004-1.971c.038-.771.397-1.208.94-1.221.55-.016.933.422.986 1.176.03.409.006.82.01 1.232.018 1.034.017 1.019.998.85 1.74-.293 3.47-.648 5.223-.834 2.734-.29 5.48-.463 8.223-.682a9.89 9.89 0 0 1 .862-.025c.376.003.5-.208.5-.545 0-.534-.013-1.07.013-1.602.039-.85.407-1.314.992-1.298.576.017.905.479.945 1.348.016.328 0 .658.004.986.014 1.085.015 1.082 1.05 1.127.985.045 1.97.089 2.955.145 3.65.208 7.274.656 10.855 1.414.922.196.923.183.95-.796.012-.411.003-.824.059-1.23.07-.517.403-.802.93-.796.526.006.858.307.905.824.054.61.074 1.23.045 1.844-.031.629.202.924.817 1.155 1.684.632 3.335 1.353 4.984 2.074.457.2.583.089.572-.36-.007-.287.002-.576.002-.862zm-25.129 9.778c-4.657.03-9.273.44-13.838 1.336-2.66.522-5.275 1.236-7.712 2.462-.763.383-1.508.849-2.165 1.395-1.948 1.617-1.893 3.604.076 5.169 1.136.902 2.41 1.552 3.754 2.074 3.469 1.345 7.093 2.008 10.766 2.465 4.25.53 8.523.649 12.79.442 5.504-.268 10.963-.904 16.166-2.9 1.308-.5 2.57-1.094 3.648-2.005.435-.367.855-.781 1.175-1.244.65-.936.683-1.978-.004-2.873-.536-.701-1.222-1.327-1.946-1.842-1.626-1.155-3.528-1.747-5.414-2.296-3.357-.976-6.802-1.534-10.286-1.801-2.332-.18-4.672-.258-7.01-.382" fill="#03aeff" fill-rule="evenodd"/><path d="M689.169 321.438c-7.335.016-13.006.491-18.551 2.008-2.058.562-4.095 1.221-5.887 2.424-.637.428-1.217.973-1.737 1.544-.72.79-.672 1.811-.648 2.8.008.343.238.28.418.171 1.705-1.019 3.566-1.655 5.443-2.252.415-.132.62-.356.608-.793a2.986 2.986 0 0 1 .053-.61c.083-.459.375-.737.825-.79.46-.054.909.18.945.606.08 1.044.675.74 1.279.618 4.48-.895 9.006-1.367 13.57-1.473.618-.013 1.11-.02 1.192-.833.045-.437.46-.68.919-.649.453.032.824.296.845.751.037.741.509.707 1.022.725 4.766.151 9.504.575 14.167 1.62.47.104.605.001.71-.505.08-.392.067-.352.142-.585.087-.267.169-.6.77-.495.562.097.694.094.892.426.029.051.125.41.106.56-.143 1.191.52 1.408 1.403 1.728 1.498.541 2.946 1.225 4.404 1.875.422.19.53.136.579-.347.145-1.49-.365-2.695-1.58-3.515-1.014-.682-2.082-1.312-3.201-1.8-2.99-1.306-6.165-1.955-9.377-2.433-3.62-.539-7.26-.797-9.311-.776m-5.993 25.064c-3.691.178-7.354.594-10.971 1.371-.24.051-.476.153-.717.165-.591.031-.714.358-.737.892-.085 2.023-.1 2.038 1.824 1.61 4.098-.916 8.256-1.299 12.444-1.438.326-.01.655-.026.984-.018.426.01.537-.21.572-.605.193-2.09.17-2.125-1.923-2.047-.493.017-.985.046-1.476.07m8.578-.104c-.86 0-1.722.018-2.582-.008-.482-.015-.621.187-.657.646-.163 2.028-.176 2.01 1.833 2.078 4.31.144 8.586.597 12.795 1.574l.479.113c.45.109.722-.019.703-.532-.003-.082 0-.164.004-.246.074-1.809.07-1.791-1.724-2.182-3.577-.777-7.203-1.146-10.851-1.443m-29.476 6.962l.153 1.174c.343-.202.675-.428 1.032-.6 1.505-.726 3.003-1.467 4.537-2.132.56-.243.836-.499.824-1.147-.049-2.324.156-2.01-1.83-1.3-1.149.41-2.248.98-3.322 1.561-.933.504-1.78 1.14-1.394 2.443m44.005-3.082c-.018 1.227-.018 1.227 1.168 1.655 1.62.586 3.165 1.311 4.56 2.338.487.36.577.298.62-.314.151-2.1.067-2.352-1.857-3.35-1.224-.637-2.545-1.09-3.817-1.638-.48-.206-.692-.066-.678.451.01.286.004.573.004.858" fill="#03aeff" fill-rule="evenodd"/><path d="M878.76 457.797l-1.183-6.366 5.013.619c-1.985 1.82-3.263 3.737-3.83 5.747m-.537 70.775c5.999-5.141 8.84-10.496 8.13-18.677-.29-3.373-1.72-6.6-3.563-9.244-2.467-3.547-6.116-5.873-8.543-9.468-1.003 1.069-1.44 1.112-2.798 1.42-.934-5.984 5.445-7.675 6.176-13.097l4.097-1.594c4.94-6.664 8.688-14.288 12.94-21.543l2.042-7.53c-.588-3.896-1.01-5.6-2.75-9.005-4.886-1.942-8.751-1.768-13.921-.45-.35-8.205.217-15.547.79-23.712l-.62-.534c.208-2.455.767-4.406 1.874-6.496 1.803-5.815 3.599-11.344 4.713-17.343 2.196-5.574 3.94-10.773 5.49-16.591l-4.021-1.156c.207-.423.413-.853.628-1.285 5.866-8.02 7.169-14.092 7.89-24.325.968-5.125.838-7.713 1.79-12.835 2.174-4.223 7.259-8.056 5.118-13.096-5.155-.695-9.553-1.684-14.641.047-.603 4.47.308 9.615-.118 14.262-1.355 6.197-4.407 11.107-7.078 16.798-1.866 5.692-3.158 11.678-5.971 16.873l-3.738-.814-2.465 8.259c-1.838 2.893-4.017 5.559-5.512 8.682-1.176 2.459-1.612 5.256-2.42 7.884-.974-8.784-.93-15.428.026-24.322l-4.255.328c.477-3.858 1.689-7.816.987-11.727-1.474-8.231-6.978-20.814-2.214-28.162.05-2.032.073-4.035.019-6.064-2.271-.306-4.36-1.341-6.253.28l-5.5-2.314c-5.187-.93-21.77-3-12.551 6.846 6.514 3.213 11.009 6.499 13.1 14.35-.361 9.286.027 18.547-.344 27.776l-4.611 2.156 1.46 11.79-.648 12.338c-.341 7.513.386 13.604 1.59 21.32l-4.128 2.364c.726 8.943 2.05 16.84 3.978 25.479.058 4.244.252 8.423.5 12.65-5.396-2.98-12.033-10.551-16.615-3.138-3.188 6.357-6.093 13.983-7.84 20.963 4.263 4.687-1.928 5.75-4.476 7.934-2.3 1.719-5.78 4.497-7.391 7.485-.732 1.359-1.687 2.429-1.06 4.11 1.7 1.476-1.084 4.828 2.142 3.957 2.086-1.964 4.143-3.4 6.48-4.967-.801 1.329-5.881 6.345-4.765 7.287 3.049 2.569 9.79-11.834 8.77-4.276-.58 1.735-1.902 4.354.647 4.13 1.794-4.144 3.94-7.006 5.152-11.438-.357-2.9-.36-4.504.195-7.39 1.95-1.082 1.408 1.73 1.73-.668 1.305-4.04 5.429-12.141 8.347-14.6 1.59 3.249 11.03 12.208 13.945 14.016-1.648 2.937-.062 1.95 2.518 2.138 2.292 4.343 3.385 4.345 7.642 5.75l.855 2.587-4.058.35c-3.635 1.239-3.001 4.134-4.448 7.715-2.843 5.919 1.047 9.586 1.945 15.318-.032 3.839 1.01 6.732 2.429 10.215l-2.424.12c3.997 6.219 8.206 12.297 15.185 6.32 3.979-.406 6.854-2.393 10.42-4.436" fill="#00acff" fill-rule="evenodd"/></g><path d="M94.372 110.612q2.017 0 3.134 1.038 1.125 1.039 1.125 2.735 0 1.714-1.125 2.744-1.117 1.03-3.134 1.03h-2.674v3.722l1.41.243v1.09h-4.526v-1.09l1.41-.243v-9.928l-1.41-.242v-1.1h1.41zm-2.674 6.214h2.674q1.281 0 1.913-.683.64-.693.64-1.74 0-1.048-.64-1.749-.632-.7-1.913-.7h-2.674zm12.248 6.57q-1.957 0-3.116-1.298-1.152-1.307-1.152-3.385v-.38q0-2 1.186-3.324 1.195-1.333 2.822-1.333 1.887 0 2.856 1.142.979 1.143.979 3.047v1.065h-6.077l-.026.043q.026 1.35.684 2.225.658.865 1.844.865.865 0 1.514-.242.658-.251 1.134-.684l.667 1.108q-.502.485-1.333.822-.822.33-1.982.33zm-.26-8.379q-.857 0-1.463.727-.606.719-.744 1.81l.017.043h4.32v-.225q0-1.004-.537-1.68-.537-.675-1.593-.675zm5.521-.069v-1.1h2.934l.165 1.36q.398-.719.978-1.125.588-.407 1.341-.407.2 0 .407.034.217.026.33.06l-.226 1.585-.97-.052q-.674 0-1.133.32-.459.312-.71.883v5.375l1.41.243v1.09h-4.526v-1.09l1.41-.243v-6.69zm7.091.165v-1.264h1.463v-1.186q0-1.497.779-2.311.788-.822 2.19-.822.294 0 .589.052.302.043.666.13l-.208 1.298q-.156-.035-.38-.06-.217-.027-.45-.027-.754 0-1.117.45-.364.442-.364 1.29v1.186h1.956v1.264h-1.956v6.768l1.411.243v1.09h-4.527v-1.09l1.411-.243v-6.768zm6.449 3.332q0-2.077 1.125-3.419 1.125-1.35 3.055-1.35 1.94 0 3.065 1.341 1.133 1.342 1.133 3.428v.19q0 2.095-1.125 3.428-1.125 1.333-3.055 1.333-1.948 0-3.073-1.333-1.125-1.341-1.125-3.428zm1.705.19q0 1.49.623 2.459.632.97 1.87.97 1.212 0 1.843-.97.632-.97.632-2.459v-.19q0-1.471-.632-2.45-.631-.978-1.86-.978-1.23 0-1.853.978-.623.979-.623 2.45zm8.266-3.687v-1.1h2.935l.164 1.36q.398-.719.978-1.125.589-.407 1.342-.407.199 0 .407.034.216.026.329.06l-.225 1.585-.97-.052q-.675 0-1.134.32-.459.312-.71.883v5.375l1.411.243v1.09h-4.527v-1.09l1.411-.243v-6.69zm6.777 7.176l1.41-.243v-6.69l-1.41-.243v-1.1h2.943l.112 1.221q.45-.666 1.16-1.03.71-.363 1.645-.363.934 0 1.6.432.676.433 1.014 1.299.441-.796 1.168-1.264.727-.467 1.697-.467 1.437 0 2.268.986.83.979.83 2.952v4.267l1.411.243v1.09h-4.535v-1.09l1.41-.243v-4.284q0-1.385-.475-1.956-.476-.58-1.411-.58-.892 0-1.437.631-.537.624-.623 1.576v4.613l1.41.243v1.09h-4.526v-1.09l1.41-.243v-4.284q0-1.316-.493-1.922-.485-.614-1.41-.614-.78 0-1.282.32t-.77.9v5.6l1.41.243v1.09h-4.526zm17.302 0l1.41-.243v-6.69l-1.41-.243v-1.1h3.116v8.033l1.411.243v1.09h-4.527zm3.116-10.673h-1.705v-1.74h1.705zm2.155 10.673l1.41-.243v-6.69l-1.41-.243v-1.1h2.934l.121 1.394q.468-.744 1.169-1.15.71-.416 1.61-.416 1.515 0 2.346.891.83.883.83 2.735v4.58l1.412.242v1.09h-4.527v-1.09l1.41-.243v-4.544q0-1.238-.493-1.757-.485-.52-1.489-.52-.735 0-1.307.356-.562.354-.9.969v5.496l1.411.243v1.09h-4.527zm11.589-3.419q0-2.26.987-3.644.987-1.385 2.726-1.385.883 0 1.55.346.666.346 1.116 1.004l.156-1.177h1.437v9.244q0 1.818-1.013 2.857-1.012 1.047-2.882 1.047-.675 0-1.463-.19-.788-.182-1.385-.502l.442-1.325q.476.251 1.125.416.65.164 1.264.164 1.142 0 1.67-.64.537-.64.537-1.827v-.891q-.459.588-1.1.891-.64.303-1.47.303-1.723 0-2.71-1.246-.987-1.247-.987-3.264zm1.705.181q0 1.411.598 2.268.597.857 1.817.857.77 0 1.29-.346.52-.355.857-.995v-4.311q-.33-.597-.857-.943-.528-.355-1.272-.355-1.22 0-1.827 1.021-.606 1.021-.606 2.623zm45.218 3.238l.936-.13 4.405-11.382h1.463l4.328 11.382.926.13v1.09h-3.618v-1.09l.952-.165-.83-2.32h-5.047l-.857 2.32.952.165v1.09h-3.61zm4.043-3.913h4l-1.957-5.41h-.052zm9.104-3.263v-1.1h2.935l.164 1.36q.398-.719.978-1.125.589-.407 1.342-.407.199 0 .407.034.216.026.329.06l-.226 1.585-.969-.052q-.675 0-1.134.32-.459.312-.71.883v5.375l1.411.243v1.09h-4.527v-1.09l1.411-.243v-6.69zm10.379-3.358v2.259h1.774v1.264h-1.774v5.686q0 .658.268.927.277.268.727.268.225 0 .502-.035.286-.043.476-.086l.234 1.168q-.242.156-.71.251-.467.104-.934.104-1.04 0-1.654-.623-.614-.632-.614-1.974v-5.686h-1.48v-1.264h1.48v-2.26zm10.536 5.202h-1.281l-.277-1.125q-.312-.295-.788-.468-.468-.182-1.065-.182-.909 0-1.35.399-.442.398-.442.96 0 .554.39.875.39.32 1.584.57 1.774.382 2.64 1.04.866.649.866 1.748 0 1.246-1.013 2.017-1.004.77-2.632.77-1.064 0-1.912-.242-.849-.251-1.515-.719l-.009-2.138h1.281l.32 1.255q.295.269.797.39.51.121 1.038.121.91 0 1.42-.363.52-.373.52-.97 0-.562-.433-.926-.425-.364-1.62-.632-1.704-.372-2.57-1.013-.865-.64-.865-1.73 0-1.143.969-1.948.978-.805 2.536-.805 1.065 0 1.913.277.848.277 1.411.77z" aria-label="PerformingArts" font-weight="300" font-size="17.727" font-family="Roboto Slab" fill="#00acff"/><path d="M93.74 24.36q.093-5.76-3.624-10.22-1.579-1.951-4.273-3.716-2.601-1.859-6.596-3.345-3.995-1.486-9.57-2.323-5.48-.929-12.913-.929-7.246 0-14.121 1.394-6.782 1.3-12.45 3.716-5.666 2.323-9.754 5.481-4.088 3.16-5.946 6.782-1.765 3.53-.93 7.433.837 3.902 5.018 7.71 4.273 3.717 12.263 7.247 7.99 3.438 20.532 6.318 11.334 2.6 20.717 5.388 9.476 2.787 16.258 6.689 6.782 3.902 10.498 9.383 3.81 5.482 3.81 13.564 0 8.083-3.53 13.936-3.531 5.853-9.756 9.662-6.224 3.809-14.771 5.574-8.548 1.858-18.488 1.858t-19.417-1.858q-9.383-1.858-16.723-5.296-7.34-3.344-11.798-8.175-4.367-4.738-4.367-10.498 0-3.066 1.394-4.924 1.486-1.951 3.623-2.694 2.23-.744 4.645-.465 2.508.279 4.552 1.58 1.765 1.114 2.602 3.53.836 2.415.278 4.924-.464 2.601-2.415 4.924-1.951 2.322-5.667 3.344 1.393 2.509 5.574 4.831 4.273 2.416 9.848 4.18 5.574 1.859 11.706 2.88 6.224 1.116 11.427 1.116 8.918 0 16.536-2.416 7.711-2.322 12.728-6.224 5.11-3.81 6.968-8.826 1.858-4.924-.743-10.127-2.601-5.202-10.312-10.126-7.711-5.017-21.74-8.919-13.285-3.716-23.505-6.41-10.219-2.787-17.187-6.225-6.967-3.437-10.59-8.361Q0 40.803 0 32.72q0-5.388 2.508-9.754 2.602-4.46 6.968-7.99 4.367-3.53 10.127-6.039 5.76-2.601 12.077-4.273 6.318-1.766 12.82-2.602 6.597-.836 12.543-.836 8.919 0 16.072 1.672 7.154 1.58 12.263 4.367 5.203 2.694 8.269 6.41 3.066 3.623 3.716 7.804.65 4.088-.279 6.968-.929 2.787-2.787 4.552-1.765 1.765-4.273 2.601-2.416.744-4.739.744-1.765 0-3.251-.65-1.487-.651-2.601-1.673-1.022-1.115-1.673-2.415-.557-1.394-.557-2.88 0-1.487.557-2.88.65-1.394 1.765-2.509 1.115-1.115 2.695-1.765 1.579-.65 3.53-.65 1.3 0 2.694.557 1.487.557 2.694 1.208 1.394.743 2.602 1.672z"/><g aria-label="tages" style="-inkscape-font-specification:'Channel, Normal';font-variant-ligatures:normal;font-variant-caps:normal;font-variant-numeric:normal;font-feature-settings:normal;text-align:start" font-weight="400" font-size="202.84" font-family="Channel"><path d="M104.02 80.29q-.872-.536-.335-1.476.536-1.006 1.945-2.08 1.409-1.14 3.422-2.213 1.945-1.14 4.025-2.013 0-4.226.067-8.52.067-4.36.268-7.915.134-3.623.403-6.105.268-2.55.67-3.22.738-1.14 2.013-2.818 1.275-1.744 2.616-3.22 1.41-1.476 2.55-2.28 1.14-.806 1.677-.202.335.47.268 3.69-.067 3.153-.335 7.983-.202 4.763-.537 10.666-.268 5.904-.403 11.807 1.946.403 3.824.94 1.946.469 3.489 1.006 1.543.47 2.616.872 1.14.335 1.543.335.537 0 .94-.134.402-.201.737-.335.336-.202.604-.202.335-.067.738.202.402.268.402.67 0 .336-.603 1.007-.537.67-1.812 1.811-1.207 1.073-3.287 2.75-1.744 1.41-4.16 1.275-2.347-.134-4.964-1.006.135 5.098.604 8.788.738 5.098 2.348 8.251 1.677 3.086 3.958 3.086 1.14 0 2.55-.939 1.408-.939 2.616-2.08 1.409-1.274 2.884-3.018l.604-.604q.269-.201.604-.268.335-.067.67.2.336.27.336.538.067.2-.067.402-.067.201-.268.403-.134.134-.201.268t-.671 1.006q-.537.805-1.543 2.013-.94 1.14-2.281 2.549-1.342 1.342-3.019 2.55-1.677 1.14-3.69 1.945-1.945.738-4.092.738-2.214 0-3.824-.94-1.61-1.006-2.817-2.482-1.14-1.543-1.946-3.421-.738-1.946-1.207-3.824-.47-1.878-.604-3.555-.201-1.745-.201-2.818v-4.428q-.067-3.421-.067-7.849-1.14-.335-2.08-.402-1.006-.134-1.744.067-1.342.335-2.147.94-.805.536-1.275 1.005-.536.47-.939.738-.402.202-.872-.134z"/><path d="M186.146 94.714q.94 0 .94.939 0 .067-.537.939-.537.872-1.543 2.214-1.006 1.274-2.482 2.817-1.41 1.476-3.153 2.75-1.745 1.275-3.824 2.147-2.08.873-4.36.873-2.416 0-4.361-1.543-1.879-1.61-3.287-3.556-1.342-1.945-2.147-3.555-.738-1.678-.805-1.879-.134.201-1.14 1.879-.94 1.61-2.617 3.555-1.677 1.946-3.958 3.556-2.28 1.543-5.031 1.543-2.952 0-5.166-1.14-2.147-1.208-3.488-3.22-1.275-2.013-1.744-4.63-.403-2.683.067-5.568.536-2.952 2.012-5.903 1.476-3.02 3.958-5.77 2.684-2.951 5.568-4.427 2.952-1.476 5.77-2.013 2.549-.47 4.763-.268 2.28.134 3.89.604 1.61.47 2.416 1.14.805.604.47 1.073-.403.537-.806.47-.402-.067-1.14-.335-.671-.336-1.879-.671-1.14-.336-3.153-.336-1.878 0-3.824.872-1.878.805-3.622 2.281-1.677 1.41-3.019 3.355t-1.945 4.092q-.94 3.22-.671 5.702.268 2.415 1.207 4.16 1.007 1.676 2.348 2.548 1.409.873 2.617.873 2.213 0 3.69-1.342 1.475-1.342 2.414-3.287 1.007-2.013 1.61-4.294.604-2.348 1.074-4.293.536-2.013 1.073-3.287.537-1.342 1.409-1.342t1.677 1.476q.805 1.409 1.61 3.555.872 2.08 1.811 4.63.94 2.481 2.08 4.628 1.208 2.08 2.616 3.556 1.476 1.408 3.287 1.408 1.342 0 2.483-.536 1.14-.604 2.012-1.342.94-.805 1.744-1.878l2.08-2.617q.268-.603 1.006-.603z"/><path d="M216.872 101.69q1.745 7.782 1.275 13.35-.47 5.635-2.482 9.325-1.946 3.69-5.099 5.635-3.086 1.946-6.708 2.482-3.556.537-7.245-.2-3.69-.672-6.843-2.349-3.824-2.012-4.897-4.696-1.14-2.683-.269-5.702.873-2.952 3.288-6.105 2.415-3.153 5.568-6.172-3.757-.603-5.97-3.287-2.148-2.683-2.483-6.44-.403-3.824 1.073-8.184 1.476-4.36 5.032-8.185 2.616-2.951 5.5-4.427 2.952-1.476 5.77-2.013 2.55-.47 4.83-.268 2.281.134 3.891.604 1.61.47 2.415 1.14.805.604.47 1.073-.47.537-.872.47-.336-.067-1.074-.335-.67-.336-1.878-.671-1.208-.336-3.22-.336-1.879 0-3.824.872-1.878.805-3.623 2.281-1.677 1.41-3.019 3.355-1.274 1.945-1.945 4.092-.94 3.22-.67 5.702.267 2.415 1.207 4.16 1.006 1.676 2.348 2.548 1.408.873 2.616.873 2.28 0 3.757-1.342 1.476-1.342 2.415-3.287 1.006-2.013 1.61-4.294.604-2.348 1.073-4.293.537-2.013 1.074-3.287.536-1.342 1.408-1.342.604 0 1.208.872.604.805 1.073 2.147.537 1.341.94 3.086.469 1.744.804 3.555.805 4.227 1.476 9.593zm-8.654-4.897q-1.14 2.08-2.482 3.958-1.207 1.61-2.884 3.22-1.61 1.61-3.69 2.55l-.134.134q-2.55 1.14-4.763 3.018-2.214 1.879-3.757 3.959-1.543 2.08-2.281 4.226-.738 2.147-.335 3.89.47 1.745 2.213 2.818 1.745 1.074 5.233 1.074 3.488 0 5.836-1.208 2.415-1.14 3.891-3.153 1.543-2.012 2.281-4.763.738-2.75 1.007-5.97.268-3.22.134-6.709-.067-3.488-.269-7.044zm38.374-13.483q-.403 1.676-1.677 3.689-1.208 1.945-2.818 3.89-1.61 1.946-3.421 3.757-1.744 1.812-3.153 3.153 1.342 2.147 3.287 3.489 2.013 1.342 4.696 1.342 1.945 0 4.226-.805 1.946-.738 4.562-2.281 2.616-1.61 5.568-4.83.403-.604.805-.671.403-.067.604.2.268.27.335.672t-.134.67q-.134.202-1.14 1.208-.94.94-2.55 2.281-1.61 1.275-3.756 2.75-2.08 1.476-4.495 2.751-2.415 1.208-5.031 2.013-2.617.805-5.233.805-3.958 0-6.843-1.61-2.817-1.61-4.696-4.026-1.81-2.415-2.75-5.3-.872-2.884-.872-5.433 0-2.616 1.006-5.635 1.006-3.02 2.952-5.568 2.012-2.617 4.964-4.294 2.952-1.744 6.776-1.744 3.086 0 4.964.94 1.878.871 2.818 2.28.939 1.409 1.073 3.086.201 1.677-.067 3.22zm-8.05-7.582q-2.281 0-3.757 2.08-1.409 2.013-1.946 5.031-.536 3.02-.134 6.575.403 3.488 1.744 6.507 1.41-1.207 3.086-2.75 1.678-1.61 3.153-3.288 1.476-1.744 2.55-3.42 1.14-1.745 1.341-3.221.336-2.08-.067-3.488-.402-1.476-1.274-2.348-.872-.873-2.147-1.275-1.208-.403-2.55-.403z"/><path d="M275.345 94.848q.671.805 1.678 2.75 1.006 1.946 1.341 4.428.336 2.482-.536 5.232-.805 2.818-3.824 5.3-3.02 2.482-5.837 2.885-2.817.402-5.165-.47-2.348-.805-4.16-2.482-1.81-1.677-2.817-3.287-.403-.738-.268-1.073.134-.336.536-.403.336-.067.805.134.403.201.537.604 1.073 2.147 2.28 2.885 1.275.805 2.416.805 1.14.067 1.945-.336.872-.402 1.14-.67.202-.269.873-.873.67-.536 1.207-1.61.537-1.073.738-2.683.202-1.677-.536-4.025-.805-2.55-2.55-4.763-1.744-2.214-3.622-4.227l-2.08 3.153q-.47.738-1.341.269-.738-.604-.269-1.342l2.348-3.556q-1.14-1.207-2.147-2.415-1.006-1.207-1.61-2.415-.872-1.677-1.341-3.958-.537-2.348.2-4.427.672-2.08 3.02-3.489 2.348-1.476 7.312-1.476 2.683 0 3.757.94 1.073.939 1.006 2.549-.067 1.61-1.073 3.824-.94 2.213-2.281 4.83 1.207 1.207 2.348 2.549 1.207 1.275 2.28 2.55 1.141 1.274 2.08 2.414.94 1.074 1.61 1.879zm-9.928-19.992q-1.342 0-2.08.805-.67.805-.738 2.147 0 1.275.671 2.885.738 1.543 2.214 3.153 1.14-1.946 1.878-3.556.738-1.677.805-2.884.134-1.208-.536-1.879-.604-.67-2.214-.67z"/></g></svg>