<svg xmlns="http://www.w3.org/2000/svg" width="75" height="150" version="1"><path style="text-align:start;line-height:100%" d="M34.492 24.328l-.562.5v87.03l.437.75 6.5-.5.313-.28v-87l-.563-.5h-6.125z" font-size="144" font-weight="400" font-family="Bitstream Vera Sans"/><path style="marker:none" d="M41.18 27.578V41.14c1.171 1.219 3.906 2.813 8.218 4.781 10.688 3.329 16.031 6.626 16.032 9.907 0 3.937-1.422 7.047-4.282 9.343l2.094 2.25h.281c5.719-4.5 8.594-10.156 8.594-17 0-6.468-5.625-11.343-16.875-14.625-8.11-2.953-12.797-5.687-14.062-8.218z" color="#000" fill-rule="evenodd" overflow="visible"/><path style="text-align:start;line-height:100%" d="M19.305 107.359c-9.938 1.078-14.907 4.703-14.907 10.844 0 7.875 5.688 11.812 17.032 11.812h4c10.5-2.11 15.75-6.765 15.75-13.937v-4.22h-7.25c-4.172-3-8.5-4.5-13-4.5h-1.625z" font-size="144" font-weight="400" font-family="Bitstream Vera Sans"/></svg>