<?xml version="1.0" encoding="UTF-8" standalone="no"?>
<!-- Created with Inkscape (http://www.inkscape.org/) -->

<svg
   xmlns:dc="http://purl.org/dc/elements/1.1/"
   xmlns:cc="http://creativecommons.org/ns#"
   xmlns:rdf="http://www.w3.org/1999/02/22-rdf-syntax-ns#"
   xmlns:svg="http://www.w3.org/2000/svg"
   xmlns="http://www.w3.org/2000/svg"
   xmlns:sodipodi="http://sodipodi.sourceforge.net/DTD/sodipodi-0.dtd"
   xmlns:inkscape="http://www.inkscape.org/namespaces/inkscape"
   version="1.1"
   id="svg815"
   xml:space="preserve"
   width="1493.1866"
   height="928.98401"
   viewBox="0 0 1493.1866 928.98401"
   sodipodi:docname="stages-logo-adjusted.svg"
   inkscape:version="0.92.3 (2405546, 2018-03-11)"><metadata
     id="metadata821"><rdf:RDF><cc:Work
         rdf:about=""><dc:format>image/svg+xml</dc:format><dc:type
           rdf:resource="http://purl.org/dc/dcmitype/StillImage" /><dc:title></dc:title></cc:Work></rdf:RDF></metadata><defs
     id="defs819"><clipPath
       clipPathUnits="userSpaceOnUse"
       id="clipPath831"><path
         d="M 0,696.738 H 1119.892 V 0 H 0 Z"
         id="path829"
         inkscape:connector-curvature="0" /></clipPath></defs><sodipodi:namedview
     pagecolor="#ffffff"
     bordercolor="#666666"
     borderopacity="1"
     objecttolerance="10"
     gridtolerance="10"
     guidetolerance="10"
     inkscape:pageopacity="0"
     inkscape:pageshadow="2"
     inkscape:window-width="1920"
     inkscape:window-height="1001"
     id="namedview817"
     showgrid="false"
     inkscape:zoom="0.86976739"
     inkscape:cx="744.94279"
     inkscape:cy="464.492"
     inkscape:window-x="-9"
     inkscape:window-y="-9"
     inkscape:window-maximized="1"
     inkscape:current-layer="g823" /><g
     id="g823"
     inkscape:groupmode="layer"
     inkscape:label="Stages_Logo111716"
     transform="matrix(1.3333333,0,0,-1.3333333,0,928.984)"><text
       transform="matrix(1,0,0,-1,376.4082,118.5771)"
       style="font-variant:normal;font-weight:300;font-stretch:normal;font-size:67px;font-family:'Roboto Slab';-inkscape-font-specification:RobotoSlab-Light;writing-mode:lr-tb;fill:#00acff;fill-opacity:1;fill-rule:nonzero;stroke:none"
       id="text891"><tspan
         x="0 41.318901 77.364899 104.788 128.506 166.22701 193.11411 257.23309 278.10361 320.92331 499.418 547.99298 575.96552 599.95148"
         y="0"
         sodipodi:role="line"
         id="tspan889">PerformingArts</tspan></text>
<g
       aria-label="S"
       transform="matrix(1,0,0,-1,45.231,253.5088)"
       style="font-variant:normal;font-weight:normal;font-stretch:normal;font-size:280.9052124px;font-family:Channel;-inkscape-font-specification:Channel;writing-mode:lr-tb;fill:#000000;fill-opacity:1;fill-rule:nonzero;stroke:none"
       id="text887"><path
         d="m 352.53604,-240.87622 q 0.35113,-21.77015 -13.69413,-38.62447 -5.96923,-7.37376 -16.15205,-14.04526 -9.83168,-7.02263 -24.93033,-12.64073 -15.09866,-5.61811 -36.16655,-8.77829 -20.71676,-3.51131 -48.80728,-3.51131 -27.38826,0 -53.37199,5.26697 -25.6326,4.91584 -47.05163,14.04526 -21.419017,8.77829 -36.868804,20.71676 -15.449787,11.93847 -22.472417,25.6326 -6.671499,13.343 -3.511315,28.09052 3.160183,14.74752 18.961102,29.14392 16.152049,14.04526 46.349364,27.38825 30.19731,12.99187 77.60006,23.87695 42.83805,9.83168 78.30233,20.36563 35.81541,10.53394 61.44801,25.281464 25.6326,14.747524 39.67786,35.464283 14.3964,20.71676 14.3964,51.265201 0,30.548442 -13.343,52.669728 -13.343,22.121285 -36.86881,36.517677 -23.52581,14.396393 -55.82991,21.067891 -32.3041,7.022626 -69.87517,7.022626 -37.57107,0 -73.38649,-7.022626 Q 101.47701,91.294194 73.737618,78.302328 45.998229,65.661593 29.143916,47.402755 12.640735,29.495047 12.640735,7.7248933 q 0,-11.58734 5.266972,-18.6099703 5.618105,-7.373762 13.694129,-10.182814 8.427157,-2.809052 17.556576,-1.755658 9.480551,1.053395 17.205444,5.969236 6.671499,4.213578 9.831683,13.3429978 3.160184,9.1294194 1.053394,18.6099702 -1.755657,9.831683 -9.129419,18.60997 -7.373762,8.778288 -21.419022,12.640735 5.266972,9.480551 21.06789,18.258839 16.15205,9.129419 37.219938,15.800918 21.06789,7.02263 44.24257,10.885077 23.52582,4.213578 43.18918,4.213578 33.70863,0 62.50141,-9.129419 29.14392,-8.778288 48.10502,-23.525812 19.31223,-14.396392 26.33486,-33.357494 7.02263,-18.60997 -2.80905,-38.2733349 -9.83168,-19.6633651 -38.9756,-38.2733351 -29.14391,-18.961102 -82.16477,-33.708626 -50.21181,-14.04526 -88.83628,-24.228071 -38.624464,-10.53395 -64.959327,-23.52581 -26.334864,-12.99187 -40.028993,-31.60184 -13.3429976,-18.60997 -13.3429976,-49.15841 0,-20.36563 9.4805509,-36.86881 9.8316827,-16.85432 26.3348637,-30.19731 16.503181,-13.343 38.273335,-22.82355 21.770154,-9.83168 45.647098,-16.15205 23.87694,-6.6715 48.45615,-9.83168 24.93034,-3.16019 47.40275,-3.16019 33.70863,0 60.74576,6.32037 27.03712,5.96924 46.34936,16.50318 19.66336,10.18282 31.2507,24.22808 11.58734,13.69413 14.04526,29.49504 2.45792,15.44979 -1.05339,26.33487 -3.51132,10.53394 -10.53395,17.20544 -6.6715,6.6715 -16.15205,9.83168 -9.12942,2.80906 -17.90771,2.80906 -6.6715,0 -12.2896,-2.45792 -5.6181,-2.45793 -9.83168,-6.32037 -3.86245,-4.21358 -6.32037,-9.12942 -2.10679,-5.26697 -2.10679,-10.88508 0,-5.6181 2.10679,-10.88508 2.45792,-5.26697 6.6715,-9.48055 4.21358,-4.21357 10.18281,-6.6715 5.96924,-2.45792 13.343,-2.45792 4.91584,0 10.18282,2.10679 5.6181,2.10679 10.18281,4.56471 5.26697,2.80906 9.83168,6.32037 z"
         style=""
         id="path950" /></g><g
       clip-path="url(#clipPath831)"
       id="g827"><g
         id="g948"><g
           id="g837"
           transform="translate(678.9199,373.0714)"><path
             d="M 0,0 C 0.937,1.67 1.929,3.327 2.673,5.084 2.992,5.836 2.777,6.827 2.752,7.707 2.721,8.786 2.315,9.029 1.235,8.578 -0.08,8.025 -1.138,7.238 -1.861,6.053 -2.79,4.537 -4.15,3.898 -5.85,3.913 c -2.702,0.022 -4.744,-1.07 -7.433,-0.876 -3.62,0.264 -7.223,0.718 -10.495,-1.439 -0.181,-0.12 -0.415,-0.192 -0.634,-0.221 -4.709,-0.627 -10.055,-0.606 -14.851,10e-4 -0.287,0.037 -0.558,0.171 -0.838,0.26 0.307,0.128 0.628,0.232 0.917,0.392 0.678,0.375 1.348,0.766 2.008,1.172 0.741,0.454 1.415,1.06 2.207,1.366 1.061,0.409 1,0.978 0.657,1.845 -0.824,2.082 -0.887,2.361 1,2.99 2.445,0.816 2.41,3.415 3.976,4.807 0.153,0.136 -0.167,1.067 -0.491,1.423 -1.129,1.241 -2.149,2.371 -0.735,4.116 0.274,0.34 -0.182,1.202 -0.136,1.812 0.156,2.126 0.347,4.252 0.598,6.37 0.263,2.226 -0.179,4.203 -1.448,6.102 -3.364,5.03 -7.813,8.355 -13.843,9.516 -1.476,0.738 -1.791,1.105 -5.68,1.699 -5.21,0.432 -8.798,-1.045 -8.798,-1.045 -2.597,-1.693 -5.147,-3.468 -7.809,-5.051 -2.107,-1.255 -3.443,-3.144 -3.869,-5.351 -0.616,-3.181 -0.864,-6.466 -0.934,-9.713 -0.062,-2.994 1.04,-5.743 2.796,-8.199 0.46,-0.641 0.915,-1.292 1.309,-1.974 0.857,-1.489 0.648,-2.606 -0.721,-3.491 -6.418,-4.148 -12.485,-8.863 -19.456,-12.121 -1.378,-0.644 -2.578,-1.892 -4.331,-1.332 -0.097,0.032 -0.233,0 -0.332,-0.045 -5.718,-2.652 -11.788,-4.806 -15.475,-10.434 -0.793,-1.211 -1.478,-2.568 -1.865,-3.953 -0.941,-3.357 -1.679,-6.77 -2.501,-10.161 -0.077,-0.32 -0.167,-0.639 -0.251,-0.959 -0.356,0.255 -0.788,0.451 -1.052,0.78 -0.424,0.524 -0.676,1.187 -1.11,1.699 -1.553,1.843 -3.402,1.724 -4.623,-0.396 -0.669,-1.161 -1.084,-2.48 -1.534,-3.755 -0.794,-2.235 -1.638,-4.426 -3.492,-6.041 l 0.642,-5.415 c 1.648,-0.687 2.417,-2.163 3.294,-3.572 0.321,-0.515 1.201,-1.314 1.303,-1.241 1.71,1.202 2.15,-0.325 2.782,-1.261 1.181,-1.75 2.801,-2.875 4.698,-3.738 2.233,-1.019 4.371,-0.931 6.501,0.197 1.678,0.889 3.158,2.095 5.182,2.376 1.028,0.143 1.976,0.969 2.279,2.27 0.357,1.528 0.946,3.001 1.383,4.513 0.351,1.21 0.754,1.459 1.915,0.9 1.324,-0.637 2.561,-1.472 3.919,-2.011 2.715,-1.077 5.47,-2.06 8.241,-2.988 2.025,-0.679 4.074,-0.512 5.838,0.707 1.286,0.888 1.893,0.525 2.728,-0.606 1.923,-2.609 4.717,-3.394 7.813,-3.119 1.517,0.134 2.832,0.093 4.136,-0.926 1.113,-0.868 1.422,-0.626 2.01,0.876 0.555,1.408 1.82,2.091 3.487,1.776 0.66,-0.123 1.271,-0.513 1.931,-0.636 0.358,-0.065 1.113,0.186 1.111,0.281 -0.055,2.362 1.225,0.956 2.071,0.764 1.274,-0.29 2.248,0.594 1.996,1.869 -0.282,1.424 -1.079,2.466 -2.49,2.961 -2.27,0.795 -4.619,0.966 -6.997,0.814 -3.667,-0.235 -3.799,-0.313 -5.553,2.915 -1.004,1.85 -1.54,3.965 -2.164,5.999 -0.093,0.302 0.408,1.043 0.787,1.195 3.92,1.564 6.678,4.559 9.492,7.502 0.623,0.653 1.286,1.271 1.973,1.857 3.18,2.708 6.431,5.336 9.542,8.118 1.858,1.659 4.041,2.366 6.371,2.903 3.837,0.883 7.648,0.298 11.449,-0.2 1.748,-0.229 3.317,-0.122 4.904,0.723 1.056,0.561 2.236,0.713 3.521,0.763 1.866,0.072 4.861,2.167 6.705,2.671 0.757,0.206 1.534,0.419 2.224,0.78 C -7.185,-4.753 -0.719,-1.282 0,0"
             style="fill:#00acff;fill-opacity:1;fill-rule:evenodd;stroke:none"
             id="path839"
             inkscape:connector-curvature="0" /></g><g
           id="g841"
           transform="translate(766.3076,449.626)"><path
             d="m 0,0 c -0.288,0.174 1.33,2.37 1.504,2.892 0.172,0.52 0.578,1.098 0.578,1.098 0,0 0,-0.925 -0.636,-1.908 C 0.812,1.1 0.29,-0.173 0,0 m -25.442,5.493 c -0.059,0.463 0,1.908 0,1.908 0,0 0.462,-2.197 0.634,-2.659 0.174,-0.463 0.522,-1.33 0.522,-1.33 0,0 -1.1,1.619 -1.156,2.081 m 0.867,-4.741 c -0.349,0.52 -0.579,1.33 -0.579,1.33 l -0.057,0.693 c 0.114,-0.173 0.519,-1.04 0.751,-1.329 0.231,-0.289 0.231,-1.215 -0.115,-0.694 M 3.238,7.344 C 3.065,9.194 3.47,9.426 3.47,9.426 3.47,9.426 3.76,7.17 3.527,6.477 3.419,6.148 3.283,5.794 3.171,5.512 3.075,5.115 2.95,4.973 2.95,4.973 c 0,0 0.097,0.225 0.221,0.539 0.089,0.365 0.152,0.946 0.067,1.832 m 27.835,-60.449 c -1.977,1.567 -10.039,8.023 -11.42,8.807 -1.38,0.784 -1.813,0.771 -3.101,2.409 -1.287,1.639 -5.852,3.394 -6.32,3.863 -0.468,0.467 -0.468,7.724 -0.468,8.7 0,0.975 -1.015,7.256 -1.13,9.168 -0.118,1.911 0.233,3.706 0.389,4.253 0.156,0.546 0.078,1.677 0.936,4.057 0.857,2.38 4.214,7.022 5.189,8.427 0.976,1.404 3.588,5.813 4.213,7.179 0.624,1.365 1.452,2.792 1.923,3.5 0.472,0.706 1.441,5.943 1.441,6.205 0,0.262 0.445,0.969 0.471,1.492 0.027,0.524 -0.315,1.127 -0.393,1.388 -0.078,0.261 -0.051,5.185 -0.025,5.552 0.025,0.366 0.601,0.157 1.151,0.183 0.55,0.026 1.048,0.995 1.048,1.571 0,0.576 -0.576,0.628 -0.865,0.786 -0.288,0.156 0.446,0.549 0.996,0.917 0.549,0.366 1.754,1.204 2.199,1.57 0.445,0.367 0.681,0.288 0.839,0.55 0.156,0.262 -0.394,0.628 -0.892,0.628 -0.497,0 -2.226,-0.837 -3.063,-1.125 -0.838,-0.288 -1.31,0.261 -2.225,0.471 C 21.049,27.655 20.29,27.314 19.661,27.131 19.033,26.948 17.068,27 15.759,26.791 14.45,26.582 13.142,25.456 12.354,24.984 11.568,24.513 11.098,24.513 10.364,24.199 9.632,23.885 9.346,23.256 9.501,22.837 c 0.157,-0.419 0.602,-0.262 0.916,-0.235 0.314,0.025 0.654,0.104 1.493,0.157 0.837,0.052 1.282,0.235 1.519,0.314 0.234,0.078 0.785,0 1.466,-0.079 0.681,-0.078 0.786,-0.209 1.021,-0.366 0.235,-0.158 -0.209,-3.3 -0.209,-3.692 0,-0.393 -0.209,-0.472 -0.523,-0.865 -0.314,-0.392 -0.236,-1.23 -0.236,-1.937 0,-0.707 -0.314,-1.597 -0.76,-2.488 -0.446,-0.89 -0.811,-1.938 -1.099,-3.352 C 12.8,8.88 12.329,8.042 12.251,7.78 12.172,7.519 11.753,7.649 11.361,7.571 10.969,7.493 11.098,7.1 11.098,6.838 11.098,6.576 10.679,6.576 10.156,6.55 9.632,6.524 9.764,6.393 9.764,5.921 9.764,5.45 9.789,5.477 9.396,4.979 9.003,4.48 8.925,4.534 8.585,4.534 8.243,4.534 8.087,4.376 7.983,3.801 7.878,3.225 7.616,3.303 7.379,3.303 7.144,3.303 6.698,3.25 6.437,2.779 6.176,2.308 6.412,2.203 5.495,1.522 4.578,0.842 4.918,0.842 4.841,0.475 4.761,0.107 4.499,0.239 4.107,0.344 3.715,0.448 4.002,0.004 3.504,-0.494 3.007,-0.992 1.959,-1.489 1.724,-1.804 1.488,-2.118 0.127,-0.285 0.127,-0.285 c 0,0 2.476,3.408 2.765,3.639 0.29,0.231 1.446,2.371 1.735,3.701 0.288,1.33 -0.347,4.453 -0.811,6.707 -0.462,2.256 -0.751,4.685 -1.56,7.634 -0.81,2.949 -3.933,5.608 -5.147,6.361 -1.214,0.751 -2.717,1.677 -3.18,2.37 -0.463,0.694 -2.082,0.983 -4.916,1.157 -2.832,0.174 -5.147,-0.578 -6.881,-1.618 -1.734,-1.042 -3.758,-3.297 -4.336,-4.338 -0.579,-1.041 -1.389,-2.255 -2.544,-4.8 -1.158,-2.544 -0.753,-3.874 -0.694,-4.857 0.056,-0.983 -0.406,-1.562 -1.158,-2.545 -0.752,-0.982 -0.462,-1.561 -0.405,-1.966 0.059,-0.405 0.348,0.405 0.522,0.81 0.172,0.405 0.114,-3.354 0.114,-5.493 0,-2.14 0.058,-3.47 0.579,-4.569 0.52,-1.099 0.348,-1.041 0.579,-1.387 C -24.98,0.174 -24.46,0 -24.46,0 c 0,0 0.174,-0.173 0.174,0 0,0.174 0.403,-0.925 0.519,-1.214 0.118,-0.289 0.409,-0.764 0.681,-1.193 0.274,-0.429 -1.287,0.195 -2.028,0.585 -0.741,0.39 -1.6,1.287 -2.223,2.225 -0.624,0.935 -1.132,1.013 -1.444,1.013 -0.313,0 -0.391,0.079 -0.937,0.741 -0.546,0.664 -0.897,0.976 -1.559,1.562 -0.664,0.585 -0.939,0.858 -1.25,1.521 -0.312,0.663 -0.545,1.092 -1.093,1.131 -0.546,0.039 -0.428,0.351 -0.623,0.702 -0.195,0.351 -0.78,0.663 -1.171,1.094 -0.39,0.428 -1.639,2.457 -2.77,3.588 -1.131,1.132 -2.965,3.277 -4.253,5.15 -1.288,1.872 -2.653,4.408 -2.926,4.292 -0.273,-0.117 -1.247,1.325 -2.184,2.847 -0.936,1.522 -3.355,4.136 -4.057,4.76 -0.703,0.624 -3.161,1.288 -4.136,1.365 -0.975,0.078 -2.497,-0.35 -3.159,-0.39 -0.664,-0.039 -1.131,0.429 -1.484,0.663 -0.35,0.234 -2.534,1.21 -3.511,1.64 -0.975,0.429 -1.522,-0.313 -1.522,-0.625 0,-0.312 1.443,-0.897 2.458,-1.6 1.016,-0.702 1.561,-1.327 1.601,-1.716 0.038,-0.391 -1.054,-0.624 -2.146,-0.975 -1.095,-0.352 -2.146,-0.625 -3.356,-0.937 -1.209,-0.312 -1.638,-0.429 -1.482,-1.014 0.155,-0.585 1.717,-0.274 2.847,-0.274 1.133,0 0.896,-0.506 0.937,-0.74 0.038,-0.235 -2.653,-0.352 -3.082,-0.43 -0.429,-0.078 -0.195,-0.781 -0.078,-1.014 0.117,-0.235 1.093,-0.312 1.483,-0.429 0.389,-0.117 2.458,-0.078 3.122,-0.04 0.661,0.04 0.779,0.196 1.287,0.196 0.506,0 1.092,0.078 1.716,0.273 0.624,0.195 1.522,1.092 1.911,1.248 0.39,0.157 2.808,0.078 3.59,0.039 0.78,-0.039 1.131,-1.21 1.754,-2.418 0.625,-1.21 1.445,-3.785 1.562,-4.058 0.116,-0.273 -0.546,-0.351 -0.429,-0.702 0.117,-0.351 2.263,-4.097 3.12,-5.657 0.859,-1.561 3.122,-4.643 4.292,-6.125 1.17,-1.483 1.951,-2.653 2.185,-3.161 0.234,-0.507 2.262,-3.12 3.785,-5.189 1.521,-2.067 2.964,-3.003 3.198,-3.706 0.234,-0.702 1.483,-1.677 2.497,-2.496 1.014,-0.82 2.77,-2.692 5.423,-6.554 2.653,-3.863 5.501,-12.68 6.242,-14.514 0.741,-1.833 1.443,-5.735 1.483,-6.944 0.039,-1.209 -2.381,-1.366 -3.316,-1.366 -0.938,0 -1.638,-1.013 -3.043,-2.262 -1.405,-1.248 -3.787,-2.614 -5.618,-3.98 -1.834,-1.365 -3.121,-2.731 -3.902,-4.096 -0.78,-1.365 -2.921,-4.606 -3.404,-5.342 -0.483,-0.737 -0.787,-0.965 -0.762,-1.295 0.024,-0.33 -0.253,-0.483 -0.584,-0.888 -0.33,-0.407 -1.473,-0.61 -2.488,-1.575 -1.015,-0.966 -0.889,-1.727 -0.991,-1.955 -0.102,-0.229 4.342,0.355 4.723,0.304 0.381,-0.05 -2.718,-3.479 -2.971,-3.784 -0.254,-0.303 0.991,-1.167 1.244,-1.446 0.254,-0.279 0.533,-0.178 1.575,-0.152 1.042,0.025 3.579,-0.483 3.784,-0.585 0.202,-0.102 -0.128,-1.015 -0.128,-1.269 0,-0.254 0.965,-0.33 1.271,-0.534 0.303,-0.203 0.126,-0.711 0.431,-0.964 0.305,-0.255 0.635,-0.178 0.837,0.025 0.203,0.203 3.886,-1.676 4.901,-1.981 1.016,-0.304 1.422,-1.27 1.957,-1.625 0.532,-0.355 0.828,0.307 1.121,0.208 0.26,-0.089 0.319,-0.543 0.521,-0.543 0.203,0 0.488,0.078 0.718,-0.125 0.228,-0.202 0.304,-1.317 0.559,-2.968 0.254,-1.651 0.305,-5.942 0.354,-7.871 0.053,-1.93 -0.532,-4.317 -1.091,-6.983 -0.558,-2.667 -1.066,-8.355 -1.014,-11.224 0.049,-2.869 0.405,-7.719 0.329,-8.024 -0.077,-0.304 -0.558,-0.431 -0.913,-1.066 -0.356,-0.635 -0.255,-4.469 -0.332,-5.13 -0.075,-0.66 0.051,-1.447 0.483,-1.675 0.433,-0.229 0.508,-0.61 0.508,-1.245 0,-0.634 -0.407,-2.107 -0.787,-3.148 -0.381,-1.041 -0.559,-1.32 -1.245,-2.59 -0.685,-1.27 -0.304,-2.819 0.026,-3.352 0.33,-0.533 7.135,-0.558 9.191,-0.356 2.057,0.203 1.677,2.768 1.753,4.19 0.075,1.423 0.278,1.499 0.609,2.235 0.33,0.736 0.025,2.508 0.025,2.977 0,0.467 0.154,1.248 0.78,1.404 0.623,0.156 0.312,4.993 0.312,6.086 0,1.092 -0.703,1.483 -1.015,1.716 -0.311,0.235 0.468,4.214 0.936,5.931 0.468,1.716 1.171,5.072 1.404,6.944 0.235,1.873 0.937,5.696 1.717,7.1 0.781,1.405 1.561,4.058 1.872,5.931 0.313,1.872 1.014,6.008 1.172,8.037 0.117,1.521 0.113,2.821 0.492,3.235 0.127,0.138 0.64,-0.017 0.756,-0.036 0.469,-0.078 0,-2.497 0.079,-3.901 0.077,-1.405 -0.547,-4.292 -1.016,-6.32 -0.469,-2.03 -0.024,-3.877 0.349,-5.183 0.374,-1.306 -0.037,-6.419 -0.074,-8.845 -0.037,-2.425 0.672,-8.806 0.746,-9.477 0.075,-0.673 -0.225,-0.598 -0.859,-0.747 -0.633,-0.15 -0.446,-0.971 -0.446,-2.015 0,-1.046 0,-2.239 -0.225,-2.724 -0.222,-0.485 0,-0.859 0.524,-1.232 0.52,-0.374 0.52,-0.821 0.781,-1.642 0.262,-0.821 0.037,-2.873 -0.036,-3.881 -0.042,-0.57 -0.202,-2.356 -0.075,-3.829 0.097,-1.127 -0.153,-2.236 1.418,-3.186 0.825,-0.498 2.127,-0.261 2.575,-0.261 0.448,0 0.56,-0.486 1.194,-1.008 0.634,-0.522 6.68,-0.373 8.769,-0.15 2.091,0.224 1.382,2.277 0.149,3.733 -1.231,1.455 -2.723,3.395 -3.805,4.514 -1.083,1.12 -0.821,1.344 -0.821,1.755 v 2.649 c 0,0.447 0.56,0.373 1.007,0.41 0.447,0.039 0.225,1.531 0.112,1.942 -0.112,0.409 0.335,1.939 0.634,3.208 0.299,1.269 -0.185,1.381 -0.634,1.642 -0.448,0.262 0,1.68 0.412,4.217 0.409,2.537 0.894,11.308 0.894,14.405 0,3.097 0.523,4.366 0.933,6.306 0.411,1.941 3.546,9.852 3.769,10.524 0.224,0.67 3.06,0.67 3.956,0.858 0.896,0.186 1.119,1.381 1.53,1.754 0.412,0.373 1.119,-1.866 1.344,-2.314 0.222,-0.448 3.171,1.232 3.844,1.493 0.671,0.26 0.372,0 0.522,-0.224 0.149,-0.224 1.006,0.298 2.948,0.895 1.94,0.597 1.231,0.56 1.231,0.896 0,0.337 0.746,0.373 1.568,0.448 0.82,0.074 0.932,0.709 1.38,0.783 0.449,0.075 0.374,1.232 0.335,1.792 -0.037,0.559 3.434,3.172 4.74,4.851 1.306,1.679 0.747,2.761 0.412,3.247 -0.337,0.484 0.148,0.783 0.596,1.306 0.447,0.522 -0.972,1.231 -2.948,2.798"
             style="fill:#00acff;fill-opacity:1;fill-rule:nonzero;stroke:none"
             id="path843"
             inkscape:connector-curvature="0" /></g><g
           id="g845"
           transform="translate(971.4492,572.8526)"><path
             d="m 0,0 c -0.536,0.804 -1.874,-0.444 -1.874,-0.444 0,0 0.713,-1.337 1.159,-1.337 0.444,0 1.247,0.982 0.715,1.781 m -17.289,-91.696 c 0.18,-3.385 1.335,-7.929 1.335,-7.929 0,0 -0.177,4.632 0.447,7.575 0.625,2.937 0.625,5.435 0.625,5.435 l -2.584,1.246 c 0,0 0,-2.94 0.177,-6.327 m -15.407,63.637 c 0,0 -1.304,1.161 -1.304,1.862 0,0.702 0.493,1.478 0.493,1.864 0,0.387 -0.702,1.435 -0.702,1.435 l -1.041,-1.951 -0.78,-3.635 z m 43.574,-0.297 c 0,0 1.43,-1.166 2.467,-2.337 1.042,-1.171 2.991,-3.637 5.72,-11.693 2.727,-8.057 1.556,-29.496 1.556,-30.666 0,-1.17 2.209,-3.25 4.809,-5.849 2.599,-2.595 4.678,-7.145 6.496,-9.744 1.819,-2.598 2.598,-8.575 6.369,-17.279 3.767,-8.707 13.251,-29.888 14.03,-32.874 0.779,-2.992 -7.014,-4.68 -7.925,-5.719 -0.911,-1.039 0.388,-1.69 -2.726,-2.21 -3.12,-0.518 -15.595,-7.664 -15.595,-7.664 0,0 -1.82,-3.77 -3.12,-8.059 -1.299,-4.285 -2.338,-13.379 -1.95,-16.888 0.392,-3.51 4.55,-5.328 10.917,-15.462 6.369,-10.135 7.148,-24.297 8.706,-28.458 1.561,-4.159 2.857,-5.064 3.248,-5.974 0.393,-0.911 0.393,-3.507 0.78,-4.679 0.39,-1.17 5.586,-7.277 5.198,-8.577 -0.39,-1.299 -4.028,-4.937 -8.448,-7.924 -4.414,-2.989 -11.043,-1.69 -14.681,-1.69 -3.636,0 -2.986,3.377 -0.39,5.07 2.598,1.687 6.369,10.78 6.369,12.6 0,1.821 -1.82,5.719 -3.899,12.736 -2.08,7.015 -16.113,25.076 -18.452,28.716 -2.336,3.637 -5.587,5.974 -7.406,10.78 -1.817,4.812 0.65,20.401 0.65,20.401 l -3.509,0.912 c 0,0 -0.649,-8.663 -1.686,-12.475 -1.042,-3.81 1.166,-13.512 3.895,-26.117 2.728,-12.604 3.25,-32.094 3.378,-34.562 0.13,-2.469 1.691,-5.588 2.209,-7.796 0.52,-2.208 1.171,-3.766 0.911,-6.237 -0.263,-2.466 -4.941,-2.729 -8.576,-2.859 -3.638,-0.129 -12.215,-0.648 -15.331,-0.908 -3.121,-0.261 -4.421,1.687 -3.25,2.859 1.17,1.169 4.548,2.466 5.328,3.117 0.779,0.649 8.444,7.668 8.966,8.317 0.52,0.651 -5.067,16.501 -8.578,28.194 -3.506,11.694 -5.325,21.832 -5.458,25.076 -0.129,3.25 -1.167,13.514 -1.167,16.764 0,3.25 -1.429,12.345 -3.377,18.579 -1.95,6.239 -3.122,18.193 -3.122,18.193 0,0 -4.935,0.651 -8.313,1.946 -3.379,1.301 -11.823,11.306 -14.423,17.672 -2.6,6.369 -11.435,62.238 -11.044,66.138 0.387,3.899 1.038,5.456 3.249,7.795 2.207,2.34 6.495,6.106 6.495,6.106 0,0 -0.391,2.213 -0.391,3.508 0,1.301 0.782,0.783 0.782,0.783 0,0 0.517,0.518 0.517,1.166 0,0.651 0.78,0.263 0.78,0.263 0,0 1.299,0.909 1.299,1.558 0,0.65 0.78,1.299 0.78,1.299 0,0 0.782,0.651 1.04,1.3 0.259,0.65 1.3,0.517 1.3,0.517 0,0 0.65,1.3 0.908,1.821 0.264,0.52 4.028,-1.299 4.028,-1.299 l 2.208,1.299 2.472,-1.17 c 0,0 0.908,0.52 0.908,1.17 0,0.65 -1.429,0.908 -1.688,1.299 -0.262,0.393 0,2.208 0,2.208 0,0 -1.82,1.042 -2.342,1.821 -0.517,0.779 3.25,5.328 3.512,6.235 0.259,0.909 0,2.86 -0.911,4.289 -0.91,1.428 -1.171,4.29 1.17,7.664 2.337,3.379 7.015,5.33 14.943,6.629 7.923,1.299 15.981,-6.756 15.981,-6.756 0,0 2.987,2.469 6.758,0.127 3.769,-2.336 3.636,-3.636 6.235,-14.288 2.599,-10.658 0.779,-17.022 0.779,-17.022 0,0 0,3.245 -1.037,7.923 -1.011,4.532 -2.259,7.602 -2.337,7.788 z M -55.34,-71.913 c 0.8,-2.673 1.694,-10.96 2.764,-15.862 1.069,-4.902 3.386,-17.735 4.989,-21.297 1.605,-3.565 8.288,-15.595 12.385,-17.376 4.099,-1.786 9.983,-2.585 9.983,-2.585 0,0 1.603,8.912 1.603,12.474 0,3.566 0.535,9.445 0.535,9.445 0,0 -4.901,12.478 -5.88,18.534 -0.982,6.063 -1.872,11.052 -2.408,13.903 -0.533,2.854 -4.545,16.396 -4.811,17.644 -0.269,1.251 -8.379,15.774 -8.821,17.291 -0.447,1.513 -2.051,2.403 -2.143,2.85 -0.086,0.445 -0.889,1.96 -0.889,1.96 0,0 -2.319,-3.208 -4.634,-4.723 -2.317,-1.512 -5.88,-2.942 -5.88,-4.276 0,-1.338 2.403,-25.309 3.207,-27.982"
             style="fill:#00acff;fill-opacity:1;fill-rule:nonzero;stroke:none"
             id="path847"
             inkscape:connector-curvature="0" /></g><g
           id="g849"
           transform="translate(706.2832,350.2774)"><path
             d="M 0,0 C 0,-0.285 0.006,-0.572 -0.004,-0.858 -0.018,-1.375 0.193,-1.515 0.674,-1.309 1.946,-0.761 3.267,-0.308 4.491,0.328 6.415,1.327 6.499,1.579 6.348,3.679 6.305,4.291 6.215,4.352 5.728,3.993 4.333,2.966 2.787,2.241 1.168,1.655 -0.018,1.227 -0.018,1.227 0,0 m -44.005,3.082 c -0.387,-1.304 0.461,-1.939 1.394,-2.443 1.074,-0.582 2.173,-1.151 3.322,-1.561 1.986,-0.71 1.781,-1.024 1.83,1.3 0.012,0.648 -0.265,0.904 -0.824,1.147 -1.533,0.665 -3.031,1.406 -4.537,2.131 -0.357,0.173 -0.689,0.399 -1.032,0.601 -0.051,-0.391 -0.102,-0.783 -0.153,-1.175 m 29.476,-6.961 c 3.648,0.297 7.274,0.666 10.85,1.443 1.795,0.391 1.799,0.373 1.725,2.181 -0.004,0.083 -0.007,0.165 -0.004,0.246 0.019,0.513 -0.253,0.641 -0.703,0.533 -0.16,-0.039 -0.32,-0.077 -0.48,-0.113 -4.209,-0.977 -8.484,-1.43 -12.795,-1.574 -2.008,-0.068 -1.996,-0.051 -1.833,-2.078 0.037,-0.459 0.175,-0.661 0.658,-0.647 0.86,0.026 1.721,0.009 2.582,0.009 m -8.578,0.104 c 0.491,-0.024 0.983,-0.053 1.475,-0.071 2.095,-0.078 2.116,-0.042 1.924,2.047 -0.035,0.395 -0.146,0.615 -0.572,0.605 -0.329,-0.008 -0.658,0.008 -0.985,0.019 -4.187,0.139 -8.345,0.522 -12.443,1.438 -1.924,0.428 -1.909,0.413 -1.824,-1.61 0.022,-0.534 0.145,-0.861 0.736,-0.892 0.241,-0.012 0.479,-0.114 0.718,-0.165 3.616,-0.777 7.279,-1.193 10.971,-1.371 m 5.993,-25.064 c 2.051,-0.021 5.691,0.237 9.31,0.777 3.213,0.477 6.389,1.126 9.378,2.432 1.118,0.488 2.187,1.118 3.2,1.8 1.216,0.82 1.726,2.025 1.58,3.515 -0.048,0.483 -0.156,0.536 -0.579,0.347 -1.458,-0.65 -2.905,-1.334 -4.403,-1.875 -0.883,-0.32 -1.623,-0.579 -1.403,-1.729 0.027,-0.147 -0.015,-0.38 -0.115,-0.464 -0.266,-0.218 -0.575,-0.5 -0.883,-0.521 -0.248,-0.018 -0.556,0.274 -0.77,0.495 -0.121,0.127 -0.139,0.385 -0.142,0.585 -0.007,0.517 -0.24,0.609 -0.71,0.504 -4.663,-1.044 -9.401,-1.468 -14.167,-1.619 -0.513,-0.017 -0.986,0.016 -1.022,-0.724 -0.021,-0.455 -0.392,-0.72 -0.846,-0.751 -0.459,-0.032 -0.874,0.212 -0.918,0.649 -0.082,0.812 -0.575,0.819 -1.192,0.833 -4.564,0.106 -9.09,0.577 -13.57,1.472 -0.605,0.121 -1.198,0.426 -1.28,-0.618 -0.036,-0.426 -0.483,-0.66 -0.944,-0.606 -0.45,0.053 -0.742,0.331 -0.825,0.789 -0.037,0.2 -0.059,0.408 -0.054,0.611 0.013,0.437 -0.192,0.661 -0.607,0.793 -1.877,0.597 -3.738,1.233 -5.444,2.252 -0.179,0.109 -0.41,0.172 -0.418,-0.171 -0.023,-0.989 -0.071,-2.01 0.649,-2.8 0.519,-0.571 1.1,-1.116 1.736,-1.544 1.793,-1.203 3.829,-1.862 5.888,-2.424 5.545,-1.517 11.216,-1.992 18.551,-2.008 m -1.655,29.526 c 2.338,0.125 4.678,0.204 7.01,0.382 3.485,0.268 6.93,0.826 10.286,1.802 1.886,0.549 3.788,1.14 5.414,2.296 0.724,0.514 1.411,1.141 1.947,1.842 0.686,0.894 0.654,1.936 0.004,2.873 -0.321,0.463 -0.741,0.876 -1.175,1.243 -1.077,0.912 -2.341,1.506 -3.649,2.007 -5.203,1.994 -10.662,2.631 -16.166,2.898 -4.266,0.207 -8.539,0.089 -12.79,-0.441 -3.673,-0.457 -7.297,-1.12 -10.765,-2.465 -1.344,-0.522 -2.618,-1.173 -3.754,-2.074 -1.97,-1.565 -2.025,-3.553 -0.076,-5.17 0.657,-0.546 1.401,-1.011 2.165,-1.395 2.436,-1.225 5.052,-1.939 7.712,-2.461 4.564,-0.895 9.18,-1.306 13.837,-1.337 M 6.36,-9.091 v 6.657 c 0,0.287 -0.008,0.576 -0.002,0.862 0.011,0.449 -0.115,0.561 -0.572,0.361 -1.648,-0.722 -3.3,-1.443 -4.983,-2.075 -0.616,-0.231 -0.849,-0.526 -0.818,-1.155 0.03,-0.613 0.009,-1.233 -0.045,-1.844 -0.046,-0.517 -0.378,-0.818 -0.905,-0.824 -0.526,-0.006 -0.858,0.279 -0.93,0.797 -0.055,0.405 -0.046,0.818 -0.058,1.229 -0.027,0.979 -0.028,0.992 -0.95,0.796 -3.581,-0.757 -7.204,-1.206 -10.856,-1.414 -0.985,-0.056 -1.97,-0.1 -2.954,-0.145 -1.036,-0.045 -1.037,-0.042 -1.051,-1.127 -0.003,-0.328 0.012,-0.657 -0.004,-0.985 -0.04,-0.87 -0.369,-1.332 -0.945,-1.349 -0.585,-0.016 -0.953,0.449 -0.992,1.298 -0.025,0.533 -0.012,1.068 -0.012,1.602 -0.001,0.337 -0.125,0.548 -0.501,0.545 -0.287,-0.003 -0.578,0.003 -0.862,0.025 -2.742,0.219 -5.488,0.392 -8.223,0.682 -1.752,0.186 -3.483,0.541 -5.222,0.836 -0.982,0.168 -0.981,0.182 -0.997,-0.852 -0.005,-0.411 0.018,-0.823 -0.011,-1.232 -0.054,-0.754 -0.436,-1.192 -0.987,-1.176 -0.543,0.013 -0.902,0.451 -0.94,1.222 -0.032,0.655 -0.039,1.316 -0.004,1.971 0.033,0.594 -0.208,0.863 -0.776,1.05 -1.791,0.587 -3.592,1.16 -5.215,2.163 -0.539,0.335 -0.5,-0.111 -0.5,-0.433 -0.003,-4.931 0.007,-9.862 -0.015,-14.792 -0.002,-0.565 0.179,-0.977 0.643,-1.227 1.262,-0.674 2.503,-1.411 3.822,-1.95 2.009,-0.821 2.034,-0.759 2.034,1.36 0,0.41 -0.008,0.823 0.004,1.233 0.009,0.244 0.03,0.493 0.09,0.73 0.109,0.45 0.434,0.724 0.882,0.725 0.445,0 0.778,-0.264 0.882,-0.718 0.063,-0.276 0.082,-0.569 0.087,-0.854 0.01,-0.862 0.001,-1.726 0.005,-2.588 0.007,-1.158 10e-4,-1.217 1.169,-1.401 2.916,-0.46 5.837,-0.91 8.769,-1.262 1.626,-0.196 3.278,-0.203 4.92,-0.264 0.922,-0.036 0.933,-0.009 0.947,0.947 0.015,0.904 0,1.809 0.004,2.712 0.004,0.287 0.01,0.577 0.049,0.859 0.068,0.516 0.389,0.832 0.899,0.846 0.511,0.013 0.854,-0.284 0.939,-0.797 0.054,-0.322 0.056,-0.654 0.059,-0.981 0.008,-0.945 0.024,-1.891 -0.003,-2.835 -0.018,-0.58 0.177,-0.81 0.784,-0.77 1.558,0.106 3.121,0.132 4.676,0.25 3.236,0.247 6.448,0.663 9.614,1.405 0.559,0.131 0.757,0.347 0.746,0.894 -0.022,1.107 -0.015,2.217 0.001,3.327 0.007,0.364 -0.011,0.783 0.158,1.077 0.157,0.276 0.549,0.578 0.833,0.576 0.282,-0.003 0.648,-0.32 0.821,-0.597 0.155,-0.251 0.121,-0.633 0.126,-0.959 0.016,-0.986 0.003,-1.971 0.012,-2.957 0.002,-0.294 0.019,-0.651 0.458,-0.501 1.865,0.638 3.708,1.32 5.329,2.49 0.505,0.363 0.584,0.824 0.577,1.389 -0.018,2.382 -0.006,4.765 -0.006,7.148"
             style="fill:#03aeff;fill-opacity:1;fill-rule:evenodd;stroke:none"
             id="path851"
             inkscape:connector-curvature="0" /></g><g
           id="g853"
           transform="translate(712.6436,341.1866)"><path
             d="m 0,0 c 0,-2.383 -0.013,-4.767 0.006,-7.148 0.007,-0.565 -0.072,-1.026 -0.577,-1.39 -1.621,-1.169 -3.464,-1.851 -5.329,-2.489 -0.44,-0.15 -0.456,0.207 -0.458,0.501 -0.009,0.985 0.004,1.971 -0.012,2.957 -0.005,0.326 0.028,0.708 -0.126,0.959 -0.173,0.277 -0.539,0.593 -0.821,0.596 -0.285,0.003 -0.676,-0.299 -0.833,-0.575 -0.169,-0.294 -0.152,-0.713 -0.159,-1.078 -0.015,-1.109 -0.022,-2.219 -0.001,-3.327 0.011,-0.547 -0.186,-0.762 -0.746,-0.893 -3.166,-0.742 -6.378,-1.158 -9.613,-1.405 -1.556,-0.119 -3.118,-0.145 -4.677,-0.25 -0.606,-0.041 -0.801,0.189 -0.783,0.77 0.026,0.944 0.011,1.89 0.003,2.834 -0.003,0.328 -0.005,0.66 -0.06,0.982 -0.085,0.513 -0.427,0.81 -0.938,0.796 -0.511,-0.013 -0.831,-0.329 -0.899,-0.845 -0.039,-0.283 -0.045,-0.573 -0.049,-0.859 -0.004,-0.904 0.01,-1.808 -0.004,-2.712 -0.015,-0.956 -0.026,-0.983 -0.947,-0.947 -1.642,0.061 -3.294,0.067 -4.92,0.264 -2.932,0.352 -5.853,0.801 -8.769,1.261 -1.168,0.185 -1.162,0.244 -1.17,1.402 -0.004,0.862 0.006,1.725 -0.005,2.588 -0.005,0.285 -0.023,0.577 -0.087,0.854 -0.103,0.454 -0.436,0.718 -0.881,0.717 -0.449,0 -0.773,-0.274 -0.882,-0.724 -0.06,-0.237 -0.081,-0.486 -0.09,-0.731 -0.013,-0.409 -0.004,-0.822 -0.004,-1.232 0,-2.12 -0.025,-2.181 -2.034,-1.36 -1.32,0.539 -2.561,1.276 -3.823,1.95 -0.463,0.25 -0.644,0.662 -0.642,1.226 0.021,4.931 0.012,9.862 0.015,14.793 0,0.322 -0.039,0.767 0.5,0.433 1.623,-1.003 3.423,-1.576 5.214,-2.164 0.569,-0.187 0.81,-0.455 0.777,-1.049 -0.035,-0.655 -0.029,-1.316 0.004,-1.972 0.038,-0.771 0.397,-1.208 0.94,-1.221 0.551,-0.016 0.933,0.422 0.986,1.176 0.03,0.409 0.006,0.821 0.011,1.232 0.017,1.034 0.016,1.019 0.997,0.851 1.74,-0.294 3.471,-0.649 5.223,-0.835 2.734,-0.29 5.48,-0.463 8.223,-0.682 0.284,-0.022 0.575,-0.028 0.862,-0.025 0.376,0.003 0.5,-0.208 0.501,-0.545 0,-0.534 -0.014,-1.069 0.012,-1.602 0.039,-0.849 0.407,-1.314 0.992,-1.298 0.576,0.017 0.905,0.479 0.945,1.348 0.016,0.328 0.001,0.658 0.004,0.986 0.014,1.085 0.015,1.082 1.051,1.127 0.984,0.045 1.969,0.089 2.954,0.145 3.651,0.208 7.274,0.656 10.855,1.414 0.922,0.196 0.923,0.183 0.951,-0.796 0.011,-0.411 0.002,-0.824 0.058,-1.229 0.071,-0.518 0.403,-0.803 0.93,-0.797 0.526,0.006 0.858,0.307 0.905,0.824 0.054,0.611 0.074,1.231 0.045,1.844 -0.031,0.629 0.202,0.924 0.817,1.155 1.684,0.632 3.335,1.353 4.984,2.074 0.457,0.201 0.583,0.089 0.572,-0.36 C -0.009,7.232 0,6.943 0,6.657 Z"
             style="fill:#03aeff;fill-opacity:1;fill-rule:evenodd;stroke:none"
             id="path855"
             inkscape:connector-curvature="0" /></g><g
           id="g857"
           transform="translate(687.5146,350.9649)"><path
             d="m 0,0 c -4.657,0.03 -9.273,0.441 -13.838,1.336 -2.659,0.522 -5.275,1.236 -7.712,2.462 -0.763,0.383 -1.508,0.849 -2.165,1.395 -1.948,1.617 -1.893,3.604 0.076,5.169 1.136,0.902 2.41,1.552 3.754,2.074 3.469,1.345 7.093,2.008 10.766,2.465 4.251,0.53 8.523,0.649 12.79,0.442 5.504,-0.268 10.963,-0.904 16.166,-2.899 1.308,-0.5 2.571,-1.095 3.648,-2.006 C 23.92,10.071 24.34,9.657 24.66,9.194 25.311,8.258 25.343,7.216 24.656,6.321 24.12,5.62 23.434,4.994 22.71,4.479 21.084,3.324 19.182,2.732 17.296,2.183 13.939,1.207 10.494,0.649 7.01,0.382 4.678,0.203 2.338,0.124 0,0"
             style="fill:#03aeff;fill-opacity:1;fill-rule:evenodd;stroke:none"
             id="path859"
             inkscape:connector-curvature="0" /></g><g
           id="g861"
           transform="translate(689.1689,321.4385)"><path
             d="m 0,0 c -7.335,0.016 -13.006,0.491 -18.551,2.008 -2.058,0.562 -4.095,1.221 -5.887,2.424 -0.637,0.428 -1.217,0.973 -1.737,1.544 -0.72,0.79 -0.672,1.811 -0.648,2.8 0.008,0.343 0.238,0.28 0.418,0.171 1.705,-1.019 3.566,-1.655 5.443,-2.252 0.415,-0.132 0.62,-0.356 0.608,-0.793 -0.005,-0.203 0.016,-0.411 0.053,-0.611 0.083,-0.458 0.375,-0.736 0.825,-0.79 0.461,-0.053 0.909,0.181 0.945,0.607 0.081,1.044 0.675,0.739 1.279,0.618 4.481,-0.895 9.006,-1.367 13.57,-1.473 0.618,-0.013 1.111,-0.021 1.192,-0.833 0.045,-0.437 0.46,-0.68 0.919,-0.649 0.453,0.032 0.824,0.296 0.845,0.751 0.037,0.741 0.509,0.707 1.022,0.725 4.766,0.151 9.504,0.575 14.167,1.619 0.471,0.105 0.605,0.002 0.71,-0.504 0.081,-0.392 0.067,-0.352 0.142,-0.585 0.087,-0.267 0.169,-0.6 0.77,-0.495 0.562,0.097 0.694,0.094 0.892,0.426 0.029,0.051 0.125,0.41 0.106,0.559 -0.143,1.192 0.521,1.409 1.403,1.729 1.498,0.541 2.946,1.225 4.404,1.875 0.422,0.189 0.53,0.136 0.579,-0.347 C 23.614,7.034 23.104,5.829 21.889,5.009 20.875,4.327 19.807,3.697 18.688,3.209 15.699,1.903 12.523,1.254 9.311,0.776 5.691,0.237 2.051,-0.021 0,0"
             style="fill:#03aeff;fill-opacity:1;fill-rule:evenodd;stroke:none"
             id="path863"
             inkscape:connector-curvature="0" /></g><g
           id="g865"
           transform="translate(683.1758,346.5025)"><path
             d="m 0,0 c -3.691,0.178 -7.354,0.594 -10.971,1.371 -0.239,0.051 -0.476,0.153 -0.717,0.165 -0.591,0.031 -0.714,0.358 -0.737,0.892 -0.085,2.023 -0.099,2.038 1.824,1.61 C -6.503,3.122 -2.345,2.739 1.843,2.6 2.169,2.589 2.498,2.573 2.827,2.581 3.253,2.591 3.364,2.371 3.399,1.976 3.592,-0.113 3.57,-0.149 1.476,-0.071 0.983,-0.053 0.491,-0.024 0,0"
             style="fill:#03aeff;fill-opacity:1;fill-rule:evenodd;stroke:none"
             id="path867"
             inkscape:connector-curvature="0" /></g><g
           id="g869"
           transform="translate(691.7539,346.398)"><path
             d="m 0,0 c -0.86,0 -1.722,0.018 -2.582,-0.008 -0.482,-0.015 -0.621,0.187 -0.657,0.646 -0.163,2.028 -0.176,2.01 1.833,2.078 4.31,0.144 8.586,0.597 12.795,1.574 0.159,0.037 0.319,0.075 0.479,0.113 0.45,0.109 0.722,-0.019 0.703,-0.532 -0.003,-0.082 0,-0.164 0.004,-0.246 C 12.649,1.816 12.646,1.834 10.851,1.443 7.274,0.666 3.648,0.297 0,0"
             style="fill:#03aeff;fill-opacity:1;fill-rule:evenodd;stroke:none"
             id="path871"
             inkscape:connector-curvature="0" /></g><g
           id="g873"
           transform="translate(662.2783,353.3594)"><path
             d="M 0,0 C 0.051,0.392 0.102,0.784 0.153,1.175 0.496,0.973 0.828,0.747 1.185,0.574 2.69,-0.151 4.188,-0.892 5.722,-1.557 6.281,-1.8 6.558,-2.056 6.546,-2.704 6.497,-5.028 6.702,-4.714 4.716,-4.004 3.567,-3.594 2.468,-3.025 1.394,-2.443 0.461,-1.939 -0.387,-1.304 0,0"
             style="fill:#03aeff;fill-opacity:1;fill-rule:evenodd;stroke:none"
             id="path875"
             inkscape:connector-curvature="0" /></g><g
           id="g877"
           transform="translate(706.2832,350.2774)"><path
             d="M 0,0 C -0.018,1.227 -0.018,1.227 1.168,1.655 2.787,2.241 4.333,2.966 5.728,3.993 6.215,4.352 6.305,4.291 6.348,3.679 6.499,1.579 6.415,1.327 4.491,0.328 3.267,-0.308 1.946,-0.761 0.674,-1.309 0.193,-1.515 -0.018,-1.375 -0.004,-0.858 0.006,-0.572 0,-0.285 0,0"
             style="fill:#03aeff;fill-opacity:1;fill-rule:evenodd;stroke:none"
             id="path879"
             inkscape:connector-curvature="0" /></g><g
           id="g881"
           transform="translate(878.7607,457.7969)"><path
             d="m 0,0 -1.184,-6.366 5.013,0.619 C 1.844,-3.927 0.566,-2.01 0,0 m -0.538,70.775 c 5.999,-5.141 8.84,-10.496 8.131,-18.677 -0.291,-3.373 -1.72,-6.6 -3.564,-9.244 -2.467,-3.547 -6.116,-5.873 -8.543,-9.468 -1.003,1.069 -1.44,1.112 -2.798,1.42 -0.934,-5.984 5.445,-7.675 6.176,-13.097 l 4.097,-1.594 c 4.94,-6.664 8.688,-14.288 12.94,-21.543 l 2.042,-7.53 c -0.588,-3.896 -1.009,-5.6 -2.749,-9.005 -4.887,-1.942 -8.752,-1.768 -13.922,-0.45 -0.349,-8.205 0.217,-15.547 0.791,-23.712 l -0.62,-0.534 c 0.207,-2.455 0.766,-4.406 1.873,-6.496 1.803,-5.815 3.599,-11.344 4.713,-17.343 2.196,-5.574 3.941,-10.773 5.491,-16.591 l -4.022,-1.156 c 0.207,-0.423 0.413,-0.853 0.628,-1.285 5.866,-8.019 7.169,-14.092 7.891,-24.325 0.967,-5.125 0.837,-7.713 1.789,-12.835 2.174,-4.223 7.259,-8.056 5.118,-13.096 -5.155,-0.695 -9.553,-1.684 -14.641,0.047 -0.603,4.47 0.308,9.615 -0.118,14.262 -1.355,6.197 -4.407,11.107 -7.078,16.798 -1.866,5.692 -3.158,11.678 -5.971,16.873 l -3.738,-0.814 -2.465,8.259 c -1.838,2.893 -4.017,5.559 -5.512,8.682 -1.176,2.459 -1.612,5.256 -2.42,7.884 -0.974,-8.784 -0.93,-15.428 0.026,-24.322 l -4.255,0.328 c 0.477,-3.858 1.689,-7.816 0.987,-11.727 -1.474,-8.231 -6.978,-20.814 -2.214,-28.162 0.05,-2.032 0.073,-4.035 0.019,-6.064 -2.271,-0.306 -4.36,-1.341 -6.253,0.281 l -5.5,-2.315 c -5.187,-0.93 -21.77,-2.999 -12.551,6.846 6.514,3.213 11.009,6.499 13.101,14.35 -0.362,9.286 0.026,18.547 -0.345,27.776 l -4.611,2.156 1.461,11.79 -0.649,12.338 c -0.341,7.513 0.386,13.604 1.59,21.32 l -4.128,2.364 c 0.726,8.943 2.051,16.841 3.978,25.479 0.058,4.244 0.252,8.423 0.5,12.651 -5.396,-2.981 -12.033,-10.552 -16.615,-3.139 -3.188,6.357 -6.093,13.983 -7.839,20.963 4.262,4.687 -1.929,5.751 -4.477,7.934 -2.3,1.719 -5.78,4.497 -7.391,7.485 -0.732,1.359 -1.687,2.429 -1.06,4.11 1.7,1.476 -1.084,4.828 2.142,3.957 2.086,-1.964 4.143,-3.399 6.481,-4.967 -0.802,1.329 -5.882,6.345 -4.766,7.287 3.049,2.569 9.79,-11.834 8.771,-4.276 -0.58,1.735 -1.903,4.354 0.646,4.131 1.794,-4.145 3.94,-7.007 5.152,-11.439 -0.357,-2.899 -0.36,-4.504 0.195,-7.389 1.951,-1.083 1.408,1.729 1.731,-0.669 1.304,-4.039 5.428,-12.141 8.346,-14.599 1.591,3.248 11.031,12.207 13.945,14.015 -1.648,2.937 -0.062,1.951 2.518,2.138 2.292,4.343 3.385,4.345 7.642,5.75 l 0.855,2.587 -4.058,0.35 c -3.635,1.239 -3.001,4.134 -4.448,7.715 -2.843,5.919 1.047,9.586 1.945,15.318 -0.032,3.839 1.011,6.732 2.429,10.215 l -2.424,0.121 c 3.997,6.218 8.206,12.296 15.185,6.319 3.979,-0.406 6.854,-2.393 10.42,-4.436"
             style="fill:#00acff;fill-opacity:1;fill-rule:evenodd;stroke:none"
             id="path883"
             inkscape:connector-curvature="0" /></g></g></g><text
       id="text835"
       style="font-variant:normal;font-weight:normal;font-stretch:normal;font-size:202.84460449px;font-family:Channel;-inkscape-font-specification:Channel;writing-mode:lr-tb;fill:#000000;fill-opacity:1;fill-rule:nonzero;stroke:none"
       transform="matrix(1,0,0,-1,473.3389,179.1367)"><tspan
         id="tspan833"
         sodipodi:role="line"
         y="0"
         x="0 90.063004 270.5947 412.58591 544.84058">tages</tspan></text>
</g></svg>