<?xml version="1.0" encoding="UTF-8" standalone="no"?>
<!-- Created with Inkscape (http://www.inkscape.org/) -->

<svg
   xmlns:dc="http://purl.org/dc/elements/1.1/"
   xmlns:cc="http://creativecommons.org/ns#"
   xmlns:rdf="http://www.w3.org/1999/02/22-rdf-syntax-ns#"
   xmlns:svg="http://www.w3.org/2000/svg"
   xmlns="http://www.w3.org/2000/svg"
   xmlns:sodipodi="http://sodipodi.sourceforge.net/DTD/sodipodi-0.dtd"
   xmlns:inkscape="http://www.inkscape.org/namespaces/inkscape"
   width="278.45737mm"
   height="132.7084mm"
   viewBox="0 0 278.45737 132.7084"
   version="1.1"
   id="svg4807"
   inkscape:version="0.92.3 (2405546, 2018-03-11)"
   sodipodi:docname="stages-logo-svg.svg">
  <defs
     id="defs4801">
    <clipPath
       clipPathUnits="userSpaceOnUse"
       id="clipPath831">
      <path
         d="M 0,696.738 H 1119.892 V 0 H 0 Z"
         id="path829"
         inkscape:connector-curvature="0" />
    </clipPath>
  </defs>
  <sodipodi:namedview
     id="base"
     pagecolor="#ffffff"
     bordercolor="#666666"
     borderopacity="1.0"
     inkscape:pageopacity="0.0"
     inkscape:pageshadow="2"
     inkscape:zoom="0.35"
     inkscape:cx="440.5044"
     inkscape:cy="-109.21247"
     inkscape:document-units="mm"
     inkscape:current-layer="layer1"
     showgrid="false"
     fit-margin-top="0"
     fit-margin-left="0"
     fit-margin-right="0"
     fit-margin-bottom="0"
     inkscape:window-width="1920"
     inkscape:window-height="1001"
     inkscape:window-x="-9"
     inkscape:window-y="-9"
     inkscape:window-maximized="1" />
  <metadata
     id="metadata4804">
    <rdf:RDF>
      <cc:Work
         rdf:about="">
        <dc:format>image/svg+xml</dc:format>
        <dc:type
           rdf:resource="http://purl.org/dc/dcmitype/StillImage" />
        <dc:title />
      </cc:Work>
    </rdf:RDF>
  </metadata>
  <g
     inkscape:label="Layer 1"
     inkscape:groupmode="layer"
     id="layer1"
     transform="translate(265.47274,12.770867)">
    <g
       clip-path="url(#clipPath831)"
       id="g827"
       style="display:inline"
       transform="matrix(0.26458333,0,0,-0.26458333,-277.09699,141.81707)"
       inkscape:label="Children">
      <g
         id="g948"
         inkscape:label="g948"
         style="display:inline">
        <g
           id="g837"
           transform="translate(678.9199,373.0714)">
          <path
             d="M 0,0 C 0.937,1.67 1.929,3.327 2.673,5.084 2.992,5.836 2.777,6.827 2.752,7.707 2.721,8.786 2.315,9.029 1.235,8.578 -0.08,8.025 -1.138,7.238 -1.861,6.053 -2.79,4.537 -4.15,3.898 -5.85,3.913 c -2.702,0.022 -4.744,-1.07 -7.433,-0.876 -3.62,0.264 -7.223,0.718 -10.495,-1.439 -0.181,-0.12 -0.415,-0.192 -0.634,-0.221 -4.709,-0.627 -10.055,-0.606 -14.851,10e-4 -0.287,0.037 -0.558,0.171 -0.838,0.26 0.307,0.128 0.628,0.232 0.917,0.392 0.678,0.375 1.348,0.766 2.008,1.172 0.741,0.454 1.415,1.06 2.207,1.366 1.061,0.409 1,0.978 0.657,1.845 -0.824,2.082 -0.887,2.361 1,2.99 2.445,0.816 2.41,3.415 3.976,4.807 0.153,0.136 -0.167,1.067 -0.491,1.423 -1.129,1.241 -2.149,2.371 -0.735,4.116 0.274,0.34 -0.182,1.202 -0.136,1.812 0.156,2.126 0.347,4.252 0.598,6.37 0.263,2.226 -0.179,4.203 -1.448,6.102 -3.364,5.03 -7.813,8.355 -13.843,9.516 -1.476,0.738 -1.791,1.105 -5.68,1.699 -5.21,0.432 -8.798,-1.045 -8.798,-1.045 -2.597,-1.693 -5.147,-3.468 -7.809,-5.051 -2.107,-1.255 -3.443,-3.144 -3.869,-5.351 -0.616,-3.181 -0.864,-6.466 -0.934,-9.713 -0.062,-2.994 1.04,-5.743 2.796,-8.199 0.46,-0.641 0.915,-1.292 1.309,-1.974 0.857,-1.489 0.648,-2.606 -0.721,-3.491 -6.418,-4.148 -12.485,-8.863 -19.456,-12.121 -1.378,-0.644 -2.578,-1.892 -4.331,-1.332 -0.097,0.032 -0.233,0 -0.332,-0.045 -5.718,-2.652 -11.788,-4.806 -15.475,-10.434 -0.793,-1.211 -1.478,-2.568 -1.865,-3.953 -0.941,-3.357 -1.679,-6.77 -2.501,-10.161 -0.077,-0.32 -0.167,-0.639 -0.251,-0.959 -0.356,0.255 -0.788,0.451 -1.052,0.78 -0.424,0.524 -0.676,1.187 -1.11,1.699 -1.553,1.843 -3.402,1.724 -4.623,-0.396 -0.669,-1.161 -1.084,-2.48 -1.534,-3.755 -0.794,-2.235 -1.638,-4.426 -3.492,-6.041 l 0.642,-5.415 c 1.648,-0.687 2.417,-2.163 3.294,-3.572 0.321,-0.515 1.201,-1.314 1.303,-1.241 1.71,1.202 2.15,-0.325 2.782,-1.261 1.181,-1.75 2.801,-2.875 4.698,-3.738 2.233,-1.019 4.371,-0.931 6.501,0.197 1.678,0.889 3.158,2.095 5.182,2.376 1.028,0.143 1.976,0.969 2.279,2.27 0.357,1.528 0.946,3.001 1.383,4.513 0.351,1.21 0.754,1.459 1.915,0.9 1.324,-0.637 2.561,-1.472 3.919,-2.011 2.715,-1.077 5.47,-2.06 8.241,-2.988 2.025,-0.679 4.074,-0.512 5.838,0.707 1.286,0.888 1.893,0.525 2.728,-0.606 1.923,-2.609 4.717,-3.394 7.813,-3.119 1.517,0.134 2.832,0.093 4.136,-0.926 1.113,-0.868 1.422,-0.626 2.01,0.876 0.555,1.408 1.82,2.091 3.487,1.776 0.66,-0.123 1.271,-0.513 1.931,-0.636 0.358,-0.065 1.113,0.186 1.111,0.281 -0.055,2.362 1.225,0.956 2.071,0.764 1.274,-0.29 2.248,0.594 1.996,1.869 -0.282,1.424 -1.079,2.466 -2.49,2.961 -2.27,0.795 -4.619,0.966 -6.997,0.814 -3.667,-0.235 -3.799,-0.313 -5.553,2.915 -1.004,1.85 -1.54,3.965 -2.164,5.999 -0.093,0.302 0.408,1.043 0.787,1.195 3.92,1.564 6.678,4.559 9.492,7.502 0.623,0.653 1.286,1.271 1.973,1.857 3.18,2.708 6.431,5.336 9.542,8.118 1.858,1.659 4.041,2.366 6.371,2.903 3.837,0.883 7.648,0.298 11.449,-0.2 1.748,-0.229 3.317,-0.122 4.904,0.723 1.056,0.561 2.236,0.713 3.521,0.763 1.866,0.072 4.861,2.167 6.705,2.671 0.757,0.206 1.534,0.419 2.224,0.78 C -7.185,-4.753 -0.719,-1.282 0,0"
             style="fill:#00acff;fill-opacity:1;fill-rule:evenodd;stroke:none"
             id="path839"
             inkscape:connector-curvature="0" />
        </g>
        <g
           id="g841"
           transform="translate(766.3076,449.626)">
          <path
             d="m 0,0 c -0.288,0.174 1.33,2.37 1.504,2.892 0.172,0.52 0.578,1.098 0.578,1.098 0,0 0,-0.925 -0.636,-1.908 C 0.812,1.1 0.29,-0.173 0,0 m -25.442,5.493 c -0.059,0.463 0,1.908 0,1.908 0,0 0.462,-2.197 0.634,-2.659 0.174,-0.463 0.522,-1.33 0.522,-1.33 0,0 -1.1,1.619 -1.156,2.081 m 0.867,-4.741 c -0.349,0.52 -0.579,1.33 -0.579,1.33 l -0.057,0.693 c 0.114,-0.173 0.519,-1.04 0.751,-1.329 0.231,-0.289 0.231,-1.215 -0.115,-0.694 M 3.238,7.344 C 3.065,9.194 3.47,9.426 3.47,9.426 3.47,9.426 3.76,7.17 3.527,6.477 3.419,6.148 3.283,5.794 3.171,5.512 3.075,5.115 2.95,4.973 2.95,4.973 c 0,0 0.097,0.225 0.221,0.539 0.089,0.365 0.152,0.946 0.067,1.832 m 27.835,-60.449 c -1.977,1.567 -10.039,8.023 -11.42,8.807 -1.38,0.784 -1.813,0.771 -3.101,2.409 -1.287,1.639 -5.852,3.394 -6.32,3.863 -0.468,0.467 -0.468,7.724 -0.468,8.7 0,0.975 -1.015,7.256 -1.13,9.168 -0.118,1.911 0.233,3.706 0.389,4.253 0.156,0.546 0.078,1.677 0.936,4.057 0.857,2.38 4.214,7.022 5.189,8.427 0.976,1.404 3.588,5.813 4.213,7.179 0.624,1.365 1.452,2.792 1.923,3.5 0.472,0.706 1.441,5.943 1.441,6.205 0,0.262 0.445,0.969 0.471,1.492 0.027,0.524 -0.315,1.127 -0.393,1.388 -0.078,0.261 -0.051,5.185 -0.025,5.552 0.025,0.366 0.601,0.157 1.151,0.183 0.55,0.026 1.048,0.995 1.048,1.571 0,0.576 -0.576,0.628 -0.865,0.786 -0.288,0.156 0.446,0.549 0.996,0.917 0.549,0.366 1.754,1.204 2.199,1.57 0.445,0.367 0.681,0.288 0.839,0.55 0.156,0.262 -0.394,0.628 -0.892,0.628 -0.497,0 -2.226,-0.837 -3.063,-1.125 -0.838,-0.288 -1.31,0.261 -2.225,0.471 C 21.049,27.655 20.29,27.314 19.661,27.131 19.033,26.948 17.068,27 15.759,26.791 14.45,26.582 13.142,25.456 12.354,24.984 11.568,24.513 11.098,24.513 10.364,24.199 9.632,23.885 9.346,23.256 9.501,22.837 c 0.157,-0.419 0.602,-0.262 0.916,-0.235 0.314,0.025 0.654,0.104 1.493,0.157 0.837,0.052 1.282,0.235 1.519,0.314 0.234,0.078 0.785,0 1.466,-0.079 0.681,-0.078 0.786,-0.209 1.021,-0.366 0.235,-0.158 -0.209,-3.3 -0.209,-3.692 0,-0.393 -0.209,-0.472 -0.523,-0.865 -0.314,-0.392 -0.236,-1.23 -0.236,-1.937 0,-0.707 -0.314,-1.597 -0.76,-2.488 -0.446,-0.89 -0.811,-1.938 -1.099,-3.352 C 12.8,8.88 12.329,8.042 12.251,7.78 12.172,7.519 11.753,7.649 11.361,7.571 10.969,7.493 11.098,7.1 11.098,6.838 11.098,6.576 10.679,6.576 10.156,6.55 9.632,6.524 9.764,6.393 9.764,5.921 9.764,5.45 9.789,5.477 9.396,4.979 9.003,4.48 8.925,4.534 8.585,4.534 8.243,4.534 8.087,4.376 7.983,3.801 7.878,3.225 7.616,3.303 7.379,3.303 7.144,3.303 6.698,3.25 6.437,2.779 6.176,2.308 6.412,2.203 5.495,1.522 4.578,0.842 4.918,0.842 4.841,0.475 4.761,0.107 4.499,0.239 4.107,0.344 3.715,0.448 4.002,0.004 3.504,-0.494 3.007,-0.992 1.959,-1.489 1.724,-1.804 1.488,-2.118 0.127,-0.285 0.127,-0.285 c 0,0 2.476,3.408 2.765,3.639 0.29,0.231 1.446,2.371 1.735,3.701 0.288,1.33 -0.347,4.453 -0.811,6.707 -0.462,2.256 -0.751,4.685 -1.56,7.634 -0.81,2.949 -3.933,5.608 -5.147,6.361 -1.214,0.751 -2.717,1.677 -3.18,2.37 -0.463,0.694 -2.082,0.983 -4.916,1.157 -2.832,0.174 -5.147,-0.578 -6.881,-1.618 -1.734,-1.042 -3.758,-3.297 -4.336,-4.338 -0.579,-1.041 -1.389,-2.255 -2.544,-4.8 -1.158,-2.544 -0.753,-3.874 -0.694,-4.857 0.056,-0.983 -0.406,-1.562 -1.158,-2.545 -0.752,-0.982 -0.462,-1.561 -0.405,-1.966 0.059,-0.405 0.348,0.405 0.522,0.81 0.172,0.405 0.114,-3.354 0.114,-5.493 0,-2.14 0.058,-3.47 0.579,-4.569 0.52,-1.099 0.348,-1.041 0.579,-1.387 C -24.98,0.174 -24.46,0 -24.46,0 c 0,0 0.174,-0.173 0.174,0 0,0.174 0.403,-0.925 0.519,-1.214 0.118,-0.289 0.409,-0.764 0.681,-1.193 0.274,-0.429 -1.287,0.195 -2.028,0.585 -0.741,0.39 -1.6,1.287 -2.223,2.225 -0.624,0.935 -1.132,1.013 -1.444,1.013 -0.313,0 -0.391,0.079 -0.937,0.741 -0.546,0.664 -0.897,0.976 -1.559,1.562 -0.664,0.585 -0.939,0.858 -1.25,1.521 -0.312,0.663 -0.545,1.092 -1.093,1.131 -0.546,0.039 -0.428,0.351 -0.623,0.702 -0.195,0.351 -0.78,0.663 -1.171,1.094 -0.39,0.428 -1.639,2.457 -2.77,3.588 -1.131,1.132 -2.965,3.277 -4.253,5.15 -1.288,1.872 -2.653,4.408 -2.926,4.292 -0.273,-0.117 -1.247,1.325 -2.184,2.847 -0.936,1.522 -3.355,4.136 -4.057,4.76 -0.703,0.624 -3.161,1.288 -4.136,1.365 -0.975,0.078 -2.497,-0.35 -3.159,-0.39 -0.664,-0.039 -1.131,0.429 -1.484,0.663 -0.35,0.234 -2.534,1.21 -3.511,1.64 -0.975,0.429 -1.522,-0.313 -1.522,-0.625 0,-0.312 1.443,-0.897 2.458,-1.6 1.016,-0.702 1.561,-1.327 1.601,-1.716 0.038,-0.391 -1.054,-0.624 -2.146,-0.975 -1.095,-0.352 -2.146,-0.625 -3.356,-0.937 -1.209,-0.312 -1.638,-0.429 -1.482,-1.014 0.155,-0.585 1.717,-0.274 2.847,-0.274 1.133,0 0.896,-0.506 0.937,-0.74 0.038,-0.235 -2.653,-0.352 -3.082,-0.43 -0.429,-0.078 -0.195,-0.781 -0.078,-1.014 0.117,-0.235 1.093,-0.312 1.483,-0.429 0.389,-0.117 2.458,-0.078 3.122,-0.04 0.661,0.04 0.779,0.196 1.287,0.196 0.506,0 1.092,0.078 1.716,0.273 0.624,0.195 1.522,1.092 1.911,1.248 0.39,0.157 2.808,0.078 3.59,0.039 0.78,-0.039 1.131,-1.21 1.754,-2.418 0.625,-1.21 1.445,-3.785 1.562,-4.058 0.116,-0.273 -0.546,-0.351 -0.429,-0.702 0.117,-0.351 2.263,-4.097 3.12,-5.657 0.859,-1.561 3.122,-4.643 4.292,-6.125 1.17,-1.483 1.951,-2.653 2.185,-3.161 0.234,-0.507 2.262,-3.12 3.785,-5.189 1.521,-2.067 2.964,-3.003 3.198,-3.706 0.234,-0.702 1.483,-1.677 2.497,-2.496 1.014,-0.82 2.77,-2.692 5.423,-6.554 2.653,-3.863 5.501,-12.68 6.242,-14.514 0.741,-1.833 1.443,-5.735 1.483,-6.944 0.039,-1.209 -2.381,-1.366 -3.316,-1.366 -0.938,0 -1.638,-1.013 -3.043,-2.262 -1.405,-1.248 -3.787,-2.614 -5.618,-3.98 -1.834,-1.365 -3.121,-2.731 -3.902,-4.096 -0.78,-1.365 -2.921,-4.606 -3.404,-5.342 -0.483,-0.737 -0.787,-0.965 -0.762,-1.295 0.024,-0.33 -0.253,-0.483 -0.584,-0.888 -0.33,-0.407 -1.473,-0.61 -2.488,-1.575 -1.015,-0.966 -0.889,-1.727 -0.991,-1.955 -0.102,-0.229 4.342,0.355 4.723,0.304 0.381,-0.05 -2.718,-3.479 -2.971,-3.784 -0.254,-0.303 0.991,-1.167 1.244,-1.446 0.254,-0.279 0.533,-0.178 1.575,-0.152 1.042,0.025 3.579,-0.483 3.784,-0.585 0.202,-0.102 -0.128,-1.015 -0.128,-1.269 0,-0.254 0.965,-0.33 1.271,-0.534 0.303,-0.203 0.126,-0.711 0.431,-0.964 0.305,-0.255 0.635,-0.178 0.837,0.025 0.203,0.203 3.886,-1.676 4.901,-1.981 1.016,-0.304 1.422,-1.27 1.957,-1.625 0.532,-0.355 0.828,0.307 1.121,0.208 0.26,-0.089 0.319,-0.543 0.521,-0.543 0.203,0 0.488,0.078 0.718,-0.125 0.228,-0.202 0.304,-1.317 0.559,-2.968 0.254,-1.651 0.305,-5.942 0.354,-7.871 0.053,-1.93 -0.532,-4.317 -1.091,-6.983 -0.558,-2.667 -1.066,-8.355 -1.014,-11.224 0.049,-2.869 0.405,-7.719 0.329,-8.024 -0.077,-0.304 -0.558,-0.431 -0.913,-1.066 -0.356,-0.635 -0.255,-4.469 -0.332,-5.13 -0.075,-0.66 0.051,-1.447 0.483,-1.675 0.433,-0.229 0.508,-0.61 0.508,-1.245 0,-0.634 -0.407,-2.107 -0.787,-3.148 -0.381,-1.041 -0.559,-1.32 -1.245,-2.59 -0.685,-1.27 -0.304,-2.819 0.026,-3.352 0.33,-0.533 7.135,-0.558 9.191,-0.356 2.057,0.203 1.677,2.768 1.753,4.19 0.075,1.423 0.278,1.499 0.609,2.235 0.33,0.736 0.025,2.508 0.025,2.977 0,0.467 0.154,1.248 0.78,1.404 0.623,0.156 0.312,4.993 0.312,6.086 0,1.092 -0.703,1.483 -1.015,1.716 -0.311,0.235 0.468,4.214 0.936,5.931 0.468,1.716 1.171,5.072 1.404,6.944 0.235,1.873 0.937,5.696 1.717,7.1 0.781,1.405 1.561,4.058 1.872,5.931 0.313,1.872 1.014,6.008 1.172,8.037 0.117,1.521 0.113,2.821 0.492,3.235 0.127,0.138 0.64,-0.017 0.756,-0.036 0.469,-0.078 0,-2.497 0.079,-3.901 0.077,-1.405 -0.547,-4.292 -1.016,-6.32 -0.469,-2.03 -0.024,-3.877 0.349,-5.183 0.374,-1.306 -0.037,-6.419 -0.074,-8.845 -0.037,-2.425 0.672,-8.806 0.746,-9.477 0.075,-0.673 -0.225,-0.598 -0.859,-0.747 -0.633,-0.15 -0.446,-0.971 -0.446,-2.015 0,-1.046 0,-2.239 -0.225,-2.724 -0.222,-0.485 0,-0.859 0.524,-1.232 0.52,-0.374 0.52,-0.821 0.781,-1.642 0.262,-0.821 0.037,-2.873 -0.036,-3.881 -0.042,-0.57 -0.202,-2.356 -0.075,-3.829 0.097,-1.127 -0.153,-2.236 1.418,-3.186 0.825,-0.498 2.127,-0.261 2.575,-0.261 0.448,0 0.56,-0.486 1.194,-1.008 0.634,-0.522 6.68,-0.373 8.769,-0.15 2.091,0.224 1.382,2.277 0.149,3.733 -1.231,1.455 -2.723,3.395 -3.805,4.514 -1.083,1.12 -0.821,1.344 -0.821,1.755 v 2.649 c 0,0.447 0.56,0.373 1.007,0.41 0.447,0.039 0.225,1.531 0.112,1.942 -0.112,0.409 0.335,1.939 0.634,3.208 0.299,1.269 -0.185,1.381 -0.634,1.642 -0.448,0.262 0,1.68 0.412,4.217 0.409,2.537 0.894,11.308 0.894,14.405 0,3.097 0.523,4.366 0.933,6.306 0.411,1.941 3.546,9.852 3.769,10.524 0.224,0.67 3.06,0.67 3.956,0.858 0.896,0.186 1.119,1.381 1.53,1.754 0.412,0.373 1.119,-1.866 1.344,-2.314 0.222,-0.448 3.171,1.232 3.844,1.493 0.671,0.26 0.372,0 0.522,-0.224 0.149,-0.224 1.006,0.298 2.948,0.895 1.94,0.597 1.231,0.56 1.231,0.896 0,0.337 0.746,0.373 1.568,0.448 0.82,0.074 0.932,0.709 1.38,0.783 0.449,0.075 0.374,1.232 0.335,1.792 -0.037,0.559 3.434,3.172 4.74,4.851 1.306,1.679 0.747,2.761 0.412,3.247 -0.337,0.484 0.148,0.783 0.596,1.306 0.447,0.522 -0.972,1.231 -2.948,2.798"
             style="fill:#00acff;fill-opacity:1;fill-rule:nonzero;stroke:none"
             id="path843"
             inkscape:connector-curvature="0" />
        </g>
        <g
           id="g845"
           transform="translate(971.4492,572.8526)">
          <path
             d="m 0,0 c -0.536,0.804 -1.874,-0.444 -1.874,-0.444 0,0 0.713,-1.337 1.159,-1.337 0.444,0 1.247,0.982 0.715,1.781 m -17.289,-91.696 c 0.18,-3.385 1.335,-7.929 1.335,-7.929 0,0 -0.177,4.632 0.447,7.575 0.625,2.937 0.625,5.435 0.625,5.435 l -2.584,1.246 c 0,0 0,-2.94 0.177,-6.327 m -15.407,63.637 c 0,0 -1.304,1.161 -1.304,1.862 0,0.702 0.493,1.478 0.493,1.864 0,0.387 -0.702,1.435 -0.702,1.435 l -1.041,-1.951 -0.78,-3.635 z m 43.574,-0.297 c 0,0 1.43,-1.166 2.467,-2.337 1.042,-1.171 2.991,-3.637 5.72,-11.693 2.727,-8.057 1.556,-29.496 1.556,-30.666 0,-1.17 2.209,-3.25 4.809,-5.849 2.599,-2.595 4.678,-7.145 6.496,-9.744 1.819,-2.598 2.598,-8.575 6.369,-17.279 3.767,-8.707 13.251,-29.888 14.03,-32.874 0.779,-2.992 -7.014,-4.68 -7.925,-5.719 -0.911,-1.039 0.388,-1.69 -2.726,-2.21 -3.12,-0.518 -15.595,-7.664 -15.595,-7.664 0,0 -1.82,-3.77 -3.12,-8.059 -1.299,-4.285 -2.338,-13.379 -1.95,-16.888 0.392,-3.51 4.55,-5.328 10.917,-15.462 6.369,-10.135 7.148,-24.297 8.706,-28.458 1.561,-4.159 2.857,-5.064 3.248,-5.974 0.393,-0.911 0.393,-3.507 0.78,-4.679 0.39,-1.17 5.586,-7.277 5.198,-8.577 -0.39,-1.299 -4.028,-4.937 -8.448,-7.924 -4.414,-2.989 -11.043,-1.69 -14.681,-1.69 -3.636,0 -2.986,3.377 -0.39,5.07 2.598,1.687 6.369,10.78 6.369,12.6 0,1.821 -1.82,5.719 -3.899,12.736 -2.08,7.015 -16.113,25.076 -18.452,28.716 -2.336,3.637 -5.587,5.974 -7.406,10.78 -1.817,4.812 0.65,20.401 0.65,20.401 l -3.509,0.912 c 0,0 -0.649,-8.663 -1.686,-12.475 -1.042,-3.81 1.166,-13.512 3.895,-26.117 2.728,-12.604 3.25,-32.094 3.378,-34.562 0.13,-2.469 1.691,-5.588 2.209,-7.796 0.52,-2.208 1.171,-3.766 0.911,-6.237 -0.263,-2.466 -4.941,-2.729 -8.576,-2.859 -3.638,-0.129 -12.215,-0.648 -15.331,-0.908 -3.121,-0.261 -4.421,1.687 -3.25,2.859 1.17,1.169 4.548,2.466 5.328,3.117 0.779,0.649 8.444,7.668 8.966,8.317 0.52,0.651 -5.067,16.501 -8.578,28.194 -3.506,11.694 -5.325,21.832 -5.458,25.076 -0.129,3.25 -1.167,13.514 -1.167,16.764 0,3.25 -1.429,12.345 -3.377,18.579 -1.95,6.239 -3.122,18.193 -3.122,18.193 0,0 -4.935,0.651 -8.313,1.946 -3.379,1.301 -11.823,11.306 -14.423,17.672 -2.6,6.369 -11.435,62.238 -11.044,66.138 0.387,3.899 1.038,5.456 3.249,7.795 2.207,2.34 6.495,6.106 6.495,6.106 0,0 -0.391,2.213 -0.391,3.508 0,1.301 0.782,0.783 0.782,0.783 0,0 0.517,0.518 0.517,1.166 0,0.651 0.78,0.263 0.78,0.263 0,0 1.299,0.909 1.299,1.558 0,0.65 0.78,1.299 0.78,1.299 0,0 0.782,0.651 1.04,1.3 0.259,0.65 1.3,0.517 1.3,0.517 0,0 0.65,1.3 0.908,1.821 0.264,0.52 4.028,-1.299 4.028,-1.299 l 2.208,1.299 2.472,-1.17 c 0,0 0.908,0.52 0.908,1.17 0,0.65 -1.429,0.908 -1.688,1.299 -0.262,0.393 0,2.208 0,2.208 0,0 -1.82,1.042 -2.342,1.821 -0.517,0.779 3.25,5.328 3.512,6.235 0.259,0.909 0,2.86 -0.911,4.289 -0.91,1.428 -1.171,4.29 1.17,7.664 2.337,3.379 7.015,5.33 14.943,6.629 7.923,1.299 15.981,-6.756 15.981,-6.756 0,0 2.987,2.469 6.758,0.127 3.769,-2.336 3.636,-3.636 6.235,-14.288 2.599,-10.658 0.779,-17.022 0.779,-17.022 0,0 0,3.245 -1.037,7.923 -1.011,4.532 -2.259,7.602 -2.337,7.788 z M -55.34,-71.913 c 0.8,-2.673 1.694,-10.96 2.764,-15.862 1.069,-4.902 3.386,-17.735 4.989,-21.297 1.605,-3.565 8.288,-15.595 12.385,-17.376 4.099,-1.786 9.983,-2.585 9.983,-2.585 0,0 1.603,8.912 1.603,12.474 0,3.566 0.535,9.445 0.535,9.445 0,0 -4.901,12.478 -5.88,18.534 -0.982,6.063 -1.872,11.052 -2.408,13.903 -0.533,2.854 -4.545,16.396 -4.811,17.644 -0.269,1.251 -8.379,15.774 -8.821,17.291 -0.447,1.513 -2.051,2.403 -2.143,2.85 -0.086,0.445 -0.889,1.96 -0.889,1.96 0,0 -2.319,-3.208 -4.634,-4.723 -2.317,-1.512 -5.88,-2.942 -5.88,-4.276 0,-1.338 2.403,-25.309 3.207,-27.982"
             style="fill:#00acff;fill-opacity:1;fill-rule:nonzero;stroke:none"
             id="path847"
             inkscape:connector-curvature="0" />
        </g>
        <g
           id="g849"
           transform="translate(706.2832,350.2774)">
          <path
             d="M 0,0 C 0,-0.285 0.006,-0.572 -0.004,-0.858 -0.018,-1.375 0.193,-1.515 0.674,-1.309 1.946,-0.761 3.267,-0.308 4.491,0.328 6.415,1.327 6.499,1.579 6.348,3.679 6.305,4.291 6.215,4.352 5.728,3.993 4.333,2.966 2.787,2.241 1.168,1.655 -0.018,1.227 -0.018,1.227 0,0 m -44.005,3.082 c -0.387,-1.304 0.461,-1.939 1.394,-2.443 1.074,-0.582 2.173,-1.151 3.322,-1.561 1.986,-0.71 1.781,-1.024 1.83,1.3 0.012,0.648 -0.265,0.904 -0.824,1.147 -1.533,0.665 -3.031,1.406 -4.537,2.131 -0.357,0.173 -0.689,0.399 -1.032,0.601 -0.051,-0.391 -0.102,-0.783 -0.153,-1.175 m 29.476,-6.961 c 3.648,0.297 7.274,0.666 10.85,1.443 1.795,0.391 1.799,0.373 1.725,2.181 -0.004,0.083 -0.007,0.165 -0.004,0.246 0.019,0.513 -0.253,0.641 -0.703,0.533 -0.16,-0.039 -0.32,-0.077 -0.48,-0.113 -4.209,-0.977 -8.484,-1.43 -12.795,-1.574 -2.008,-0.068 -1.996,-0.051 -1.833,-2.078 0.037,-0.459 0.175,-0.661 0.658,-0.647 0.86,0.026 1.721,0.009 2.582,0.009 m -8.578,0.104 c 0.491,-0.024 0.983,-0.053 1.475,-0.071 2.095,-0.078 2.116,-0.042 1.924,2.047 -0.035,0.395 -0.146,0.615 -0.572,0.605 -0.329,-0.008 -0.658,0.008 -0.985,0.019 -4.187,0.139 -8.345,0.522 -12.443,1.438 -1.924,0.428 -1.909,0.413 -1.824,-1.61 0.022,-0.534 0.145,-0.861 0.736,-0.892 0.241,-0.012 0.479,-0.114 0.718,-0.165 3.616,-0.777 7.279,-1.193 10.971,-1.371 m 5.993,-25.064 c 2.051,-0.021 5.691,0.237 9.31,0.777 3.213,0.477 6.389,1.126 9.378,2.432 1.118,0.488 2.187,1.118 3.2,1.8 1.216,0.82 1.726,2.025 1.58,3.515 -0.048,0.483 -0.156,0.536 -0.579,0.347 -1.458,-0.65 -2.905,-1.334 -4.403,-1.875 -0.883,-0.32 -1.623,-0.579 -1.403,-1.729 0.027,-0.147 -0.015,-0.38 -0.115,-0.464 -0.266,-0.218 -0.575,-0.5 -0.883,-0.521 -0.248,-0.018 -0.556,0.274 -0.77,0.495 -0.121,0.127 -0.139,0.385 -0.142,0.585 -0.007,0.517 -0.24,0.609 -0.71,0.504 -4.663,-1.044 -9.401,-1.468 -14.167,-1.619 -0.513,-0.017 -0.986,0.016 -1.022,-0.724 -0.021,-0.455 -0.392,-0.72 -0.846,-0.751 -0.459,-0.032 -0.874,0.212 -0.918,0.649 -0.082,0.812 -0.575,0.819 -1.192,0.833 -4.564,0.106 -9.09,0.577 -13.57,1.472 -0.605,0.121 -1.198,0.426 -1.28,-0.618 -0.036,-0.426 -0.483,-0.66 -0.944,-0.606 -0.45,0.053 -0.742,0.331 -0.825,0.789 -0.037,0.2 -0.059,0.408 -0.054,0.611 0.013,0.437 -0.192,0.661 -0.607,0.793 -1.877,0.597 -3.738,1.233 -5.444,2.252 -0.179,0.109 -0.41,0.172 -0.418,-0.171 -0.023,-0.989 -0.071,-2.01 0.649,-2.8 0.519,-0.571 1.1,-1.116 1.736,-1.544 1.793,-1.203 3.829,-1.862 5.888,-2.424 5.545,-1.517 11.216,-1.992 18.551,-2.008 m -1.655,29.526 c 2.338,0.125 4.678,0.204 7.01,0.382 3.485,0.268 6.93,0.826 10.286,1.802 1.886,0.549 3.788,1.14 5.414,2.296 0.724,0.514 1.411,1.141 1.947,1.842 0.686,0.894 0.654,1.936 0.004,2.873 -0.321,0.463 -0.741,0.876 -1.175,1.243 -1.077,0.912 -2.341,1.506 -3.649,2.007 -5.203,1.994 -10.662,2.631 -16.166,2.898 -4.266,0.207 -8.539,0.089 -12.79,-0.441 -3.673,-0.457 -7.297,-1.12 -10.765,-2.465 -1.344,-0.522 -2.618,-1.173 -3.754,-2.074 -1.97,-1.565 -2.025,-3.553 -0.076,-5.17 0.657,-0.546 1.401,-1.011 2.165,-1.395 2.436,-1.225 5.052,-1.939 7.712,-2.461 4.564,-0.895 9.18,-1.306 13.837,-1.337 M 6.36,-9.091 v 6.657 c 0,0.287 -0.008,0.576 -0.002,0.862 0.011,0.449 -0.115,0.561 -0.572,0.361 -1.648,-0.722 -3.3,-1.443 -4.983,-2.075 -0.616,-0.231 -0.849,-0.526 -0.818,-1.155 0.03,-0.613 0.009,-1.233 -0.045,-1.844 -0.046,-0.517 -0.378,-0.818 -0.905,-0.824 -0.526,-0.006 -0.858,0.279 -0.93,0.797 -0.055,0.405 -0.046,0.818 -0.058,1.229 -0.027,0.979 -0.028,0.992 -0.95,0.796 -3.581,-0.757 -7.204,-1.206 -10.856,-1.414 -0.985,-0.056 -1.97,-0.1 -2.954,-0.145 -1.036,-0.045 -1.037,-0.042 -1.051,-1.127 -0.003,-0.328 0.012,-0.657 -0.004,-0.985 -0.04,-0.87 -0.369,-1.332 -0.945,-1.349 -0.585,-0.016 -0.953,0.449 -0.992,1.298 -0.025,0.533 -0.012,1.068 -0.012,1.602 -0.001,0.337 -0.125,0.548 -0.501,0.545 -0.287,-0.003 -0.578,0.003 -0.862,0.025 -2.742,0.219 -5.488,0.392 -8.223,0.682 -1.752,0.186 -3.483,0.541 -5.222,0.836 -0.982,0.168 -0.981,0.182 -0.997,-0.852 -0.005,-0.411 0.018,-0.823 -0.011,-1.232 -0.054,-0.754 -0.436,-1.192 -0.987,-1.176 -0.543,0.013 -0.902,0.451 -0.94,1.222 -0.032,0.655 -0.039,1.316 -0.004,1.971 0.033,0.594 -0.208,0.863 -0.776,1.05 -1.791,0.587 -3.592,1.16 -5.215,2.163 -0.539,0.335 -0.5,-0.111 -0.5,-0.433 -0.003,-4.931 0.007,-9.862 -0.015,-14.792 -0.002,-0.565 0.179,-0.977 0.643,-1.227 1.262,-0.674 2.503,-1.411 3.822,-1.95 2.009,-0.821 2.034,-0.759 2.034,1.36 0,0.41 -0.008,0.823 0.004,1.233 0.009,0.244 0.03,0.493 0.09,0.73 0.109,0.45 0.434,0.724 0.882,0.725 0.445,0 0.778,-0.264 0.882,-0.718 0.063,-0.276 0.082,-0.569 0.087,-0.854 0.01,-0.862 0.001,-1.726 0.005,-2.588 0.007,-1.158 10e-4,-1.217 1.169,-1.401 2.916,-0.46 5.837,-0.91 8.769,-1.262 1.626,-0.196 3.278,-0.203 4.92,-0.264 0.922,-0.036 0.933,-0.009 0.947,0.947 0.015,0.904 0,1.809 0.004,2.712 0.004,0.287 0.01,0.577 0.049,0.859 0.068,0.516 0.389,0.832 0.899,0.846 0.511,0.013 0.854,-0.284 0.939,-0.797 0.054,-0.322 0.056,-0.654 0.059,-0.981 0.008,-0.945 0.024,-1.891 -0.003,-2.835 -0.018,-0.58 0.177,-0.81 0.784,-0.77 1.558,0.106 3.121,0.132 4.676,0.25 3.236,0.247 6.448,0.663 9.614,1.405 0.559,0.131 0.757,0.347 0.746,0.894 -0.022,1.107 -0.015,2.217 0.001,3.327 0.007,0.364 -0.011,0.783 0.158,1.077 0.157,0.276 0.549,0.578 0.833,0.576 0.282,-0.003 0.648,-0.32 0.821,-0.597 0.155,-0.251 0.121,-0.633 0.126,-0.959 0.016,-0.986 0.003,-1.971 0.012,-2.957 0.002,-0.294 0.019,-0.651 0.458,-0.501 1.865,0.638 3.708,1.32 5.329,2.49 0.505,0.363 0.584,0.824 0.577,1.389 -0.018,2.382 -0.006,4.765 -0.006,7.148"
             style="fill:#03aeff;fill-opacity:1;fill-rule:evenodd;stroke:none"
             id="path851"
             inkscape:connector-curvature="0" />
        </g>
        <g
           id="g853"
           transform="translate(712.6436,341.1866)">
          <path
             d="m 0,0 c 0,-2.383 -0.013,-4.767 0.006,-7.148 0.007,-0.565 -0.072,-1.026 -0.577,-1.39 -1.621,-1.169 -3.464,-1.851 -5.329,-2.489 -0.44,-0.15 -0.456,0.207 -0.458,0.501 -0.009,0.985 0.004,1.971 -0.012,2.957 -0.005,0.326 0.028,0.708 -0.126,0.959 -0.173,0.277 -0.539,0.593 -0.821,0.596 -0.285,0.003 -0.676,-0.299 -0.833,-0.575 -0.169,-0.294 -0.152,-0.713 -0.159,-1.078 -0.015,-1.109 -0.022,-2.219 -0.001,-3.327 0.011,-0.547 -0.186,-0.762 -0.746,-0.893 -3.166,-0.742 -6.378,-1.158 -9.613,-1.405 -1.556,-0.119 -3.118,-0.145 -4.677,-0.25 -0.606,-0.041 -0.801,0.189 -0.783,0.77 0.026,0.944 0.011,1.89 0.003,2.834 -0.003,0.328 -0.005,0.66 -0.06,0.982 -0.085,0.513 -0.427,0.81 -0.938,0.796 -0.511,-0.013 -0.831,-0.329 -0.899,-0.845 -0.039,-0.283 -0.045,-0.573 -0.049,-0.859 -0.004,-0.904 0.01,-1.808 -0.004,-2.712 -0.015,-0.956 -0.026,-0.983 -0.947,-0.947 -1.642,0.061 -3.294,0.067 -4.92,0.264 -2.932,0.352 -5.853,0.801 -8.769,1.261 -1.168,0.185 -1.162,0.244 -1.17,1.402 -0.004,0.862 0.006,1.725 -0.005,2.588 -0.005,0.285 -0.023,0.577 -0.087,0.854 -0.103,0.454 -0.436,0.718 -0.881,0.717 -0.449,0 -0.773,-0.274 -0.882,-0.724 -0.06,-0.237 -0.081,-0.486 -0.09,-0.731 -0.013,-0.409 -0.004,-0.822 -0.004,-1.232 0,-2.12 -0.025,-2.181 -2.034,-1.36 -1.32,0.539 -2.561,1.276 -3.823,1.95 -0.463,0.25 -0.644,0.662 -0.642,1.226 0.021,4.931 0.012,9.862 0.015,14.793 0,0.322 -0.039,0.767 0.5,0.433 1.623,-1.003 3.423,-1.576 5.214,-2.164 0.569,-0.187 0.81,-0.455 0.777,-1.049 -0.035,-0.655 -0.029,-1.316 0.004,-1.972 0.038,-0.771 0.397,-1.208 0.94,-1.221 0.551,-0.016 0.933,0.422 0.986,1.176 0.03,0.409 0.006,0.821 0.011,1.232 0.017,1.034 0.016,1.019 0.997,0.851 1.74,-0.294 3.471,-0.649 5.223,-0.835 2.734,-0.29 5.48,-0.463 8.223,-0.682 0.284,-0.022 0.575,-0.028 0.862,-0.025 0.376,0.003 0.5,-0.208 0.501,-0.545 0,-0.534 -0.014,-1.069 0.012,-1.602 0.039,-0.849 0.407,-1.314 0.992,-1.298 0.576,0.017 0.905,0.479 0.945,1.348 0.016,0.328 0.001,0.658 0.004,0.986 0.014,1.085 0.015,1.082 1.051,1.127 0.984,0.045 1.969,0.089 2.954,0.145 3.651,0.208 7.274,0.656 10.855,1.414 0.922,0.196 0.923,0.183 0.951,-0.796 0.011,-0.411 0.002,-0.824 0.058,-1.229 0.071,-0.518 0.403,-0.803 0.93,-0.797 0.526,0.006 0.858,0.307 0.905,0.824 0.054,0.611 0.074,1.231 0.045,1.844 -0.031,0.629 0.202,0.924 0.817,1.155 1.684,0.632 3.335,1.353 4.984,2.074 0.457,0.201 0.583,0.089 0.572,-0.36 C -0.009,7.232 0,6.943 0,6.657 Z"
             style="fill:#03aeff;fill-opacity:1;fill-rule:evenodd;stroke:none"
             id="path855"
             inkscape:connector-curvature="0" />
        </g>
        <g
           id="g857"
           transform="translate(687.5146,350.9649)">
          <path
             d="m 0,0 c -4.657,0.03 -9.273,0.441 -13.838,1.336 -2.659,0.522 -5.275,1.236 -7.712,2.462 -0.763,0.383 -1.508,0.849 -2.165,1.395 -1.948,1.617 -1.893,3.604 0.076,5.169 1.136,0.902 2.41,1.552 3.754,2.074 3.469,1.345 7.093,2.008 10.766,2.465 4.251,0.53 8.523,0.649 12.79,0.442 5.504,-0.268 10.963,-0.904 16.166,-2.899 1.308,-0.5 2.571,-1.095 3.648,-2.006 C 23.92,10.071 24.34,9.657 24.66,9.194 25.311,8.258 25.343,7.216 24.656,6.321 24.12,5.62 23.434,4.994 22.71,4.479 21.084,3.324 19.182,2.732 17.296,2.183 13.939,1.207 10.494,0.649 7.01,0.382 4.678,0.203 2.338,0.124 0,0"
             style="fill:#03aeff;fill-opacity:1;fill-rule:evenodd;stroke:none"
             id="path859"
             inkscape:connector-curvature="0" />
        </g>
        <g
           id="g861"
           transform="translate(689.1689,321.4385)">
          <path
             d="m 0,0 c -7.335,0.016 -13.006,0.491 -18.551,2.008 -2.058,0.562 -4.095,1.221 -5.887,2.424 -0.637,0.428 -1.217,0.973 -1.737,1.544 -0.72,0.79 -0.672,1.811 -0.648,2.8 0.008,0.343 0.238,0.28 0.418,0.171 1.705,-1.019 3.566,-1.655 5.443,-2.252 0.415,-0.132 0.62,-0.356 0.608,-0.793 -0.005,-0.203 0.016,-0.411 0.053,-0.611 0.083,-0.458 0.375,-0.736 0.825,-0.79 0.461,-0.053 0.909,0.181 0.945,0.607 0.081,1.044 0.675,0.739 1.279,0.618 4.481,-0.895 9.006,-1.367 13.57,-1.473 0.618,-0.013 1.111,-0.021 1.192,-0.833 0.045,-0.437 0.46,-0.68 0.919,-0.649 0.453,0.032 0.824,0.296 0.845,0.751 0.037,0.741 0.509,0.707 1.022,0.725 4.766,0.151 9.504,0.575 14.167,1.619 0.471,0.105 0.605,0.002 0.71,-0.504 0.081,-0.392 0.067,-0.352 0.142,-0.585 0.087,-0.267 0.169,-0.6 0.77,-0.495 0.562,0.097 0.694,0.094 0.892,0.426 0.029,0.051 0.125,0.41 0.106,0.559 -0.143,1.192 0.521,1.409 1.403,1.729 1.498,0.541 2.946,1.225 4.404,1.875 0.422,0.189 0.53,0.136 0.579,-0.347 C 23.614,7.034 23.104,5.829 21.889,5.009 20.875,4.327 19.807,3.697 18.688,3.209 15.699,1.903 12.523,1.254 9.311,0.776 5.691,0.237 2.051,-0.021 0,0"
             style="fill:#03aeff;fill-opacity:1;fill-rule:evenodd;stroke:none"
             id="path863"
             inkscape:connector-curvature="0" />
        </g>
        <g
           id="g865"
           transform="translate(683.1758,346.5025)">
          <path
             d="m 0,0 c -3.691,0.178 -7.354,0.594 -10.971,1.371 -0.239,0.051 -0.476,0.153 -0.717,0.165 -0.591,0.031 -0.714,0.358 -0.737,0.892 -0.085,2.023 -0.099,2.038 1.824,1.61 C -6.503,3.122 -2.345,2.739 1.843,2.6 2.169,2.589 2.498,2.573 2.827,2.581 3.253,2.591 3.364,2.371 3.399,1.976 3.592,-0.113 3.57,-0.149 1.476,-0.071 0.983,-0.053 0.491,-0.024 0,0"
             style="fill:#03aeff;fill-opacity:1;fill-rule:evenodd;stroke:none"
             id="path867"
             inkscape:connector-curvature="0" />
        </g>
        <g
           id="g869"
           transform="translate(691.7539,346.398)">
          <path
             d="m 0,0 c -0.86,0 -1.722,0.018 -2.582,-0.008 -0.482,-0.015 -0.621,0.187 -0.657,0.646 -0.163,2.028 -0.176,2.01 1.833,2.078 4.31,0.144 8.586,0.597 12.795,1.574 0.159,0.037 0.319,0.075 0.479,0.113 0.45,0.109 0.722,-0.019 0.703,-0.532 -0.003,-0.082 0,-0.164 0.004,-0.246 C 12.649,1.816 12.646,1.834 10.851,1.443 7.274,0.666 3.648,0.297 0,0"
             style="fill:#03aeff;fill-opacity:1;fill-rule:evenodd;stroke:none"
             id="path871"
             inkscape:connector-curvature="0" />
        </g>
        <g
           id="g873"
           transform="translate(662.2783,353.3594)">
          <path
             d="M 0,0 C 0.051,0.392 0.102,0.784 0.153,1.175 0.496,0.973 0.828,0.747 1.185,0.574 2.69,-0.151 4.188,-0.892 5.722,-1.557 6.281,-1.8 6.558,-2.056 6.546,-2.704 6.497,-5.028 6.702,-4.714 4.716,-4.004 3.567,-3.594 2.468,-3.025 1.394,-2.443 0.461,-1.939 -0.387,-1.304 0,0"
             style="fill:#03aeff;fill-opacity:1;fill-rule:evenodd;stroke:none"
             id="path875"
             inkscape:connector-curvature="0" />
        </g>
        <g
           id="g877"
           transform="translate(706.2832,350.2774)">
          <path
             d="M 0,0 C -0.018,1.227 -0.018,1.227 1.168,1.655 2.787,2.241 4.333,2.966 5.728,3.993 6.215,4.352 6.305,4.291 6.348,3.679 6.499,1.579 6.415,1.327 4.491,0.328 3.267,-0.308 1.946,-0.761 0.674,-1.309 0.193,-1.515 -0.018,-1.375 -0.004,-0.858 0.006,-0.572 0,-0.285 0,0"
             style="fill:#03aeff;fill-opacity:1;fill-rule:evenodd;stroke:none"
             id="path879"
             inkscape:connector-curvature="0" />
        </g>
        <g
           id="g881"
           transform="translate(878.7607,457.7969)"
           style="display:inline">
          <path
             d="m 0,0 -1.184,-6.366 5.013,0.619 C 1.844,-3.927 0.566,-2.01 0,0 m -0.538,70.775 c 5.999,-5.141 8.84,-10.496 8.131,-18.677 -0.291,-3.373 -1.72,-6.6 -3.564,-9.244 -2.467,-3.547 -6.116,-5.873 -8.543,-9.468 -1.003,1.069 -1.44,1.112 -2.798,1.42 -0.934,-5.984 5.445,-7.675 6.176,-13.097 l 4.097,-1.594 c 4.94,-6.664 8.688,-14.288 12.94,-21.543 l 2.042,-7.53 c -0.588,-3.896 -1.009,-5.6 -2.749,-9.005 -4.887,-1.942 -8.752,-1.768 -13.922,-0.45 -0.349,-8.205 0.217,-15.547 0.791,-23.712 l -0.62,-0.534 c 0.207,-2.455 0.766,-4.406 1.873,-6.496 1.803,-5.815 3.599,-11.344 4.713,-17.343 2.196,-5.574 3.941,-10.773 5.491,-16.591 l -4.022,-1.156 c 0.207,-0.423 0.413,-0.853 0.628,-1.285 5.866,-8.019 7.169,-14.092 7.891,-24.325 0.967,-5.125 0.837,-7.713 1.789,-12.835 2.174,-4.223 7.259,-8.056 5.118,-13.096 -5.155,-0.695 -9.553,-1.684 -14.641,0.047 -0.603,4.47 0.308,9.615 -0.118,14.262 -1.355,6.197 -4.407,11.107 -7.078,16.798 -1.866,5.692 -3.158,11.678 -5.971,16.873 l -3.738,-0.814 -2.465,8.259 c -1.838,2.893 -4.017,5.559 -5.512,8.682 -1.176,2.459 -1.612,5.256 -2.42,7.884 -0.974,-8.784 -0.93,-15.428 0.026,-24.322 l -4.255,0.328 c 0.477,-3.858 1.689,-7.816 0.987,-11.727 -1.474,-8.231 -6.978,-20.814 -2.214,-28.162 0.05,-2.032 0.073,-4.035 0.019,-6.064 -2.271,-0.306 -4.36,-1.341 -6.253,0.281 l -5.5,-2.315 c -5.187,-0.93 -21.77,-2.999 -12.551,6.846 6.514,3.213 11.009,6.499 13.101,14.35 -0.362,9.286 0.026,18.547 -0.345,27.776 l -4.611,2.156 1.461,11.79 -0.649,12.338 c -0.341,7.513 0.386,13.604 1.59,21.32 l -4.128,2.364 c 0.726,8.943 2.051,16.841 3.978,25.479 0.058,4.244 0.252,8.423 0.5,12.651 -5.396,-2.981 -12.033,-10.552 -16.615,-3.139 -3.188,6.357 -6.093,13.983 -7.839,20.963 4.262,4.687 -1.929,5.751 -4.477,7.934 -2.3,1.719 -5.78,4.497 -7.391,7.485 -0.732,1.359 -1.687,2.429 -1.06,4.11 1.7,1.476 -1.084,4.828 2.142,3.957 2.086,-1.964 4.143,-3.399 6.481,-4.967 -0.802,1.329 -5.882,6.345 -4.766,7.287 3.049,2.569 9.79,-11.834 8.771,-4.276 -0.58,1.735 -1.903,4.354 0.646,4.131 1.794,-4.145 3.94,-7.007 5.152,-11.439 -0.357,-2.899 -0.36,-4.504 0.195,-7.389 1.951,-1.083 1.408,1.729 1.731,-0.669 1.304,-4.039 5.428,-12.141 8.346,-14.599 1.591,3.248 11.031,12.207 13.945,14.015 -1.648,2.937 -0.062,1.951 2.518,2.138 2.292,4.343 3.385,4.345 7.642,5.75 l 0.855,2.587 -4.058,0.35 c -3.635,1.239 -3.001,4.134 -4.448,7.715 -2.843,5.919 1.047,9.586 1.945,15.318 -0.032,3.839 1.011,6.732 2.429,10.215 l -2.424,0.121 c 3.997,6.218 8.206,12.296 15.185,6.319 3.979,-0.406 6.854,-2.393 10.42,-4.436"
             style="fill:#00acff;fill-opacity:1;fill-rule:evenodd;stroke:none"
             id="path883"
             inkscape:connector-curvature="0" />
        </g>
      </g>
    </g>
    <g
       aria-label="PerformingArts"
       style="font-variant:normal;font-weight:300;font-stretch:normal;font-size:17.72708321px;font-family:'Roboto Slab';-inkscape-font-specification:RobotoSlab-Light;writing-mode:lr-tb;fill:#00acff;fill-opacity:1;fill-rule:nonzero;stroke:none;stroke-width:0.26458332"
       id="text891">
      <path
         d="m -171.10037,97.840679 q 2.0168,0 3.1334,1.038696 1.12526,1.038697 1.12526,2.735235 0,1.71385 -1.12526,2.74389 -1.1166,1.03004 -3.1334,1.03004 h -2.67464 v 3.72199 l 1.4109,0.24237 v 1.09063 h -4.52699 v -1.09063 l 1.4109,-0.24237 v -9.928202 l -1.4109,-0.242362 v -1.099287 h 1.4109 z m -2.67464,6.214871 h 2.67464 q 1.28106,0 1.91294,-0.68381 0.64052,-0.69247 0.64052,-1.73982 0,-1.04735 -0.64052,-1.748472 -0.63188,-0.70112 -1.91294,-0.70112 h -2.67464 z"
         style="stroke-width:0.26458332"
         id="path6057" />
      <path
         d="m -161.52703,110.6253 q -1.95621,0 -3.11609,-1.29837 -1.15122,-1.30703 -1.15122,-3.38442 v -0.38086 q 0,-1.99949 1.18584,-3.32382 1.1945,-1.333 2.82179,-1.333 1.88697,0 2.85642,1.14257 0.9781,1.14256 0.9781,3.04684 v 1.06467 h -6.07637 l -0.026,0.0433 q 0.026,1.35031 0.68381,2.22455 0.65784,0.86558 1.84369,0.86558 0.86558,0 1.51476,-0.24237 0.65784,-0.25102 1.13391,-0.68381 l 0.6665,1.10795 q -0.50204,0.48472 -1.33299,0.8223 -0.8223,0.32892 -1.98218,0.32892 z m -0.25968,-8.37882 q -0.85692,0 -1.46283,0.72709 -0.6059,0.71843 -0.7444,1.80906 l 0.0173,0.0433 h 4.31924 v -0.22505 q 0,-1.00407 -0.53666,-1.67923 -0.53666,-0.67515 -1.59267,-0.67515 z"
         style="stroke-width:0.26458332"
         id="path6059" />
      <path
         d="m -156.26584,102.17724 v -1.09929 h 2.93431 l 0.16446,1.35896 q 0.39817,-0.71843 0.97811,-1.12525 0.58859,-0.40683 1.34165,-0.40683 0.19908,0 0.40682,0.0346 0.2164,0.026 0.32892,0.0606 l -0.22505,1.58401 -0.96945,-0.0519 q -0.67515,0 -1.13391,0.32027 -0.45876,0.31161 -0.70977,0.88289 v 5.37525 l 1.41089,0.24237 v 1.09063 h -4.52698 v -1.09063 l 1.41089,-0.24237 v -6.69093 z"
         style="stroke-width:0.26458332"
         id="path6061" />
      <path
         d="m -149.1746,102.3417 v -1.26375 h 1.46283 v -1.185846 q 0,-1.497454 0.77903,-2.311099 0.78767,-0.822301 2.18991,-0.822301 0.2943,0 0.5886,0.05194 0.30295,0.04328 0.6665,0.129837 l -0.20774,1.29837 q -0.15581,-0.03462 -0.38086,-0.06059 -0.21639,-0.02597 -0.4501,-0.02597 -0.75306,0 -1.1166,0.450102 -0.36354,0.441446 -0.36354,1.289714 v 1.185846 h 1.95621 v 1.26375 h -1.95621 v 6.76883 l 1.41089,0.24237 v 1.09063 h -4.52698 v -1.09063 l 1.41089,-0.24237 v -6.76883 z"
         style="stroke-width:0.26458332"
         id="path6063" />
      <path
         d="m -142.72609,105.67418 q 0,-2.07739 1.12525,-3.41904 1.12526,-1.35031 3.0555,-1.35031 1.9389,0 3.06416,1.34165 1.13391,1.34165 1.13391,3.4277 v 0.19043 q 0,2.0947 -1.12526,3.4277 -1.12525,1.33299 -3.0555,1.33299 -1.94755,0 -3.07281,-1.33299 -1.12525,-1.34165 -1.12525,-3.4277 z m 1.70519,0.19043 q 0,1.4888 0.62322,2.45825 0.63187,0.96945 1.86965,0.96945 1.21182,0 1.84369,-0.96945 0.63187,-0.96945 0.63187,-2.45825 v -0.19043 q 0,-1.47149 -0.63187,-2.44959 -0.63187,-0.97811 -1.861,-0.97811 -1.22912,0 -1.85234,0.97811 -0.62322,0.9781 -0.62322,2.44959 z"
         style="stroke-width:0.26458332"
         id="path6065" />
      <path
         d="m -132.7544,102.17724 v -1.09929 h 2.93432 l 0.16446,1.35896 q 0.39817,-0.71843 0.9781,-1.12525 0.5886,-0.40683 1.34165,-0.40683 0.19909,0 0.40683,0.0346 0.21639,0.026 0.32892,0.0606 l -0.22505,1.58401 -0.96945,-0.0519 q -0.67516,0 -1.13391,0.32027 -0.45876,0.31161 -0.70978,0.88289 v 5.37525 l 1.4109,0.24237 v 1.09063 h -4.52699 v -1.09063 l 1.4109,-0.24237 v -6.69093 z"
         style="stroke-width:0.26458332"
         id="path6067" />
      <path
         d="m -125.9781,109.3529 1.4109,-0.24237 v -6.69093 l -1.4109,-0.24236 v -1.09929 h 2.94297 l 0.11253,1.22047 q 0.4501,-0.6665 1.15988,-1.03004 0.70977,-0.36355 1.6446,-0.36355 0.93483,0 1.60132,0.43279 0.67516,0.43279 1.01273,1.29837 0.44145,-0.79633 1.16854,-1.26374 0.72708,-0.46742 1.69653,-0.46742 1.43687,0 2.26782,0.98676 0.83096,0.97811 0.83096,2.95163 v 4.26731 l 1.4109,0.24237 v 1.09063 h -4.53564 v -1.09063 l 1.41089,-0.24237 v -4.28462 q 0,-1.38493 -0.47607,-1.95621 -0.47607,-0.57994 -1.41089,-0.57994 -0.89155,0 -1.43687,0.63187 -0.53666,0.62322 -0.62321,1.57536 v 4.61354 l 1.41089,0.24237 v 1.09063 h -4.52698 v -1.09063 l 1.41089,-0.24237 v -4.28462 q 0,-1.31568 -0.49338,-1.92159 -0.48472,-0.61456 -1.41089,-0.61456 -0.77903,0 -1.28106,0.32027 -0.50204,0.32026 -0.77037,0.9002 v 5.6003 l 1.4109,0.24237 v 1.09063 h -4.52699 z"
         style="stroke-width:0.26458332"
         id="path6069" />
      <path
         d="m -108.67569,109.3529 1.41089,-0.24237 v -6.69093 l -1.41089,-0.24236 v -1.09929 h 3.11609 v 8.03258 l 1.41089,0.24237 v 1.09063 h -4.52698 z m 3.11609,-10.672608 h -1.7052 v -1.739816 h 1.7052 z"
         style="stroke-width:0.26458332"
         id="path6071" />
      <path
         d="m -103.40474,109.3529 1.4109,-0.24237 v -6.69093 l -1.4109,-0.24236 v -1.09929 h 2.93432 l 0.12118,1.39358 q 0.467412,-0.7444 1.168532,-1.15122 0.709776,-0.41548 1.609979,-0.41548 1.514766,0 2.345723,0.89155 0.830957,0.88289 0.830957,2.73523 v 4.57892 l 1.410896,0.24237 v 1.09063 h -4.526985 v -1.09063 l 1.410896,-0.24237 v -4.54429 q 0,-1.23778 -0.493381,-1.75713 -0.484725,-0.51935 -1.488798,-0.51935 -0.735743,0 -1.307026,0.35489 -0.562627,0.35489 -0.900203,0.96945 v 5.49643 l 1.410895,0.24237 v 1.09063 h -4.526985 z"
         style="stroke-width:0.26458332"
         id="path6073" />
      <path
         d="m -91.815674,105.93385 q 0,-2.25916 0.986762,-3.64409 0.986761,-1.38493 2.726577,-1.38493 0.882892,0 1.549389,0.34624 0.666497,0.34623 1.116598,1.00407 l 0.155805,-1.17719 h 1.436863 v 9.2444 q 0,1.81771 -1.012729,2.85641 -1.012729,1.04735 -2.882382,1.04735 -0.675153,0 -1.462831,-0.19042 -0.787678,-0.18178 -1.384928,-0.50204 l 0.441446,-1.32434 q 0.476069,0.25102 1.125254,0.41548 0.649186,0.16446 1.263747,0.16446 1.142566,0 1.67057,-0.64053 0.53666,-0.64053 0.53666,-1.82637 v -0.89155 q -0.458757,0.58859 -1.099287,0.89155 -0.640529,0.30295 -1.471486,0.30295 -1.722505,0 -2.709266,-1.24644 -0.986762,-1.24643 -0.986762,-3.26323 z m 1.705193,0.18178 q 0,1.41089 0.597251,2.26782 0.59725,0.85692 1.817718,0.85692 0.770366,0 1.289715,-0.34623 0.519348,-0.35489 0.856924,-0.99542 v -4.31059 q -0.32892,-0.59725 -0.856924,-0.94348 -0.528004,-0.35489 -1.272403,-0.35489 -1.220468,0 -1.826375,1.02139 -0.605906,1.02138 -0.605906,2.6227 z"
         style="stroke-width:0.26458332"
         id="path6075" />
      <path
         d="m -44.891916,109.3529 0.934827,-0.12984 4.405803,-11.382381 h 1.462831 l 4.327901,11.382381 0.926171,0.12984 v 1.09063 h -3.618125 v -1.09063 l 0.952138,-0.16446 -0.830957,-2.31976 h -5.046333 l -0.856924,2.31976 0.952138,0.16446 v 1.09063 h -3.60947 z m 4.04226,-3.91243 h 3.998981 l -1.956212,-5.40987 h -0.05193 z"
         style="stroke-width:0.26458332"
         id="path6077" />
      <path
         d="m -31.745491,102.17724 v -1.09929 h 2.934317 l 0.16446,1.35896 q 0.398167,-0.71843 0.978106,-1.12525 0.588594,-0.40683 1.341649,-0.40683 0.199083,0 0.406823,0.0346 0.216395,0.026 0.32892,0.0606 l -0.225051,1.58401 -0.96945,-0.0519 q -0.675152,0 -1.13391,0.32027 -0.458757,0.31161 -0.709775,0.88289 v 5.37525 l 1.410895,0.24237 v 1.09063 h -4.526984 v -1.09063 l 1.410895,-0.24237 v -6.69093 z"
         style="stroke-width:0.26458332"
         id="path6079" />
      <path
         d="m -21.366803,98.818785 v 2.259165 h 1.77444 v 1.26375 h -1.77444 v 5.68686 q 0,0.65784 0.26833,0.92617 0.276986,0.26833 0.727088,0.26833 0.22505,0 0.502036,-0.0346 0.285642,-0.0433 0.476069,-0.0866 l 0.233707,1.16853 q -0.242363,0.15581 -0.709776,0.25102 -0.467413,0.10387 -0.934827,0.10387 -1.038696,0 -1.653258,-0.62322 -0.614562,-0.63187 -0.614562,-1.97352 v -5.68686 h -1.480142 v -1.26375 h 1.480142 v -2.259165 z"
         style="stroke-width:0.26458332"
         id="path6081" />
      <path
         d="m -10.831142,104.02092 h -1.281059 l -0.276985,-1.12525 q -0.311609,-0.2943 -0.787678,-0.46742 -0.467414,-0.18177 -1.064664,-0.18177 -0.908859,0 -1.350305,0.39817 -0.441446,0.39817 -0.441446,0.96079 0,0.55397 0.389511,0.87424 0.389511,0.32026 1.584012,0.57128 1.774439,0.38086 2.640019,1.0387 0.865581,0.64918 0.865581,1.74847 0,1.24644 -1.012729,2.0168 -1.004073,0.77037 -2.631364,0.77037 -1.064664,0 -1.912932,-0.24236 -0.848269,-0.25102 -1.514766,-0.71843 l -0.0087,-2.13799 h 1.281059 l 0.320265,1.25509 q 0.294297,0.26833 0.796334,0.38951 0.510692,0.12119 1.038696,0.12119 0.908859,0 1.419551,-0.36355 0.519349,-0.3722 0.519349,-0.96945 0,-0.56263 -0.43279,-0.92617 -0.424135,-0.36354 -1.618636,-0.63187 -1.705193,-0.3722 -2.570773,-1.01273 -0.86558,-0.64053 -0.86558,-1.73116 0,-1.14257 0.96945,-1.94756 0.978105,-0.80499 2.53615,-0.80499 1.064664,0 1.912932,0.27699 0.848269,0.27698 1.410896,0.77037 z"
         style="stroke-width:0.26458332"
         id="path6083" />
    </g>
    <path
       d="m -171.73306,11.588216 q 0.0929,-5.7600185 -3.62324,-10.2193905 -1.57936,-1.95097403 -4.27356,-3.716142 -2.6013,-1.8580704 -6.59615,-3.3445261 -3.99486,-1.4864582 -9.56907,-2.3225892 -5.48131,-0.9290341 -12.91359,-0.9290341 -7.24648,0 -14.12134,1.3935525 -6.78196,1.3006493 -12.44908,3.7161417 -5.66711,2.3225892 -9.75487,5.4813092 -4.08775,3.15872 -5.94582,6.781959 -1.76517,3.5303345 -0.92904,7.4322815 0.83613,3.901948 5.01679,7.710996 4.27357,3.716141 12.26327,7.246474 7.98971,3.437432 20.53168,6.317443 11.33424,2.601299 20.71749,5.388406 9.47616,2.787105 16.25812,6.689056 6.78196,3.901948 10.4981,9.383257 3.80905,5.48131 3.80905,13.563918 0,8.082611 -3.53033,13.935533 -3.53034,5.852927 -9.75488,9.661967 -6.22453,3.80905 -14.77166,5.574212 -8.54713,1.85807 -18.48781,1.85807 -9.94067,0 -19.41684,-1.85807 -9.38326,-1.858072 -16.72264,-5.295502 -7.33938,-3.34452 -11.79874,-8.17551 -4.36647,-4.738081 -4.36647,-10.4981 0,-3.065817 1.39355,-4.923888 1.48646,-1.950974 3.62324,-2.694205 2.22969,-0.743227 4.64518,-0.464515 2.50839,0.278709 4.55227,1.579359 1.76517,1.114843 2.6013,3.530335 0.83613,2.415492 0.27871,4.923888 -0.46452,2.601298 -2.41549,4.923888 -1.95098,2.322589 -5.66712,3.344528 1.39356,2.5084 5.57421,4.83099 4.27357,2.41549 9.84778,4.18065 5.57421,1.85807 11.70585,2.88001 6.22454,1.114852 11.42713,1.114852 8.91874,0 16.53683,-2.415502 7.711,-2.32258 12.72779,-6.22453 5.10969,-3.80905 6.96777,-8.825841 1.85807,-4.923888 -0.74323,-10.126486 -2.6013,-5.2026 -10.3123,-10.126487 -7.71099,-5.016791 -21.73942,-8.918739 -13.28521,-3.716142 -23.5046,-6.410347 -10.21939,-2.787107 -17.18716,-6.224537 -6.96776,-3.437432 -10.591,-8.36132 -3.53034,-4.923888 -3.53034,-13.006496 0,-5.388406 2.5084,-9.754871 2.6013,-4.4593715 6.96776,-7.9897045 4.36647,-3.530336 10.12649,-6.0387312 5.76002,-2.6012987 12.07746,-4.2735632 6.31744,-1.7651677 12.82069,-2.6012991 6.59615,-0.836133 12.54198,-0.836133 8.91874,0 16.07231,1.6722644 7.15358,1.5793614 12.26327,4.3664663 5.2026,2.6942045 8.26842,6.41034577 3.06581,3.62323903 3.71614,7.80389603 0.65032,4.0877565 -0.27871,6.9677665 -0.92904,2.787105 -2.78711,4.552272 -1.76517,1.765168 -4.27356,2.601299 -2.41549,0.743231 -4.73808,0.743231 -1.76517,0 -3.25163,-0.650325 -1.48645,-0.650327 -2.6013,-1.672265 -1.02194,-1.114843 -1.67226,-2.415492 -0.55742,-1.393553 -0.55742,-2.880011 0,-1.486455 0.55742,-2.880009 0.65032,-1.393553 1.76517,-2.508396 1.11484,-1.1148395 2.6942,-1.7651665 1.57936,-0.650325 3.53033,-0.650325 1.30065,0 2.69421,0.557421 1.48645,0.557422 2.6942,1.207747 1.39355,0.7432295 2.6013,1.6722635 z"
       id="path950"
       inkscape:connector-curvature="0"
       style="display:inline;stroke-width:0.26458332"
       inkscape:label="S" />
    <g
       aria-label="tages"
       style="font-style:normal;font-variant:normal;font-weight:normal;font-stretch:normal;font-size:202.83999634px;font-family:Channel;-inkscape-font-specification:'Channel, Normal';font-variant-ligatures:normal;font-variant-caps:normal;font-variant-numeric:normal;font-feature-settings:normal;text-align:start;writing-mode:lr-tb;text-anchor:start;display:inline;opacity:1;fill:#000000;fill-opacity:1;fill-rule:nonzero;stroke:none"
       id="text835"
       transform="matrix(0.26458333,0,0,0.26458333,-277.09699,-34.650402)">
      <path
         d="m 437.08125,386.15342 q -3.29615,-2.0284 -1.26775,-5.5781 2.0284,-3.80325 7.35295,-7.86005 5.32455,-4.31035 12.93105,-8.36715 7.35295,-4.31035 15.213,-7.6065 0,-15.97365 0.25355,-32.20085 0.25355,-16.48075 1.0142,-29.9189 0.5071,-13.6917 1.5213,-23.07305 1.0142,-9.6349 2.5355,-12.1704 2.78905,-4.31035 7.6065,-10.6491 4.81745,-6.5923 9.88845,-12.1704 5.32455,-5.5781 9.6349,-8.6207 4.31035,-3.0426 6.33875,-0.76065 1.26775,1.77485 1.0142,13.94525 -0.25355,11.91685 -1.26775,30.17245 -0.76065,18.00205 -2.0284,40.31445 -1.0142,22.3124 -1.5213,44.6248 7.35295,1.5213 14.45235,3.5497 7.35295,1.77485 13.1846,3.80325 5.83165,1.77485 9.88845,3.29615 4.31035,1.26775 5.83165,1.26775 2.0284,0 3.5497,-0.5071 1.5213,-0.76065 2.78905,-1.26775 1.26775,-0.76065 2.28195,-0.76065 1.26775,-0.25355 2.78905,0.76065 1.5213,1.0142 1.5213,2.5355 0,1.26775 -2.28195,3.80325 -2.0284,2.5355 -6.84585,6.84585 -4.5639,4.0568 -12.42395,10.39555 -6.5923,5.32455 -15.7201,4.81745 -8.87425,-0.5071 -18.7627,-3.80325 0.5071,19.2698 2.28195,33.21505 2.78905,19.2698 8.87425,31.18665 6.33875,11.6633 14.95945,11.6633 4.31035,0 9.6349,-3.5497 5.32455,-3.5497 9.88845,-7.86005 5.32455,-4.81745 10.90265,-11.40975 1.26775,-1.26775 2.28195,-2.28195 1.0142,-0.76065 2.28195,-1.0142 1.26775,-0.25355 2.5355,0.76065 1.26775,1.0142 1.26775,2.0284 0.25355,0.76065 -0.25355,1.5213 -0.25355,0.76065 -1.0142,1.5213 -0.5071,0.5071 -0.76065,1.0142 -0.25355,0.5071 -2.5355,3.80325 -2.0284,3.0426 -5.83165,7.6065 -3.5497,4.31035 -8.6207,9.6349 -5.071,5.071 -11.40975,9.6349 -6.33875,4.31035 -13.94525,7.35295 -7.35295,2.78905 -15.46655,2.78905 -8.36715,0 -14.45235,-3.5497 -6.0852,-3.80325 -10.6491,-9.38135 -4.31035,-5.83165 -7.35295,-12.93105 -2.78905,-7.35295 -4.5639,-14.45235 -1.77485,-7.0994 -2.28195,-13.43815 -0.76065,-6.5923 -0.76065,-10.6491 0,-4.0568 0,-16.7343 -0.25355,-12.93105 -0.25355,-29.66535 -4.31035,-1.26775 -7.86005,-1.5213 -3.80325,-0.5071 -6.5923,0.25355 -5.071,1.26775 -8.1136,3.5497 -3.0426,2.0284 -4.81745,3.80325 -2.0284,1.77485 -3.5497,2.78905 -1.5213,0.76065 -3.29615,-0.5071 z"
         id="path4745"
         inkscape:connector-curvature="0" />
      <path
         d="m 747.47921,440.66667 q 3.5497,0 3.5497,3.5497 0,0.25355 -2.0284,3.5497 -2.0284,3.29615 -5.83165,8.36715 -3.80325,4.81745 -9.38135,10.6491 -5.32455,5.5781 -11.91685,10.39555 -6.5923,4.81745 -14.45235,8.1136 -7.86005,3.29615 -16.48075,3.29615 -9.1278,0 -16.48075,-5.83165 -7.0994,-6.0852 -12.42395,-13.43815 -5.071,-7.35295 -8.1136,-13.43815 -2.78905,-6.33875 -3.0426,-7.0994 -0.5071,0.76065 -4.31034,7.0994 -3.5497,6.0852 -9.88845,13.43815 -6.33875,7.35295 -14.95945,13.43815 -8.6207,5.83165 -19.01625,5.83165 -11.1562,0 -19.52335,-4.31035 -8.1136,-4.5639 -13.1846,-12.1704 -4.81745,-7.6065 -6.5923,-17.49495 -1.5213,-10.142 0.25355,-21.04465 2.0284,-11.1562 7.6065,-22.3124 5.5781,-11.40975 14.95945,-21.8053 10.142,-11.1562 21.04465,-16.7343 11.1562,-5.5781 21.8053,-7.6065 9.6349,-1.77485 18.00204,-1.0142 8.6207,0.5071 14.7059,2.28195 6.0852,1.77485 9.1278,4.31035 3.0426,2.28195 1.77485,4.0568 -1.5213,2.0284 -3.0426,1.77485 -1.5213,-0.25355 -4.31035,-1.26775 -2.5355,-1.26775 -7.0994,-2.5355 -4.31035,-1.26775 -11.91684,-1.26775 -7.0994,0 -14.45235,3.29615 -7.0994,3.0426 -13.6917,8.6207 -6.33875,5.32455 -11.40975,12.6775 -5.071,7.35295 -7.35295,15.46655 -3.5497,12.1704 -2.5355,21.55175 1.0142,9.1278 4.5639,15.7201 3.80325,6.33875 8.87425,9.6349 5.32455,3.29615 9.88845,3.29615 8.36715,0 13.94525,-5.071 5.5781,-5.071 9.1278,-12.42395 3.80324,-7.6065 6.08519,-16.2272 2.28195,-8.87425 4.0568,-16.2272 2.0284,-7.6065 4.0568,-12.42395 2.0284,-5.071 5.32455,-5.071 3.29615,0 6.33875,5.5781 3.0426,5.32455 6.0852,13.43815 3.29615,7.86005 6.84585,17.49495 3.5497,9.38135 7.86005,17.49495 4.5639,7.86005 9.88845,13.43815 5.5781,5.32455 12.42395,5.32455 5.071,0 9.38135,-2.0284 4.31035,-2.28195 7.6065,-5.071 3.5497,-3.0426 6.5923,-7.0994 l 7.86005,-9.88845 q 1.0142,-2.28195 3.80325,-2.28195 z"
         id="path4747"
         inkscape:connector-curvature="0" />
      <path
         d="m 863.60919,467.03587 q 6.5923,29.4118 4.81745,50.45644 -1.77485,21.2982 -9.38135,35.24345 -7.35295,13.94525 -19.2698,21.2982 -11.6633,7.35295 -25.355,9.38135 -13.43815,2.0284 -27.3834,-0.76065 -13.94525,-2.5355 -25.8621,-8.87425 -14.45235,-7.6065 -18.50915,-17.7485 -4.31035,-10.142 -1.0142,-21.55175 3.29615,-11.1562 12.42395,-23.07305 9.1278,-11.91684 21.04465,-23.32659 -14.1988,-2.28195 -22.56595,-12.42395 -8.1136,-10.142 -9.38135,-24.3408 -1.5213,-14.45235 4.0568,-30.9331 5.5781,-16.48075 19.01625,-30.9331 9.88845,-11.1562 20.7911,-16.7343 11.1562,-5.5781 21.8053,-7.6065 9.6349,-1.77485 18.2556,-1.0142 8.6207,0.5071 14.7059,2.28195 6.0852,1.77485 9.1278,4.31035 3.0426,2.28195 1.77485,4.0568 -1.77485,2.0284 -3.29615,1.77485 -1.26775,-0.25355 -4.0568,-1.26775 -2.5355,-1.26775 -7.0994,-2.5355 -4.5639,-1.26775 -12.1704,-1.26775 -7.0994,0 -14.45235,3.29615 -7.0994,3.0426 -13.6917,8.6207 -6.33875,5.32455 -11.40975,12.6775 -4.81745,7.35295 -7.35295,15.46655 -3.5497,12.1704 -2.5355,21.55175 1.0142,9.1278 4.5639,15.7201 3.80325,6.33875 8.87425,9.6349 5.32455,3.29615 9.88845,3.29615 8.6207,0 14.1988,-5.071 5.5781,-5.071 9.1278,-12.42395 3.80325,-7.6065 6.0852,-16.2272 2.28195,-8.87425 4.0568,-16.2272 2.0284,-7.6065 4.0568,-12.42395 2.0284,-5.071 5.32455,-5.071 2.28195,0 4.5639,3.29615 2.28195,3.0426 4.0568,8.1136 2.0284,5.071 3.5497,11.6633 1.77485,6.5923 3.0426,13.43815 3.0426,15.97365 5.5781,36.25765 z m -32.70795,-18.50915 q -4.31035,7.86005 -9.38135,14.95945 -4.5639,6.0852 -10.90265,12.1704 -6.0852,6.0852 -13.94525,9.6349 l -0.5071,0.5071 q -9.6349,4.31035 -18.00205,11.40975 -8.36715,7.0994 -14.1988,14.95944 -5.83165,7.86005 -8.6207,15.97365 -2.78905,8.1136 -1.26775,14.7059 1.77485,6.5923 8.36715,10.6491 6.5923,4.0568 19.7769,4.0568 13.1846,0 22.05885,-4.5639 9.1278,-4.31035 14.7059,-11.91685 5.83165,-7.6065 8.6207,-18.00205 2.78905,-10.39555 3.80325,-22.56594 1.0142,-12.1704 0.5071,-25.355 -0.25355,-13.1846 -1.0142,-26.62275 z"
         id="path4749"
         inkscape:connector-curvature="0" />
      <path
         d="m 975.93505,397.56317 q -1.5213,6.33875 -6.33875,13.94525 -4.5639,7.35295 -10.6491,14.7059 -6.0852,7.35295 -12.93105,14.1988 -6.5923,6.84585 -11.91685,11.91685 5.071,8.1136 12.42395,13.1846 7.6065,5.071 17.7485,5.071 7.35295,0 15.97365,-3.0426 7.35295,-2.78905 17.2414,-8.6207 9.8885,-6.0852 21.0447,-18.2556 1.5213,-2.28195 3.0426,-2.5355 1.5213,-0.25355 2.2819,0.76065 1.0142,1.0142 1.2678,2.5355 0.2535,1.5213 -0.5071,2.5355 -0.5071,0.76065 -4.3104,4.5639 -3.5497,3.5497 -9.6349,8.6207 -6.0852,4.81745 -14.1988,10.39555 -7.86005,5.5781 -16.98785,10.39555 -9.1278,4.5639 -19.01625,7.6065 -9.88845,3.0426 -19.7769,3.0426 -14.95945,0 -25.8621,-6.0852 -10.6491,-6.0852 -17.7485,-15.213 -6.84585,-9.1278 -10.39555,-20.03045 -3.29615,-10.90265 -3.29615,-20.53755 0,-9.88845 3.80325,-21.2982 3.80325,-11.40975 11.1562,-21.04465 7.6065,-9.88845 18.7627,-16.2272 11.1562,-6.5923 25.60855,-6.5923 11.6633,0 18.7627,3.5497 7.0994,3.29615 10.6491,8.6207 3.5497,5.32455 4.0568,11.6633 0.76065,6.33875 -0.25355,12.1704 z m -30.426,-28.65115 q -8.6207,0 -14.1988,7.86005 -5.32455,7.6065 -7.35295,19.01625 -2.0284,11.40975 -0.5071,24.8479 1.5213,13.1846 6.5923,24.59435 5.32455,-4.5639 11.6633,-10.39555 6.33875,-6.0852 11.91685,-12.42395 5.5781,-6.5923 9.6349,-12.93105 4.31035,-6.5923 5.071,-12.1704 1.26775,-7.86005 -0.25355,-13.1846 -1.5213,-5.5781 -4.81745,-8.87425 -3.29615,-3.29615 -8.1136,-4.81745 -4.5639,-1.5213 -9.6349,-1.5213 z"
         id="path4751"
         inkscape:connector-curvature="0" />
      <path
         d="m 1084.6096,441.17377 q 2.5355,3.0426 6.3388,10.39555 3.8032,7.35295 5.071,16.7343 1.2677,9.38135 -2.0284,19.7769 -3.0426,10.6491 -14.4524,20.03044 -11.4097,9.38135 -22.0588,10.90265 -10.6491,1.5213 -19.5234,-1.77485 -8.8742,-3.0426 -15.7201,-9.38135 -6.8458,-6.33874 -10.6491,-12.42394 -1.5213,-2.78905 -1.0142,-4.0568 0.5071,-1.26775 2.0284,-1.5213 1.2678,-0.25355 3.0426,0.5071 1.5213,0.76065 2.0284,2.28195 4.0568,8.1136 8.6207,10.90265 4.8175,3.04259 9.1278,3.04259 4.3104,0.25355 7.353,-1.26774 3.2961,-1.5213 4.3103,-2.5355 0.7607,-1.0142 3.2962,-3.29615 2.5355,-2.0284 4.5639,-6.0852 2.0284,-4.0568 2.789,-10.142 0.7607,-6.33875 -2.0284,-15.213 -3.0426,-9.6349 -9.6349,-18.00205 -6.5923,-8.36715 -13.6917,-15.97365 l -7.86,11.91685 q -1.7749,2.78905 -5.071,1.0142 -2.7891,-2.28195 -1.0142,-5.071 l 8.8742,-13.43815 q -4.3103,-4.5639 -8.1136,-9.1278 -3.8032,-4.5639 -6.0852,-9.1278 -3.2961,-6.33875 -5.071,-14.95945 -2.0284,-8.87425 0.7607,-16.7343 2.5355,-7.86005 11.4097,-13.1846 8.8743,-5.5781 27.637,-5.5781 10.142,0 14.1988,3.5497 4.0568,3.5497 3.8032,9.6349 -0.2535,6.0852 -4.0568,14.45235 -3.5497,8.36715 -8.6207,18.2556 4.5639,4.5639 8.8743,9.6349 4.5639,4.81745 8.6207,9.6349 4.3103,4.81745 7.86,9.1278 3.5497,4.0568 6.0852,7.0994 z m -37.5254,-75.5579 q -5.071,0 -7.86,3.0426 -2.5355,3.0426 -2.7891,8.1136 0,4.81745 2.5355,10.90265 2.7891,5.83165 8.3672,11.91685 4.3103,-7.35295 7.0994,-13.43815 2.789,-6.33875 3.0426,-10.90265 0.5071,-4.5639 -2.0284,-7.0994 -2.282,-2.5355 -8.3672,-2.5355 z"
         id="path4753"
         inkscape:connector-curvature="0" />
    </g>
  </g>
</svg>
