<?xml version="1.0" encoding="UTF-8" standalone="no"?>
<!-- Created with Inkscape (http://www.inkscape.org/) -->

<svg
   xmlns:dc="http://purl.org/dc/elements/1.1/"
   xmlns:cc="http://creativecommons.org/ns#"
   xmlns:rdf="http://www.w3.org/1999/02/22-rdf-syntax-ns#"
   xmlns:svg="http://www.w3.org/2000/svg"
   xmlns="http://www.w3.org/2000/svg"
   xmlns:sodipodi="http://sodipodi.sourceforge.net/DTD/sodipodi-0.dtd"
   xmlns:inkscape="http://www.inkscape.org/namespaces/inkscape"
   width="29.616987mm"
   height="69.796989mm"
   viewBox="0 0 29.616987 69.796989"
   version="1.1"
   id="svg7685"
   inkscape:version="0.92.3 (2405546, 2018-03-11)"
   sodipodi:docname="stages-elementary.svg">
  <defs
     id="defs7679" />
  <sodipodi:namedview
     id="base"
     pagecolor="#ffffff"
     bordercolor="#666666"
     borderopacity="1.0"
     inkscape:pageopacity="0.0"
     inkscape:pageshadow="2"
     inkscape:zoom="0.35"
     inkscape:cx="-602.60232"
     inkscape:cy="143.32838"
     inkscape:document-units="mm"
     inkscape:current-layer="layer1"
     showgrid="false"
     fit-margin-top="0"
     fit-margin-left="0"
     fit-margin-right="0"
     fit-margin-bottom="0"
     inkscape:window-width="1920"
     inkscape:window-height="1001"
     inkscape:window-x="-9"
     inkscape:window-y="-9"
     inkscape:window-maximized="1" />
  <metadata
     id="metadata7682">
    <rdf:RDF>
      <cc:Work
         rdf:about="">
        <dc:format>image/svg+xml</dc:format>
        <dc:type
           rdf:resource="http://purl.org/dc/dcmitype/StillImage" />
        <dc:title />
      </cc:Work>
    </rdf:RDF>
  </metadata>
  <g
     inkscape:label="Layer 1"
     inkscape:groupmode="layer"
     id="layer1"
     transform="translate(209.84421,-116.95864)">
    <g
       style="display:inline;fill:#81d7c0;fill-opacity:1"
       transform="matrix(0.26458333,0,0,-0.26458333,-194.086,119.97933)"
       id="g845">
      <path
         inkscape:connector-curvature="0"
         id="path847"
         style="fill:#81d7c0;fill-opacity:1;fill-rule:nonzero;stroke:none"
         d="m 0,0 c -0.536,0.804 -1.874,-0.444 -1.874,-0.444 0,0 0.713,-1.337 1.159,-1.337 0.444,0 1.247,0.982 0.715,1.781 m -17.289,-91.696 c 0.18,-3.385 1.335,-7.929 1.335,-7.929 0,0 -0.177,4.632 0.447,7.575 0.625,2.937 0.625,5.435 0.625,5.435 l -2.584,1.246 c 0,0 0,-2.94 0.177,-6.327 m -15.407,63.637 c 0,0 -1.304,1.161 -1.304,1.862 0,0.702 0.493,1.478 0.493,1.864 0,0.387 -0.702,1.435 -0.702,1.435 l -1.041,-1.951 -0.78,-3.635 z m 43.574,-0.297 c 0,0 1.43,-1.166 2.467,-2.337 1.042,-1.171 2.991,-3.637 5.72,-11.693 2.727,-8.057 1.556,-29.496 1.556,-30.666 0,-1.17 2.209,-3.25 4.809,-5.849 2.599,-2.595 4.678,-7.145 6.496,-9.744 1.819,-2.598 2.598,-8.575 6.369,-17.279 3.767,-8.707 13.251,-29.888 14.03,-32.874 0.779,-2.992 -7.014,-4.68 -7.925,-5.719 -0.911,-1.039 0.388,-1.69 -2.726,-2.21 -3.12,-0.518 -15.595,-7.664 -15.595,-7.664 0,0 -1.82,-3.77 -3.12,-8.059 -1.299,-4.285 -2.338,-13.379 -1.95,-16.888 0.392,-3.51 4.55,-5.328 10.917,-15.462 6.369,-10.135 7.148,-24.297 8.706,-28.458 1.561,-4.159 2.857,-5.064 3.248,-5.974 0.393,-0.911 0.393,-3.507 0.78,-4.679 0.39,-1.17 5.586,-7.277 5.198,-8.577 -0.39,-1.299 -4.028,-4.937 -8.448,-7.924 -4.414,-2.989 -11.043,-1.69 -14.681,-1.69 -3.636,0 -2.986,3.377 -0.39,5.07 2.598,1.687 6.369,10.78 6.369,12.6 0,1.821 -1.82,5.719 -3.899,12.736 -2.08,7.015 -16.113,25.076 -18.452,28.716 -2.336,3.637 -5.587,5.974 -7.406,10.78 -1.817,4.812 0.65,20.401 0.65,20.401 l -3.509,0.912 c 0,0 -0.649,-8.663 -1.686,-12.475 -1.042,-3.81 1.166,-13.512 3.895,-26.117 2.728,-12.604 3.25,-32.094 3.378,-34.562 0.13,-2.469 1.691,-5.588 2.209,-7.796 0.52,-2.208 1.171,-3.766 0.911,-6.237 -0.263,-2.466 -4.941,-2.729 -8.576,-2.859 -3.638,-0.129 -12.215,-0.648 -15.331,-0.908 -3.121,-0.261 -4.421,1.687 -3.25,2.859 1.17,1.169 4.548,2.466 5.328,3.117 0.779,0.649 8.444,7.668 8.966,8.317 0.52,0.651 -5.067,16.501 -8.578,28.194 -3.506,11.694 -5.325,21.832 -5.458,25.076 -0.129,3.25 -1.167,13.514 -1.167,16.764 0,3.25 -1.429,12.345 -3.377,18.579 -1.95,6.239 -3.122,18.193 -3.122,18.193 0,0 -4.935,0.651 -8.313,1.946 -3.379,1.301 -11.823,11.306 -14.423,17.672 -2.6,6.369 -11.435,62.238 -11.044,66.138 0.387,3.899 1.038,5.456 3.249,7.795 2.207,2.34 6.495,6.106 6.495,6.106 0,0 -0.391,2.213 -0.391,3.508 0,1.301 0.782,0.783 0.782,0.783 0,0 0.517,0.518 0.517,1.166 0,0.651 0.78,0.263 0.78,0.263 0,0 1.299,0.909 1.299,1.558 0,0.65 0.78,1.299 0.78,1.299 0,0 0.782,0.651 1.04,1.3 0.259,0.65 1.3,0.517 1.3,0.517 0,0 0.65,1.3 0.908,1.821 0.264,0.52 4.028,-1.299 4.028,-1.299 l 2.208,1.299 2.472,-1.17 c 0,0 0.908,0.52 0.908,1.17 0,0.65 -1.429,0.908 -1.688,1.299 -0.262,0.393 0,2.208 0,2.208 0,0 -1.82,1.042 -2.342,1.821 -0.517,0.779 3.25,5.328 3.512,6.235 0.259,0.909 0,2.86 -0.911,4.289 -0.91,1.428 -1.171,4.29 1.17,7.664 2.337,3.379 7.015,5.33 14.943,6.629 7.923,1.299 15.981,-6.756 15.981,-6.756 0,0 2.987,2.469 6.758,0.127 3.769,-2.336 3.636,-3.636 6.235,-14.288 2.599,-10.658 0.779,-17.022 0.779,-17.022 0,0 0,3.245 -1.037,7.923 -1.011,4.532 -2.259,7.602 -2.337,7.788 z M -55.34,-71.913 c 0.8,-2.673 1.694,-10.96 2.764,-15.862 1.069,-4.902 3.386,-17.735 4.989,-21.297 1.605,-3.565 8.288,-15.595 12.385,-17.376 4.099,-1.786 9.983,-2.585 9.983,-2.585 0,0 1.603,8.912 1.603,12.474 0,3.566 0.535,9.445 0.535,9.445 0,0 -4.901,12.478 -5.88,18.534 -0.982,6.063 -1.872,11.052 -2.408,13.903 -0.533,2.854 -4.545,16.396 -4.811,17.644 -0.269,1.251 -8.379,15.774 -8.821,17.291 -0.447,1.513 -2.051,2.403 -2.143,2.85 -0.086,0.445 -0.889,1.96 -0.889,1.96 0,0 -2.319,-3.208 -4.634,-4.723 -2.317,-1.512 -5.88,-2.942 -5.88,-4.276 0,-1.338 2.403,-25.309 3.207,-27.982" />
    </g>
  </g>
</svg>
