<?xml version="1.0" encoding="UTF-8" standalone="no"?>
<!-- Created with Inkscape (http://www.inkscape.org/) -->

<svg
   xmlns:dc="http://purl.org/dc/elements/1.1/"
   xmlns:cc="http://creativecommons.org/ns#"
   xmlns:rdf="http://www.w3.org/1999/02/22-rdf-syntax-ns#"
   xmlns:svg="http://www.w3.org/2000/svg"
   xmlns="http://www.w3.org/2000/svg"
   xmlns:sodipodi="http://sodipodi.sourceforge.net/DTD/sodipodi-0.dtd"
   xmlns:inkscape="http://www.inkscape.org/namespaces/inkscape"
   width="26.164072mm"
   height="56.717224mm"
   viewBox="0 0 26.164072 56.717224"
   version="1.1"
   id="svg7116"
   inkscape:version="0.92.3 (2405546, 2018-03-11)"
   sodipodi:docname="stages-preschool.svg">
  <defs
     id="defs7110" />
  <sodipodi:namedview
     id="base"
     pagecolor="#ffffff"
     bordercolor="#666666"
     borderopacity="1.0"
     inkscape:pageopacity="0.0"
     inkscape:pageshadow="2"
     inkscape:zoom="0.35"
     inkscape:cx="-1101.9846"
     inkscape:cy="-299.81708"
     inkscape:document-units="mm"
     inkscape:current-layer="layer1"
     showgrid="false"
     fit-margin-top="0"
     fit-margin-left="0"
     fit-margin-right="0"
     fit-margin-bottom="0"
     inkscape:window-width="1920"
     inkscape:window-height="1001"
     inkscape:window-x="-9"
     inkscape:window-y="-9"
     inkscape:window-maximized="1" />
  <metadata
     id="metadata7113">
    <rdf:RDF>
      <cc:Work
         rdf:about="">
        <dc:format>image/svg+xml</dc:format>
        <dc:type
           rdf:resource="http://purl.org/dc/dcmitype/StillImage" />
        <dc:title />
      </cc:Work>
    </rdf:RDF>
  </metadata>
  <g
     inkscape:label="Layer 1"
     inkscape:groupmode="layer"
     id="layer1"
     transform="translate(-119.96558,-312.48663)">
    <g
       style="display:inline;fill:#9966cc;fill-opacity:1"
       transform="matrix(0.26458333,0,0,-0.26458333,139.39884,333.0342)"
       id="g881">
      <path
         inkscape:connector-curvature="0"
         id="path883"
         style="fill:#9966cc;fill-opacity:1;fill-rule:evenodd;stroke:none"
         d="m 0,0 -1.184,-6.366 5.013,0.619 C 1.844,-3.927 0.566,-2.01 0,0 m -0.538,70.775 c 5.999,-5.141 8.84,-10.496 8.131,-18.677 -0.291,-3.373 -1.72,-6.6 -3.564,-9.244 -2.467,-3.547 -6.116,-5.873 -8.543,-9.468 -1.003,1.069 -1.44,1.112 -2.798,1.42 -0.934,-5.984 5.445,-7.675 6.176,-13.097 l 4.097,-1.594 c 4.94,-6.664 8.688,-14.288 12.94,-21.543 l 2.042,-7.53 c -0.588,-3.896 -1.009,-5.6 -2.749,-9.005 -4.887,-1.942 -8.752,-1.768 -13.922,-0.45 -0.349,-8.205 0.217,-15.547 0.791,-23.712 l -0.62,-0.534 c 0.207,-2.455 0.766,-4.406 1.873,-6.496 1.803,-5.815 3.599,-11.344 4.713,-17.343 2.196,-5.574 3.941,-10.773 5.491,-16.591 l -4.022,-1.156 c 0.207,-0.423 0.413,-0.853 0.628,-1.285 5.866,-8.019 7.169,-14.092 7.891,-24.325 0.967,-5.125 0.837,-7.713 1.789,-12.835 2.174,-4.223 7.259,-8.056 5.118,-13.096 -5.155,-0.695 -9.553,-1.684 -14.641,0.047 -0.603,4.47 0.308,9.615 -0.118,14.262 -1.355,6.197 -4.407,11.107 -7.078,16.798 -1.866,5.692 -3.158,11.678 -5.971,16.873 l -3.738,-0.814 -2.465,8.259 c -1.838,2.893 -4.017,5.559 -5.512,8.682 -1.176,2.459 -1.612,5.256 -2.42,7.884 -0.974,-8.784 -0.93,-15.428 0.026,-24.322 l -4.255,0.328 c 0.477,-3.858 1.689,-7.816 0.987,-11.727 -1.474,-8.231 -6.978,-20.814 -2.214,-28.162 0.05,-2.032 0.073,-4.035 0.019,-6.064 -2.271,-0.306 -4.36,-1.341 -6.253,0.281 l -5.5,-2.315 c -5.187,-0.93 -21.77,-2.999 -12.551,6.846 6.514,3.213 11.009,6.499 13.101,14.35 -0.362,9.286 0.026,18.547 -0.345,27.776 l -4.611,2.156 1.461,11.79 -0.649,12.338 c -0.341,7.513 0.386,13.604 1.59,21.32 l -4.128,2.364 c 0.726,8.943 2.051,16.841 3.978,25.479 0.058,4.244 0.252,8.423 0.5,12.651 -5.396,-2.981 -12.033,-10.552 -16.615,-3.139 -3.188,6.357 -6.093,13.983 -7.839,20.963 4.262,4.687 -1.929,5.751 -4.477,7.934 -2.3,1.719 -5.78,4.497 -7.391,7.485 -0.732,1.359 -1.687,2.429 -1.06,4.11 1.7,1.476 -1.084,4.828 2.142,3.957 2.086,-1.964 4.143,-3.399 6.481,-4.967 -0.802,1.329 -5.882,6.345 -4.766,7.287 3.049,2.569 9.79,-11.834 8.771,-4.276 -0.58,1.735 -1.903,4.354 0.646,4.131 1.794,-4.145 3.94,-7.007 5.152,-11.439 -0.357,-2.899 -0.36,-4.504 0.195,-7.389 1.951,-1.083 1.408,1.729 1.731,-0.669 1.304,-4.039 5.428,-12.141 8.346,-14.599 1.591,3.248 11.031,12.207 13.945,14.015 -1.648,2.937 -0.062,1.951 2.518,2.138 2.292,4.343 3.385,4.345 7.642,5.75 l 0.855,2.587 -4.058,0.35 c -3.635,1.239 -3.001,4.134 -4.448,7.715 -2.843,5.919 1.047,9.586 1.945,15.318 -0.032,3.839 1.011,6.732 2.429,10.215 l -2.424,0.121 c 3.997,6.218 8.206,12.296 15.185,6.319 3.979,-0.406 6.854,-2.393 10.42,-4.436" />
    </g>
  </g>
</svg>
