<?xml version="1.0" encoding="UTF-8" standalone="no"?>
<!-- Created with Inkscape (http://www.inkscape.org/) -->

<svg
   xmlns:dc="http://purl.org/dc/elements/1.1/"
   xmlns:cc="http://creativecommons.org/ns#"
   xmlns:rdf="http://www.w3.org/1999/02/22-rdf-syntax-ns#"
   xmlns:svg="http://www.w3.org/2000/svg"
   xmlns="http://www.w3.org/2000/svg"
   xmlns:sodipodi="http://sodipodi.sourceforge.net/DTD/sodipodi-0.dtd"
   xmlns:inkscape="http://www.inkscape.org/namespaces/inkscape"
   width="27.1133mm"
   height="42.510876mm"
   viewBox="0 0 27.1133 42.510876"
   version="1.1"
   id="svg6539"
   inkscape:version="0.92.3 (2405546, 2018-03-11)"
   sodipodi:docname="stages-toddler.svg">
  <defs
     id="defs6533" />
  <sodipodi:namedview
     id="base"
     pagecolor="#ffffff"
     bordercolor="#666666"
     borderopacity="1.0"
     inkscape:pageopacity="0.0"
     inkscape:pageshadow="2"
     inkscape:zoom="2.8"
     inkscape:cx="73.619266"
     inkscape:cy="39.301531"
     inkscape:document-units="mm"
     inkscape:current-layer="layer1"
     showgrid="false"
     fit-margin-top="0"
     fit-margin-left="0"
     fit-margin-right="0"
     fit-margin-bottom="0"
     inkscape:window-width="1920"
     inkscape:window-height="1001"
     inkscape:window-x="-9"
     inkscape:window-y="-9"
     inkscape:window-maximized="1" />
  <metadata
     id="metadata6536">
    <rdf:RDF>
      <cc:Work
         rdf:about="">
        <dc:format>image/svg+xml</dc:format>
        <dc:type
           rdf:resource="http://purl.org/dc/dcmitype/StillImage" />
        <dc:title />
      </cc:Work>
    </rdf:RDF>
  </metadata>
  <g
     inkscape:label="Layer 1"
     inkscape:groupmode="layer"
     id="layer1"
     transform="translate(113.59924,-153.28027)">
    <g
       style="display:inline;fill:#fd6565;fill-opacity:1"
       transform="matrix(0.26458333,0,0,-0.26458333,-95.50921,161.80309)"
       id="g841">
      <path
         inkscape:connector-curvature="0"
         id="path843"
         style="fill:#fd6565;fill-opacity:1;fill-rule:nonzero;stroke:none"
         d="m 0,0 c -0.288,0.174 1.33,2.37 1.504,2.892 0.172,0.52 0.578,1.098 0.578,1.098 0,0 0,-0.925 -0.636,-1.908 C 0.812,1.1 0.29,-0.173 0,0 m -25.442,5.493 c -0.059,0.463 0,1.908 0,1.908 0,0 0.462,-2.197 0.634,-2.659 0.174,-0.463 0.522,-1.33 0.522,-1.33 0,0 -1.1,1.619 -1.156,2.081 m 0.867,-4.741 c -0.349,0.52 -0.579,1.33 -0.579,1.33 l -0.057,0.693 c 0.114,-0.173 0.519,-1.04 0.751,-1.329 0.231,-0.289 0.231,-1.215 -0.115,-0.694 M 3.238,7.344 C 3.065,9.194 3.47,9.426 3.47,9.426 3.47,9.426 3.76,7.17 3.527,6.477 3.419,6.148 3.283,5.794 3.171,5.512 3.075,5.115 2.95,4.973 2.95,4.973 c 0,0 0.097,0.225 0.221,0.539 0.089,0.365 0.152,0.946 0.067,1.832 m 27.835,-60.449 c -1.977,1.567 -10.039,8.023 -11.42,8.807 -1.38,0.784 -1.813,0.771 -3.101,2.409 -1.287,1.639 -5.852,3.394 -6.32,3.863 -0.468,0.467 -0.468,7.724 -0.468,8.7 0,0.975 -1.015,7.256 -1.13,9.168 -0.118,1.911 0.233,3.706 0.389,4.253 0.156,0.546 0.078,1.677 0.936,4.057 0.857,2.38 4.214,7.022 5.189,8.427 0.976,1.404 3.588,5.813 4.213,7.179 0.624,1.365 1.452,2.792 1.923,3.5 0.472,0.706 1.441,5.943 1.441,6.205 0,0.262 0.445,0.969 0.471,1.492 0.027,0.524 -0.315,1.127 -0.393,1.388 -0.078,0.261 -0.051,5.185 -0.025,5.552 0.025,0.366 0.601,0.157 1.151,0.183 0.55,0.026 1.048,0.995 1.048,1.571 0,0.576 -0.576,0.628 -0.865,0.786 -0.288,0.156 0.446,0.549 0.996,0.917 0.549,0.366 1.754,1.204 2.199,1.57 0.445,0.367 0.681,0.288 0.839,0.55 0.156,0.262 -0.394,0.628 -0.892,0.628 -0.497,0 -2.226,-0.837 -3.063,-1.125 -0.838,-0.288 -1.31,0.261 -2.225,0.471 C 21.049,27.655 20.29,27.314 19.661,27.131 19.033,26.948 17.068,27 15.759,26.791 14.45,26.582 13.142,25.456 12.354,24.984 11.568,24.513 11.098,24.513 10.364,24.199 9.632,23.885 9.346,23.256 9.501,22.837 c 0.157,-0.419 0.602,-0.262 0.916,-0.235 0.314,0.025 0.654,0.104 1.493,0.157 0.837,0.052 1.282,0.235 1.519,0.314 0.234,0.078 0.785,0 1.466,-0.079 0.681,-0.078 0.786,-0.209 1.021,-0.366 0.235,-0.158 -0.209,-3.3 -0.209,-3.692 0,-0.393 -0.209,-0.472 -0.523,-0.865 -0.314,-0.392 -0.236,-1.23 -0.236,-1.937 0,-0.707 -0.314,-1.597 -0.76,-2.488 -0.446,-0.89 -0.811,-1.938 -1.099,-3.352 C 12.8,8.88 12.329,8.042 12.251,7.78 12.172,7.519 11.753,7.649 11.361,7.571 10.969,7.493 11.098,7.1 11.098,6.838 11.098,6.576 10.679,6.576 10.156,6.55 9.632,6.524 9.764,6.393 9.764,5.921 9.764,5.45 9.789,5.477 9.396,4.979 9.003,4.48 8.925,4.534 8.585,4.534 8.243,4.534 8.087,4.376 7.983,3.801 7.878,3.225 7.616,3.303 7.379,3.303 7.144,3.303 6.698,3.25 6.437,2.779 6.176,2.308 6.412,2.203 5.495,1.522 4.578,0.842 4.918,0.842 4.841,0.475 4.761,0.107 4.499,0.239 4.107,0.344 3.715,0.448 4.002,0.004 3.504,-0.494 3.007,-0.992 1.959,-1.489 1.724,-1.804 1.488,-2.118 0.127,-0.285 0.127,-0.285 c 0,0 2.476,3.408 2.765,3.639 0.29,0.231 1.446,2.371 1.735,3.701 0.288,1.33 -0.347,4.453 -0.811,6.707 -0.462,2.256 -0.751,4.685 -1.56,7.634 -0.81,2.949 -3.933,5.608 -5.147,6.361 -1.214,0.751 -2.717,1.677 -3.18,2.37 -0.463,0.694 -2.082,0.983 -4.916,1.157 -2.832,0.174 -5.147,-0.578 -6.881,-1.618 -1.734,-1.042 -3.758,-3.297 -4.336,-4.338 -0.579,-1.041 -1.389,-2.255 -2.544,-4.8 -1.158,-2.544 -0.753,-3.874 -0.694,-4.857 0.056,-0.983 -0.406,-1.562 -1.158,-2.545 -0.752,-0.982 -0.462,-1.561 -0.405,-1.966 0.059,-0.405 0.348,0.405 0.522,0.81 0.172,0.405 0.114,-3.354 0.114,-5.493 0,-2.14 0.058,-3.47 0.579,-4.569 0.52,-1.099 0.348,-1.041 0.579,-1.387 C -24.98,0.174 -24.46,0 -24.46,0 c 0,0 0.174,-0.173 0.174,0 0,0.174 0.403,-0.925 0.519,-1.214 0.118,-0.289 0.409,-0.764 0.681,-1.193 0.274,-0.429 -1.287,0.195 -2.028,0.585 -0.741,0.39 -1.6,1.287 -2.223,2.225 -0.624,0.935 -1.132,1.013 -1.444,1.013 -0.313,0 -0.391,0.079 -0.937,0.741 -0.546,0.664 -0.897,0.976 -1.559,1.562 -0.664,0.585 -0.939,0.858 -1.25,1.521 -0.312,0.663 -0.545,1.092 -1.093,1.131 -0.546,0.039 -0.428,0.351 -0.623,0.702 -0.195,0.351 -0.78,0.663 -1.171,1.094 -0.39,0.428 -1.639,2.457 -2.77,3.588 -1.131,1.132 -2.965,3.277 -4.253,5.15 -1.288,1.872 -2.653,4.408 -2.926,4.292 -0.273,-0.117 -1.247,1.325 -2.184,2.847 -0.936,1.522 -3.355,4.136 -4.057,4.76 -0.703,0.624 -3.161,1.288 -4.136,1.365 -0.975,0.078 -2.497,-0.35 -3.159,-0.39 -0.664,-0.039 -1.131,0.429 -1.484,0.663 -0.35,0.234 -2.534,1.21 -3.511,1.64 -0.975,0.429 -1.522,-0.313 -1.522,-0.625 0,-0.312 1.443,-0.897 2.458,-1.6 1.016,-0.702 1.561,-1.327 1.601,-1.716 0.038,-0.391 -1.054,-0.624 -2.146,-0.975 -1.095,-0.352 -2.146,-0.625 -3.356,-0.937 -1.209,-0.312 -1.638,-0.429 -1.482,-1.014 0.155,-0.585 1.717,-0.274 2.847,-0.274 1.133,0 0.896,-0.506 0.937,-0.74 0.038,-0.235 -2.653,-0.352 -3.082,-0.43 -0.429,-0.078 -0.195,-0.781 -0.078,-1.014 0.117,-0.235 1.093,-0.312 1.483,-0.429 0.389,-0.117 2.458,-0.078 3.122,-0.04 0.661,0.04 0.779,0.196 1.287,0.196 0.506,0 1.092,0.078 1.716,0.273 0.624,0.195 1.522,1.092 1.911,1.248 0.39,0.157 2.808,0.078 3.59,0.039 0.78,-0.039 1.131,-1.21 1.754,-2.418 0.625,-1.21 1.445,-3.785 1.562,-4.058 0.116,-0.273 -0.546,-0.351 -0.429,-0.702 0.117,-0.351 2.263,-4.097 3.12,-5.657 0.859,-1.561 3.122,-4.643 4.292,-6.125 1.17,-1.483 1.951,-2.653 2.185,-3.161 0.234,-0.507 2.262,-3.12 3.785,-5.189 1.521,-2.067 2.964,-3.003 3.198,-3.706 0.234,-0.702 1.483,-1.677 2.497,-2.496 1.014,-0.82 2.77,-2.692 5.423,-6.554 2.653,-3.863 5.501,-12.68 6.242,-14.514 0.741,-1.833 1.443,-5.735 1.483,-6.944 0.039,-1.209 -2.381,-1.366 -3.316,-1.366 -0.938,0 -1.638,-1.013 -3.043,-2.262 -1.405,-1.248 -3.787,-2.614 -5.618,-3.98 -1.834,-1.365 -3.121,-2.731 -3.902,-4.096 -0.78,-1.365 -2.921,-4.606 -3.404,-5.342 -0.483,-0.737 -0.787,-0.965 -0.762,-1.295 0.024,-0.33 -0.253,-0.483 -0.584,-0.888 -0.33,-0.407 -1.473,-0.61 -2.488,-1.575 -1.015,-0.966 -0.889,-1.727 -0.991,-1.955 -0.102,-0.229 4.342,0.355 4.723,0.304 0.381,-0.05 -2.718,-3.479 -2.971,-3.784 -0.254,-0.303 0.991,-1.167 1.244,-1.446 0.254,-0.279 0.533,-0.178 1.575,-0.152 1.042,0.025 3.579,-0.483 3.784,-0.585 0.202,-0.102 -0.128,-1.015 -0.128,-1.269 0,-0.254 0.965,-0.33 1.271,-0.534 0.303,-0.203 0.126,-0.711 0.431,-0.964 0.305,-0.255 0.635,-0.178 0.837,0.025 0.203,0.203 3.886,-1.676 4.901,-1.981 1.016,-0.304 1.422,-1.27 1.957,-1.625 0.532,-0.355 0.828,0.307 1.121,0.208 0.26,-0.089 0.319,-0.543 0.521,-0.543 0.203,0 0.488,0.078 0.718,-0.125 0.228,-0.202 0.304,-1.317 0.559,-2.968 0.254,-1.651 0.305,-5.942 0.354,-7.871 0.053,-1.93 -0.532,-4.317 -1.091,-6.983 -0.558,-2.667 -1.066,-8.355 -1.014,-11.224 0.049,-2.869 0.405,-7.719 0.329,-8.024 -0.077,-0.304 -0.558,-0.431 -0.913,-1.066 -0.356,-0.635 -0.255,-4.469 -0.332,-5.13 -0.075,-0.66 0.051,-1.447 0.483,-1.675 0.433,-0.229 0.508,-0.61 0.508,-1.245 0,-0.634 -0.407,-2.107 -0.787,-3.148 -0.381,-1.041 -0.559,-1.32 -1.245,-2.59 -0.685,-1.27 -0.304,-2.819 0.026,-3.352 0.33,-0.533 7.135,-0.558 9.191,-0.356 2.057,0.203 1.677,2.768 1.753,4.19 0.075,1.423 0.278,1.499 0.609,2.235 0.33,0.736 0.025,2.508 0.025,2.977 0,0.467 0.154,1.248 0.78,1.404 0.623,0.156 0.312,4.993 0.312,6.086 0,1.092 -0.703,1.483 -1.015,1.716 -0.311,0.235 0.468,4.214 0.936,5.931 0.468,1.716 1.171,5.072 1.404,6.944 0.235,1.873 0.937,5.696 1.717,7.1 0.781,1.405 1.561,4.058 1.872,5.931 0.313,1.872 1.014,6.008 1.172,8.037 0.117,1.521 0.113,2.821 0.492,3.235 0.127,0.138 0.64,-0.017 0.756,-0.036 0.469,-0.078 0,-2.497 0.079,-3.901 0.077,-1.405 -0.547,-4.292 -1.016,-6.32 -0.469,-2.03 -0.024,-3.877 0.349,-5.183 0.374,-1.306 -0.037,-6.419 -0.074,-8.845 -0.037,-2.425 0.672,-8.806 0.746,-9.477 0.075,-0.673 -0.225,-0.598 -0.859,-0.747 -0.633,-0.15 -0.446,-0.971 -0.446,-2.015 0,-1.046 0,-2.239 -0.225,-2.724 -0.222,-0.485 0,-0.859 0.524,-1.232 0.52,-0.374 0.52,-0.821 0.781,-1.642 0.262,-0.821 0.037,-2.873 -0.036,-3.881 -0.042,-0.57 -0.202,-2.356 -0.075,-3.829 0.097,-1.127 -0.153,-2.236 1.418,-3.186 0.825,-0.498 2.127,-0.261 2.575,-0.261 0.448,0 0.56,-0.486 1.194,-1.008 0.634,-0.522 6.68,-0.373 8.769,-0.15 2.091,0.224 1.382,2.277 0.149,3.733 -1.231,1.455 -2.723,3.395 -3.805,4.514 -1.083,1.12 -0.821,1.344 -0.821,1.755 v 2.649 c 0,0.447 0.56,0.373 1.007,0.41 0.447,0.039 0.225,1.531 0.112,1.942 -0.112,0.409 0.335,1.939 0.634,3.208 0.299,1.269 -0.185,1.381 -0.634,1.642 -0.448,0.262 0,1.68 0.412,4.217 0.409,2.537 0.894,11.308 0.894,14.405 0,3.097 0.523,4.366 0.933,6.306 0.411,1.941 3.546,9.852 3.769,10.524 0.224,0.67 3.06,0.67 3.956,0.858 0.896,0.186 1.119,1.381 1.53,1.754 0.412,0.373 1.119,-1.866 1.344,-2.314 0.222,-0.448 3.171,1.232 3.844,1.493 0.671,0.26 0.372,0 0.522,-0.224 0.149,-0.224 1.006,0.298 2.948,0.895 1.94,0.597 1.231,0.56 1.231,0.896 0,0.337 0.746,0.373 1.568,0.448 0.82,0.074 0.932,0.709 1.38,0.783 0.449,0.075 0.374,1.232 0.335,1.792 -0.037,0.559 3.434,3.172 4.74,4.851 1.306,1.679 0.747,2.761 0.412,3.247 -0.337,0.484 0.148,0.783 0.596,1.306 0.447,0.522 -0.972,1.231 -2.948,2.798" />
    </g>
  </g>
</svg>
