<?xml version="1.0" encoding="UTF-8" standalone="no"?>
<!-- Created with Inkscape (http://www.inkscape.org/) -->

<svg
   xmlns:dc="http://purl.org/dc/elements/1.1/"
   xmlns:cc="http://creativecommons.org/ns#"
   xmlns:rdf="http://www.w3.org/1999/02/22-rdf-syntax-ns#"
   xmlns:svg="http://www.w3.org/2000/svg"
   xmlns="http://www.w3.org/2000/svg"
   xmlns:sodipodi="http://sodipodi.sourceforge.net/DTD/sodipodi-0.dtd"
   xmlns:inkscape="http://www.inkscape.org/namespaces/inkscape"
   width="42.03698mm"
   height="25.812307mm"
   viewBox="0 0 42.03698 25.812307"
   version="1.1"
   id="svg5358"
   inkscape:version="0.92.3 (2405546, 2018-03-11)"
   sodipodi:docname="stages-infant.svg">
  <defs
     id="defs5352" />
  <sodipodi:namedview
     id="base"
     pagecolor="#ffffff"
     bordercolor="#666666"
     borderopacity="1.0"
     inkscape:pageopacity="0.0"
     inkscape:pageshadow="2"
     inkscape:zoom="1.4"
     inkscape:cx="216.1909"
     inkscape:cy="135.81188"
     inkscape:document-units="mm"
     inkscape:current-layer="layer1"
     showgrid="false"
     fit-margin-top="0"
     fit-margin-left="0"
     fit-margin-right="0"
     fit-margin-bottom="0"
     inkscape:window-width="1920"
     inkscape:window-height="1001"
     inkscape:window-x="-9"
     inkscape:window-y="-9"
     inkscape:window-maximized="1" />
  <metadata
     id="metadata5355">
    <rdf:RDF>
      <cc:Work
         rdf:about="">
        <dc:format>image/svg+xml</dc:format>
        <dc:type
           rdf:resource="http://purl.org/dc/dcmitype/StillImage" />
        <dc:title />
      </cc:Work>
    </rdf:RDF>
  </metadata>
  <g
     inkscape:label="Layer 1"
     inkscape:groupmode="layer"
     id="layer1"
     transform="translate(117.02444,-242.51647)">
    <g
       style="display:inline;fill:#33cccd;fill-opacity:1"
       transform="matrix(0.26458333,0,0,-0.26458333,-83.920041,254.50928)"
       id="g837">
      <path
         inkscape:connector-curvature="0"
         id="path839"
         style="fill:#33cccd;fill-opacity:1;fill-rule:evenodd;stroke:none"
         d="M 0,0 C 0.937,1.67 1.929,3.327 2.673,5.084 2.992,5.836 2.777,6.827 2.752,7.707 2.721,8.786 2.315,9.029 1.235,8.578 -0.08,8.025 -1.138,7.238 -1.861,6.053 -2.79,4.537 -4.15,3.898 -5.85,3.913 c -2.702,0.022 -4.744,-1.07 -7.433,-0.876 -3.62,0.264 -7.223,0.718 -10.495,-1.439 -0.181,-0.12 -0.415,-0.192 -0.634,-0.221 -4.709,-0.627 -10.055,-0.606 -14.851,10e-4 -0.287,0.037 -0.558,0.171 -0.838,0.26 0.307,0.128 0.628,0.232 0.917,0.392 0.678,0.375 1.348,0.766 2.008,1.172 0.741,0.454 1.415,1.06 2.207,1.366 1.061,0.409 1,0.978 0.657,1.845 -0.824,2.082 -0.887,2.361 1,2.99 2.445,0.816 2.41,3.415 3.976,4.807 0.153,0.136 -0.167,1.067 -0.491,1.423 -1.129,1.241 -2.149,2.371 -0.735,4.116 0.274,0.34 -0.182,1.202 -0.136,1.812 0.156,2.126 0.347,4.252 0.598,6.37 0.263,2.226 -0.179,4.203 -1.448,6.102 -3.364,5.03 -7.813,8.355 -13.843,9.516 -1.476,0.738 -1.791,1.105 -5.68,1.699 -5.21,0.432 -8.798,-1.045 -8.798,-1.045 -2.597,-1.693 -5.147,-3.468 -7.809,-5.051 -2.107,-1.255 -3.443,-3.144 -3.869,-5.351 -0.616,-3.181 -0.864,-6.466 -0.934,-9.713 -0.062,-2.994 1.04,-5.743 2.796,-8.199 0.46,-0.641 0.915,-1.292 1.309,-1.974 0.857,-1.489 0.648,-2.606 -0.721,-3.491 -6.418,-4.148 -12.485,-8.863 -19.456,-12.121 -1.378,-0.644 -2.578,-1.892 -4.331,-1.332 -0.097,0.032 -0.233,0 -0.332,-0.045 -5.718,-2.652 -11.788,-4.806 -15.475,-10.434 -0.793,-1.211 -1.478,-2.568 -1.865,-3.953 -0.941,-3.357 -1.679,-6.77 -2.501,-10.161 -0.077,-0.32 -0.167,-0.639 -0.251,-0.959 -0.356,0.255 -0.788,0.451 -1.052,0.78 -0.424,0.524 -0.676,1.187 -1.11,1.699 -1.553,1.843 -3.402,1.724 -4.623,-0.396 -0.669,-1.161 -1.084,-2.48 -1.534,-3.755 -0.794,-2.235 -1.638,-4.426 -3.492,-6.041 l 0.642,-5.415 c 1.648,-0.687 2.417,-2.163 3.294,-3.572 0.321,-0.515 1.201,-1.314 1.303,-1.241 1.71,1.202 2.15,-0.325 2.782,-1.261 1.181,-1.75 2.801,-2.875 4.698,-3.738 2.233,-1.019 4.371,-0.931 6.501,0.197 1.678,0.889 3.158,2.095 5.182,2.376 1.028,0.143 1.976,0.969 2.279,2.27 0.357,1.528 0.946,3.001 1.383,4.513 0.351,1.21 0.754,1.459 1.915,0.9 1.324,-0.637 2.561,-1.472 3.919,-2.011 2.715,-1.077 5.47,-2.06 8.241,-2.988 2.025,-0.679 4.074,-0.512 5.838,0.707 1.286,0.888 1.893,0.525 2.728,-0.606 1.923,-2.609 4.717,-3.394 7.813,-3.119 1.517,0.134 2.832,0.093 4.136,-0.926 1.113,-0.868 1.422,-0.626 2.01,0.876 0.555,1.408 1.82,2.091 3.487,1.776 0.66,-0.123 1.271,-0.513 1.931,-0.636 0.358,-0.065 1.113,0.186 1.111,0.281 -0.055,2.362 1.225,0.956 2.071,0.764 1.274,-0.29 2.248,0.594 1.996,1.869 -0.282,1.424 -1.079,2.466 -2.49,2.961 -2.27,0.795 -4.619,0.966 -6.997,0.814 -3.667,-0.235 -3.799,-0.313 -5.553,2.915 -1.004,1.85 -1.54,3.965 -2.164,5.999 -0.093,0.302 0.408,1.043 0.787,1.195 3.92,1.564 6.678,4.559 9.492,7.502 0.623,0.653 1.286,1.271 1.973,1.857 3.18,2.708 6.431,5.336 9.542,8.118 1.858,1.659 4.041,2.366 6.371,2.903 3.837,0.883 7.648,0.298 11.449,-0.2 1.748,-0.229 3.317,-0.122 4.904,0.723 1.056,0.561 2.236,0.713 3.521,0.763 1.866,0.072 4.861,2.167 6.705,2.671 0.757,0.206 1.534,0.419 2.224,0.78 C -7.185,-4.753 -0.719,-1.282 0,0" />
    </g>
    <g
       style="display:inline;fill:#33cccd;fill-opacity:1"
       transform="matrix(0.26458333,0,0,-0.26458333,-76.680168,260.54019)"
       id="g849">
      <path
         inkscape:connector-curvature="0"
         id="path851"
         style="fill:#33cccd;fill-opacity:1;fill-rule:evenodd;stroke:none"
         d="M 0,0 C 0,-0.285 0.006,-0.572 -0.004,-0.858 -0.018,-1.375 0.193,-1.515 0.674,-1.309 1.946,-0.761 3.267,-0.308 4.491,0.328 6.415,1.327 6.499,1.579 6.348,3.679 6.305,4.291 6.215,4.352 5.728,3.993 4.333,2.966 2.787,2.241 1.168,1.655 -0.018,1.227 -0.018,1.227 0,0 m -44.005,3.082 c -0.387,-1.304 0.461,-1.939 1.394,-2.443 1.074,-0.582 2.173,-1.151 3.322,-1.561 1.986,-0.71 1.781,-1.024 1.83,1.3 0.012,0.648 -0.265,0.904 -0.824,1.147 -1.533,0.665 -3.031,1.406 -4.537,2.131 -0.357,0.173 -0.689,0.399 -1.032,0.601 -0.051,-0.391 -0.102,-0.783 -0.153,-1.175 m 29.476,-6.961 c 3.648,0.297 7.274,0.666 10.85,1.443 1.795,0.391 1.799,0.373 1.725,2.181 -0.004,0.083 -0.007,0.165 -0.004,0.246 0.019,0.513 -0.253,0.641 -0.703,0.533 -0.16,-0.039 -0.32,-0.077 -0.48,-0.113 -4.209,-0.977 -8.484,-1.43 -12.795,-1.574 -2.008,-0.068 -1.996,-0.051 -1.833,-2.078 0.037,-0.459 0.175,-0.661 0.658,-0.647 0.86,0.026 1.721,0.009 2.582,0.009 m -8.578,0.104 c 0.491,-0.024 0.983,-0.053 1.475,-0.071 2.095,-0.078 2.116,-0.042 1.924,2.047 -0.035,0.395 -0.146,0.615 -0.572,0.605 -0.329,-0.008 -0.658,0.008 -0.985,0.019 -4.187,0.139 -8.345,0.522 -12.443,1.438 -1.924,0.428 -1.909,0.413 -1.824,-1.61 0.022,-0.534 0.145,-0.861 0.736,-0.892 0.241,-0.012 0.479,-0.114 0.718,-0.165 3.616,-0.777 7.279,-1.193 10.971,-1.371 m 5.993,-25.064 c 2.051,-0.021 5.691,0.237 9.31,0.777 3.213,0.477 6.389,1.126 9.378,2.432 1.118,0.488 2.187,1.118 3.2,1.8 1.216,0.82 1.726,2.025 1.58,3.515 -0.048,0.483 -0.156,0.536 -0.579,0.347 -1.458,-0.65 -2.905,-1.334 -4.403,-1.875 -0.883,-0.32 -1.623,-0.579 -1.403,-1.729 0.027,-0.147 -0.015,-0.38 -0.115,-0.464 -0.266,-0.218 -0.575,-0.5 -0.883,-0.521 -0.248,-0.018 -0.556,0.274 -0.77,0.495 -0.121,0.127 -0.139,0.385 -0.142,0.585 -0.007,0.517 -0.24,0.609 -0.71,0.504 -4.663,-1.044 -9.401,-1.468 -14.167,-1.619 -0.513,-0.017 -0.986,0.016 -1.022,-0.724 -0.021,-0.455 -0.392,-0.72 -0.846,-0.751 -0.459,-0.032 -0.874,0.212 -0.918,0.649 -0.082,0.812 -0.575,0.819 -1.192,0.833 -4.564,0.106 -9.09,0.577 -13.57,1.472 -0.605,0.121 -1.198,0.426 -1.28,-0.618 -0.036,-0.426 -0.483,-0.66 -0.944,-0.606 -0.45,0.053 -0.742,0.331 -0.825,0.789 -0.037,0.2 -0.059,0.408 -0.054,0.611 0.013,0.437 -0.192,0.661 -0.607,0.793 -1.877,0.597 -3.738,1.233 -5.444,2.252 -0.179,0.109 -0.41,0.172 -0.418,-0.171 -0.023,-0.989 -0.071,-2.01 0.649,-2.8 0.519,-0.571 1.1,-1.116 1.736,-1.544 1.793,-1.203 3.829,-1.862 5.888,-2.424 5.545,-1.517 11.216,-1.992 18.551,-2.008 m -1.655,29.526 c 2.338,0.125 4.678,0.204 7.01,0.382 3.485,0.268 6.93,0.826 10.286,1.802 1.886,0.549 3.788,1.14 5.414,2.296 0.724,0.514 1.411,1.141 1.947,1.842 0.686,0.894 0.654,1.936 0.004,2.873 -0.321,0.463 -0.741,0.876 -1.175,1.243 -1.077,0.912 -2.341,1.506 -3.649,2.007 -5.203,1.994 -10.662,2.631 -16.166,2.898 -4.266,0.207 -8.539,0.089 -12.79,-0.441 -3.673,-0.457 -7.297,-1.12 -10.765,-2.465 -1.344,-0.522 -2.618,-1.173 -3.754,-2.074 -1.97,-1.565 -2.025,-3.553 -0.076,-5.17 0.657,-0.546 1.401,-1.011 2.165,-1.395 2.436,-1.225 5.052,-1.939 7.712,-2.461 4.564,-0.895 9.18,-1.306 13.837,-1.337 M 6.36,-9.091 v 6.657 c 0,0.287 -0.008,0.576 -0.002,0.862 0.011,0.449 -0.115,0.561 -0.572,0.361 -1.648,-0.722 -3.3,-1.443 -4.983,-2.075 -0.616,-0.231 -0.849,-0.526 -0.818,-1.155 0.03,-0.613 0.009,-1.233 -0.045,-1.844 -0.046,-0.517 -0.378,-0.818 -0.905,-0.824 -0.526,-0.006 -0.858,0.279 -0.93,0.797 -0.055,0.405 -0.046,0.818 -0.058,1.229 -0.027,0.979 -0.028,0.992 -0.95,0.796 -3.581,-0.757 -7.204,-1.206 -10.856,-1.414 -0.985,-0.056 -1.97,-0.1 -2.954,-0.145 -1.036,-0.045 -1.037,-0.042 -1.051,-1.127 -0.003,-0.328 0.012,-0.657 -0.004,-0.985 -0.04,-0.87 -0.369,-1.332 -0.945,-1.349 -0.585,-0.016 -0.953,0.449 -0.992,1.298 -0.025,0.533 -0.012,1.068 -0.012,1.602 -0.001,0.337 -0.125,0.548 -0.501,0.545 -0.287,-0.003 -0.578,0.003 -0.862,0.025 -2.742,0.219 -5.488,0.392 -8.223,0.682 -1.752,0.186 -3.483,0.541 -5.222,0.836 -0.982,0.168 -0.981,0.182 -0.997,-0.852 -0.005,-0.411 0.018,-0.823 -0.011,-1.232 -0.054,-0.754 -0.436,-1.192 -0.987,-1.176 -0.543,0.013 -0.902,0.451 -0.94,1.222 -0.032,0.655 -0.039,1.316 -0.004,1.971 0.033,0.594 -0.208,0.863 -0.776,1.05 -1.791,0.587 -3.592,1.16 -5.215,2.163 -0.539,0.335 -0.5,-0.111 -0.5,-0.433 -0.003,-4.931 0.007,-9.862 -0.015,-14.792 -0.002,-0.565 0.179,-0.977 0.643,-1.227 1.262,-0.674 2.503,-1.411 3.822,-1.95 2.009,-0.821 2.034,-0.759 2.034,1.36 0,0.41 -0.008,0.823 0.004,1.233 0.009,0.244 0.03,0.493 0.09,0.73 0.109,0.45 0.434,0.724 0.882,0.725 0.445,0 0.778,-0.264 0.882,-0.718 0.063,-0.276 0.082,-0.569 0.087,-0.854 0.01,-0.862 0.001,-1.726 0.005,-2.588 0.007,-1.158 10e-4,-1.217 1.169,-1.401 2.916,-0.46 5.837,-0.91 8.769,-1.262 1.626,-0.196 3.278,-0.203 4.92,-0.264 0.922,-0.036 0.933,-0.009 0.947,0.947 0.015,0.904 0,1.809 0.004,2.712 0.004,0.287 0.01,0.577 0.049,0.859 0.068,0.516 0.389,0.832 0.899,0.846 0.511,0.013 0.854,-0.284 0.939,-0.797 0.054,-0.322 0.056,-0.654 0.059,-0.981 0.008,-0.945 0.024,-1.891 -0.003,-2.835 -0.018,-0.58 0.177,-0.81 0.784,-0.77 1.558,0.106 3.121,0.132 4.676,0.25 3.236,0.247 6.448,0.663 9.614,1.405 0.559,0.131 0.757,0.347 0.746,0.894 -0.022,1.107 -0.015,2.217 0.001,3.327 0.007,0.364 -0.011,0.783 0.158,1.077 0.157,0.276 0.549,0.578 0.833,0.576 0.282,-0.003 0.648,-0.32 0.821,-0.597 0.155,-0.251 0.121,-0.633 0.126,-0.959 0.016,-0.986 0.003,-1.971 0.012,-2.957 0.002,-0.294 0.019,-0.651 0.458,-0.501 1.865,0.638 3.708,1.32 5.329,2.49 0.505,0.363 0.584,0.824 0.577,1.389 -0.018,2.382 -0.006,4.765 -0.006,7.148" />
    </g>
    <g
       style="display:inline;fill:#33cccd;fill-opacity:1"
       transform="matrix(0.26458333,0,0,-0.26458333,-74.997312,262.94546)"
       id="g853">
      <path
         inkscape:connector-curvature="0"
         id="path855"
         style="fill:#33cccd;fill-opacity:1;fill-rule:evenodd;stroke:none"
         d="m 0,0 c 0,-2.383 -0.013,-4.767 0.006,-7.148 0.007,-0.565 -0.072,-1.026 -0.577,-1.39 -1.621,-1.169 -3.464,-1.851 -5.329,-2.489 -0.44,-0.15 -0.456,0.207 -0.458,0.501 -0.009,0.985 0.004,1.971 -0.012,2.957 -0.005,0.326 0.028,0.708 -0.126,0.959 -0.173,0.277 -0.539,0.593 -0.821,0.596 -0.285,0.003 -0.676,-0.299 -0.833,-0.575 -0.169,-0.294 -0.152,-0.713 -0.159,-1.078 -0.015,-1.109 -0.022,-2.219 -0.001,-3.327 0.011,-0.547 -0.186,-0.762 -0.746,-0.893 -3.166,-0.742 -6.378,-1.158 -9.613,-1.405 -1.556,-0.119 -3.118,-0.145 -4.677,-0.25 -0.606,-0.041 -0.801,0.189 -0.783,0.77 0.026,0.944 0.011,1.89 0.003,2.834 -0.003,0.328 -0.005,0.66 -0.06,0.982 -0.085,0.513 -0.427,0.81 -0.938,0.796 -0.511,-0.013 -0.831,-0.329 -0.899,-0.845 -0.039,-0.283 -0.045,-0.573 -0.049,-0.859 -0.004,-0.904 0.01,-1.808 -0.004,-2.712 -0.015,-0.956 -0.026,-0.983 -0.947,-0.947 -1.642,0.061 -3.294,0.067 -4.92,0.264 -2.932,0.352 -5.853,0.801 -8.769,1.261 -1.168,0.185 -1.162,0.244 -1.17,1.402 -0.004,0.862 0.006,1.725 -0.005,2.588 -0.005,0.285 -0.023,0.577 -0.087,0.854 -0.103,0.454 -0.436,0.718 -0.881,0.717 -0.449,0 -0.773,-0.274 -0.882,-0.724 -0.06,-0.237 -0.081,-0.486 -0.09,-0.731 -0.013,-0.409 -0.004,-0.822 -0.004,-1.232 0,-2.12 -0.025,-2.181 -2.034,-1.36 -1.32,0.539 -2.561,1.276 -3.823,1.95 -0.463,0.25 -0.644,0.662 -0.642,1.226 0.021,4.931 0.012,9.862 0.015,14.793 0,0.322 -0.039,0.767 0.5,0.433 1.623,-1.003 3.423,-1.576 5.214,-2.164 0.569,-0.187 0.81,-0.455 0.777,-1.049 -0.035,-0.655 -0.029,-1.316 0.004,-1.972 0.038,-0.771 0.397,-1.208 0.94,-1.221 0.551,-0.016 0.933,0.422 0.986,1.176 0.03,0.409 0.006,0.821 0.011,1.232 0.017,1.034 0.016,1.019 0.997,0.851 1.74,-0.294 3.471,-0.649 5.223,-0.835 2.734,-0.29 5.48,-0.463 8.223,-0.682 0.284,-0.022 0.575,-0.028 0.862,-0.025 0.376,0.003 0.5,-0.208 0.501,-0.545 0,-0.534 -0.014,-1.069 0.012,-1.602 0.039,-0.849 0.407,-1.314 0.992,-1.298 0.576,0.017 0.905,0.479 0.945,1.348 0.016,0.328 0.001,0.658 0.004,0.986 0.014,1.085 0.015,1.082 1.051,1.127 0.984,0.045 1.969,0.089 2.954,0.145 3.651,0.208 7.274,0.656 10.855,1.414 0.922,0.196 0.923,0.183 0.951,-0.796 0.011,-0.411 0.002,-0.824 0.058,-1.229 0.071,-0.518 0.403,-0.803 0.93,-0.797 0.526,0.006 0.858,0.307 0.905,0.824 0.054,0.611 0.074,1.231 0.045,1.844 -0.031,0.629 0.202,0.924 0.817,1.155 1.684,0.632 3.335,1.353 4.984,2.074 0.457,0.201 0.583,0.089 0.572,-0.36 C -0.009,7.232 0,6.943 0,6.657 Z" />
    </g>
    <g
       style="display:inline;fill:#33cccd;fill-opacity:1"
       transform="matrix(0.26458333,0,0,-0.26458333,-81.646027,260.35829)"
       id="g857">
      <path
         inkscape:connector-curvature="0"
         id="path859"
         style="fill:#33cccd;fill-opacity:1;fill-rule:evenodd;stroke:none"
         d="m 0,0 c -4.657,0.03 -9.273,0.441 -13.838,1.336 -2.659,0.522 -5.275,1.236 -7.712,2.462 -0.763,0.383 -1.508,0.849 -2.165,1.395 -1.948,1.617 -1.893,3.604 0.076,5.169 1.136,0.902 2.41,1.552 3.754,2.074 3.469,1.345 7.093,2.008 10.766,2.465 4.251,0.53 8.523,0.649 12.79,0.442 5.504,-0.268 10.963,-0.904 16.166,-2.899 1.308,-0.5 2.571,-1.095 3.648,-2.006 C 23.92,10.071 24.34,9.657 24.66,9.194 25.311,8.258 25.343,7.216 24.656,6.321 24.12,5.62 23.434,4.994 22.71,4.479 21.084,3.324 19.182,2.732 17.296,2.183 13.939,1.207 10.494,0.649 7.01,0.382 4.678,0.203 2.338,0.124 0,0" />
    </g>
    <g
       style="display:inline;fill:#33cccd;fill-opacity:1"
       transform="matrix(0.26458333,0,0,-0.26458333,-81.208326,268.17048)"
       id="g861">
      <path
         inkscape:connector-curvature="0"
         id="path863"
         style="fill:#33cccd;fill-opacity:1;fill-rule:evenodd;stroke:none"
         d="m 0,0 c -7.335,0.016 -13.006,0.491 -18.551,2.008 -2.058,0.562 -4.095,1.221 -5.887,2.424 -0.637,0.428 -1.217,0.973 -1.737,1.544 -0.72,0.79 -0.672,1.811 -0.648,2.8 0.008,0.343 0.238,0.28 0.418,0.171 1.705,-1.019 3.566,-1.655 5.443,-2.252 0.415,-0.132 0.62,-0.356 0.608,-0.793 -0.005,-0.203 0.016,-0.411 0.053,-0.611 0.083,-0.458 0.375,-0.736 0.825,-0.79 0.461,-0.053 0.909,0.181 0.945,0.607 0.081,1.044 0.675,0.739 1.279,0.618 4.481,-0.895 9.006,-1.367 13.57,-1.473 0.618,-0.013 1.111,-0.021 1.192,-0.833 0.045,-0.437 0.46,-0.68 0.919,-0.649 0.453,0.032 0.824,0.296 0.845,0.751 0.037,0.741 0.509,0.707 1.022,0.725 4.766,0.151 9.504,0.575 14.167,1.619 0.471,0.105 0.605,0.002 0.71,-0.504 0.081,-0.392 0.067,-0.352 0.142,-0.585 0.087,-0.267 0.169,-0.6 0.77,-0.495 0.562,0.097 0.694,0.094 0.892,0.426 0.029,0.051 0.125,0.41 0.106,0.559 -0.143,1.192 0.521,1.409 1.403,1.729 1.498,0.541 2.946,1.225 4.404,1.875 0.422,0.189 0.53,0.136 0.579,-0.347 C 23.614,7.034 23.104,5.829 21.889,5.009 20.875,4.327 19.807,3.697 18.688,3.209 15.699,1.903 12.523,1.254 9.311,0.776 5.691,0.237 2.051,-0.021 0,0" />
    </g>
    <g
       style="display:inline;fill:#33cccd;fill-opacity:1"
       transform="matrix(0.26458333,0,0,-0.26458333,-82.794001,261.53896)"
       id="g865">
      <path
         inkscape:connector-curvature="0"
         id="path867"
         style="fill:#33cccd;fill-opacity:1;fill-rule:evenodd;stroke:none"
         d="m 0,0 c -3.691,0.178 -7.354,0.594 -10.971,1.371 -0.239,0.051 -0.476,0.153 -0.717,0.165 -0.591,0.031 -0.714,0.358 -0.737,0.892 -0.085,2.023 -0.099,2.038 1.824,1.61 C -6.503,3.122 -2.345,2.739 1.843,2.6 2.169,2.589 2.498,2.573 2.827,2.581 3.253,2.591 3.364,2.371 3.399,1.976 3.592,-0.113 3.57,-0.149 1.476,-0.071 0.983,-0.053 0.491,-0.024 0,0" />
    </g>
    <g
       style="display:inline;fill:#33cccd;fill-opacity:1"
       transform="matrix(0.26458333,0,0,-0.26458333,-80.524378,261.56661)"
       id="g869">
      <path
         inkscape:connector-curvature="0"
         id="path871"
         style="fill:#33cccd;fill-opacity:1;fill-rule:evenodd;stroke:none"
         d="m 0,0 c -0.86,0 -1.722,0.018 -2.582,-0.008 -0.482,-0.015 -0.621,0.187 -0.657,0.646 -0.163,2.028 -0.176,2.01 1.833,2.078 4.31,0.144 8.586,0.597 12.795,1.574 0.159,0.037 0.319,0.075 0.479,0.113 0.45,0.109 0.722,-0.019 0.703,-0.532 -0.003,-0.082 0,-0.164 0.004,-0.246 C 12.649,1.816 12.646,1.834 10.851,1.443 7.274,0.666 3.648,0.297 0,0" />
    </g>
    <g
       style="display:inline;fill:#33cccd;fill-opacity:1"
       transform="matrix(0.26458333,0,0,-0.26458333,-88.323131,259.72474)"
       id="g873">
      <path
         inkscape:connector-curvature="0"
         id="path875"
         style="fill:#33cccd;fill-opacity:1;fill-rule:evenodd;stroke:none"
         d="M 0,0 C 0.051,0.392 0.102,0.784 0.153,1.175 0.496,0.973 0.828,0.747 1.185,0.574 2.69,-0.151 4.188,-0.892 5.722,-1.557 6.281,-1.8 6.558,-2.056 6.546,-2.704 6.497,-5.028 6.702,-4.714 4.716,-4.004 3.567,-3.594 2.468,-3.025 1.394,-2.443 0.461,-1.939 -0.387,-1.304 0,0" />
    </g>
    <g
       style="display:inline;fill:#33cccd;fill-opacity:1"
       transform="matrix(0.26458333,0,0,-0.26458333,-76.680168,260.54019)"
       id="g877">
      <path
         inkscape:connector-curvature="0"
         id="path879"
         style="fill:#33cccd;fill-opacity:1;fill-rule:evenodd;stroke:none"
         d="M 0,0 C -0.018,1.227 -0.018,1.227 1.168,1.655 2.787,2.241 4.333,2.966 5.728,3.993 6.215,4.352 6.305,4.291 6.348,3.679 6.499,1.579 6.415,1.327 4.491,0.328 3.267,-0.308 1.946,-0.761 0.674,-1.309 0.193,-1.515 -0.018,-1.375 -0.004,-0.858 0.006,-0.572 0,-0.285 0,0" />
    </g>
  </g>
</svg>
